<ttFont>
    <TTGlyph name=".notdef" xMin="67" yMin="0" xMax="625" yMax="531">
      <contour>
        <pt x="611" y="506" on="1"/>
        <pt x="359" y="266" on="1"/>
        <pt x="611" y="25" on="1"/>
      </contour>
      <contour>
        <pt x="94" y="13" on="1"/>
        <pt x="601" y="13" on="1"/>
        <pt x="348" y="256" on="1"/>
      </contour>
      <contour>
        <pt x="81" y="22" on="1"/>
        <pt x="337" y="266" on="1"/>
        <pt x="81" y="507" on="1"/>
      </contour>
      <contour>
        <pt x="602" y="518" on="1"/>
        <pt x="91" y="518" on="1"/>
        <pt x="348" y="276" on="1"/>
      </contour>
      <contour>
        <pt x="67" y="0" on="1"/>
        <pt x="67" y="531" on="1"/>
        <pt x="625" y="531" on="1"/>
        <pt x="625" y="0" on="1"/>
      </contour>
    </TTGlyph>
    <TTGlyph name="A" xMin="30" yMin="0" xMax="690" yMax="732">
      <contour>
        <pt x="30" y="0" on="1"/>
        <pt x="269" y="732" on="1"/>
        <pt x="459" y="732" on="1"/>
        <pt x="690" y="0" on="1"/>
        <pt x="519" y="0" on="1"/>
        <pt x="471" y="147" on="1"/>
        <pt x="250" y="147" on="1"/>
        <pt x="202" y="0" on="1"/>
      </contour>
      <contour>
        <pt x="290" y="289" on="1"/>
        <pt x="435" y="289" on="1"/>
        <pt x="366" y="522" on="1"/>
      </contour>
    </TTGlyph>
    <TTGlyph name="AE" xMin="20" yMin="-5" xMax="936" yMax="733">
      <contour>
        <pt x="480" y="721" on="1"/>
        <pt x="518" y="730" on="0"/>
        <pt x="566" y="733" on="0"/>
        <pt x="603" y="733" on="0"/>
        <pt x="626" y="732" on="1"/>
        <pt x="848" y="728" on="0"/>
        <pt x="936" y="716" on="1"/>
        <pt x="936" y="579" on="1"/>
        <pt x="671" y="579" on="1"/>
        <pt x="630" y="579" on="0"/>
        <pt x="623" y="554" on="1"/>
        <pt x="620" y="543" on="0"/>
        <pt x="619" y="524" on="1"/>
        <pt x="619" y="439" on="1"/>
        <pt x="888" y="428" on="1"/>
        <pt x="888" y="293" on="1"/>
        <pt x="619" y="284" on="1"/>
        <pt x="619" y="201" on="1"/>
        <pt x="619" y="159" on="0"/>
        <pt x="647" y="153" on="1"/>
        <pt x="660" y="150" on="0"/>
        <pt x="681" y="150" on="1"/>
        <pt x="936" y="150" on="1"/>
        <pt x="936" y="14" on="1"/>
        <pt x="867" y="4" on="0"/>
        <pt x="694" y="-2" on="1"/>
        <pt x="636" y="-4" on="1"/>
        <pt x="627" y="-4" on="0"/>
        <pt x="598" y="-4" on="0"/>
        <pt x="550" y="3" on="0"/>
        <pt x="491" y="26" on="0"/>
        <pt x="455" y="81" on="0"/>
        <pt x="455" y="121" on="1"/>
        <pt x="455" y="182" on="1"/>
        <pt x="292" y="182" on="1"/>
        <pt x="202" y="0" on="1"/>
        <pt x="20" y="0" on="1"/>
        <pt x="298" y="565" on="1"/>
        <pt x="361" y="693" on="0"/>
      </contour>
      <contour>
        <pt x="455" y="324" on="1"/>
        <pt x="455" y="524" on="1"/>
        <pt x="360" y="324" on="1"/>
      </contour>
    </TTGlyph>
    <TTGlyph name="Aacute" xMin="30" yMin="0" xMax="690" yMax="938">
      <contour>
        <pt x="315" y="797" on="1"/>
        <pt x="399" y="938" on="1"/>
        <pt x="532" y="938" on="1"/>
        <pt x="414" y="797" on="1"/>
      </contour>
      <contour>
        <pt x="30" y="0" on="1"/>
        <pt x="269" y="732" on="1"/>
        <pt x="459" y="732" on="1"/>
        <pt x="690" y="0" on="1"/>
        <pt x="519" y="0" on="1"/>
        <pt x="471" y="147" on="1"/>
        <pt x="250" y="147" on="1"/>
        <pt x="202" y="0" on="1"/>
      </contour>
      <contour>
        <pt x="290" y="289" on="1"/>
        <pt x="435" y="289" on="1"/>
        <pt x="366" y="522" on="1"/>
      </contour>
    </TTGlyph>
    <TTGlyph name="Abreve" xMin="30" yMin="0" xMax="690" yMax="911">
      <contour>
        <pt x="249" y="911" on="1"/>
        <pt x="311" y="911" on="1"/>
        <pt x="311" y="887" on="0"/>
        <pt x="339" y="859" on="0"/>
        <pt x="363" y="859" on="1"/>
        <pt x="417" y="859" on="0"/>
        <pt x="417" y="911" on="1"/>
        <pt x="479" y="911" on="1"/>
        <pt x="479" y="877" on="0"/>
        <pt x="464" y="851" on="1"/>
        <pt x="433" y="797" on="0"/>
        <pt x="363" y="797" on="1"/>
        <pt x="313" y="797" on="0"/>
        <pt x="249" y="860" on="0"/>
      </contour>
      <contour>
        <pt x="30" y="0" on="1"/>
        <pt x="269" y="732" on="1"/>
        <pt x="459" y="732" on="1"/>
        <pt x="690" y="0" on="1"/>
        <pt x="519" y="0" on="1"/>
        <pt x="471" y="147" on="1"/>
        <pt x="250" y="147" on="1"/>
        <pt x="202" y="0" on="1"/>
      </contour>
      <contour>
        <pt x="290" y="289" on="1"/>
        <pt x="435" y="289" on="1"/>
        <pt x="366" y="522" on="1"/>
      </contour>
    </TTGlyph>
    <TTGlyph name="Acircumflex" xMin="30" yMin="0" xMax="690" yMax="935">
      <contour>
        <pt x="207" y="797" on="1"/>
        <pt x="311" y="934" on="1"/>
        <pt x="427" y="934" on="1"/>
        <pt x="521" y="797" on="1"/>
        <pt x="420" y="797" on="1"/>
        <pt x="366" y="853" on="1"/>
        <pt x="309" y="797" on="1"/>
      </contour>
      <contour>
        <pt x="30" y="0" on="1"/>
        <pt x="269" y="732" on="1"/>
        <pt x="459" y="732" on="1"/>
        <pt x="690" y="0" on="1"/>
        <pt x="519" y="0" on="1"/>
        <pt x="471" y="147" on="1"/>
        <pt x="250" y="147" on="1"/>
        <pt x="202" y="0" on="1"/>
      </contour>
      <contour>
        <pt x="290" y="289" on="1"/>
        <pt x="435" y="289" on="1"/>
        <pt x="366" y="522" on="1"/>
      </contour>
    </TTGlyph>
    <TTGlyph name="Adieresis" xMin="30" yMin="0" xMax="690" yMax="921">
      <contour>
        <pt x="175" y="834" on="0"/>
        <pt x="175" y="885" on="0"/>
        <pt x="212" y="920" on="0"/>
        <pt x="263" y="920" on="0"/>
        <pt x="298" y="885" on="0"/>
        <pt x="298" y="834" on="0"/>
        <pt x="263" y="797" on="0"/>
        <pt x="212" y="797" on="0"/>
      </contour>
      <contour>
        <pt x="430" y="834" on="0"/>
        <pt x="430" y="885" on="0"/>
        <pt x="467" y="920" on="0"/>
        <pt x="518" y="920" on="0"/>
        <pt x="553" y="885" on="0"/>
        <pt x="553" y="834" on="0"/>
        <pt x="518" y="797" on="0"/>
        <pt x="467" y="797" on="0"/>
      </contour>
      <contour>
        <pt x="30" y="0" on="1"/>
        <pt x="269" y="732" on="1"/>
        <pt x="459" y="732" on="1"/>
        <pt x="690" y="0" on="1"/>
        <pt x="519" y="0" on="1"/>
        <pt x="471" y="147" on="1"/>
        <pt x="250" y="147" on="1"/>
        <pt x="202" y="0" on="1"/>
      </contour>
      <contour>
        <pt x="290" y="289" on="1"/>
        <pt x="435" y="289" on="1"/>
        <pt x="366" y="522" on="1"/>
      </contour>
    </TTGlyph>
    <TTGlyph name="Agrave" xMin="30" yMin="0" xMax="690" yMax="938">
      <contour>
        <pt x="197" y="938" on="1"/>
        <pt x="329" y="938" on="1"/>
        <pt x="414" y="797" on="1"/>
        <pt x="315" y="797" on="1"/>
      </contour>
      <contour>
        <pt x="30" y="0" on="1"/>
        <pt x="269" y="732" on="1"/>
        <pt x="459" y="732" on="1"/>
        <pt x="690" y="0" on="1"/>
        <pt x="519" y="0" on="1"/>
        <pt x="471" y="147" on="1"/>
        <pt x="250" y="147" on="1"/>
        <pt x="202" y="0" on="1"/>
      </contour>
      <contour>
        <pt x="290" y="289" on="1"/>
        <pt x="435" y="289" on="1"/>
        <pt x="366" y="522" on="1"/>
      </contour>
    </TTGlyph>
    <TTGlyph name="Amacron" xMin="30" yMin="0" xMax="690" yMax="883">
      <contour>
        <pt x="218" y="797" on="1"/>
        <pt x="218" y="882" on="1"/>
        <pt x="510" y="882" on="1"/>
        <pt x="510" y="797" on="1"/>
      </contour>
      <contour>
        <pt x="30" y="0" on="1"/>
        <pt x="269" y="732" on="1"/>
        <pt x="459" y="732" on="1"/>
        <pt x="690" y="0" on="1"/>
        <pt x="519" y="0" on="1"/>
        <pt x="471" y="147" on="1"/>
        <pt x="250" y="147" on="1"/>
        <pt x="202" y="0" on="1"/>
      </contour>
      <contour>
        <pt x="290" y="289" on="1"/>
        <pt x="435" y="289" on="1"/>
        <pt x="366" y="522" on="1"/>
      </contour>
    </TTGlyph>
    <TTGlyph name="Aogonek" xMin="30" yMin="-191" xMax="690" yMax="732">
      <contour>
        <pt x="639" y="1" on="1"/>
        <pt x="595" y="-31" on="0"/>
        <pt x="595" y="-90" on="0"/>
        <pt x="623" y="-101" on="1"/>
        <pt x="635" y="-106" on="0"/>
        <pt x="649" y="-105" on="1"/>
        <pt x="649" y="-187" on="1"/>
        <pt x="635" y="-191" on="0"/>
        <pt x="613" y="-191" on="0"/>
        <pt x="583" y="-188" on="0"/>
        <pt x="566" y="-176" on="1"/>
        <pt x="512" y="-140" on="0"/>
        <pt x="512" y="-34" on="0"/>
        <pt x="577" y="1" on="1"/>
      </contour>
      <contour>
        <pt x="30" y="0" on="1"/>
        <pt x="269" y="732" on="1"/>
        <pt x="459" y="732" on="1"/>
        <pt x="690" y="0" on="1"/>
        <pt x="519" y="0" on="1"/>
        <pt x="471" y="147" on="1"/>
        <pt x="250" y="147" on="1"/>
        <pt x="202" y="0" on="1"/>
      </contour>
      <contour>
        <pt x="290" y="289" on="1"/>
        <pt x="435" y="289" on="1"/>
        <pt x="366" y="522" on="1"/>
      </contour>
    </TTGlyph>
    <TTGlyph name="Aring" xMin="30" yMin="0" xMax="690" yMax="936">
      <contour>
        <pt x="263" y="804" on="0"/>
        <pt x="290" y="757" on="0"/>
        <pt x="337" y="730" on="0"/>
        <pt x="392" y="730" on="0"/>
        <pt x="439" y="757" on="0"/>
        <pt x="466" y="804" on="0"/>
        <pt x="466" y="875" on="0"/>
        <pt x="407" y="935" on="0"/>
        <pt x="323" y="935" on="0"/>
        <pt x="263" y="875" on="0"/>
      </contour>
      <contour>
        <pt x="325" y="848" on="0"/>
        <pt x="348" y="871" on="0"/>
        <pt x="381" y="871" on="0"/>
        <pt x="403" y="849" on="0"/>
        <pt x="403" y="816" on="0"/>
        <pt x="381" y="794" on="0"/>
        <pt x="348" y="794" on="0"/>
        <pt x="337" y="805" on="1"/>
        <pt x="332" y="810" on="0"/>
        <pt x="325" y="824" on="0"/>
      </contour>
      <contour>
        <pt x="30" y="0" on="1"/>
        <pt x="269" y="732" on="1"/>
        <pt x="459" y="732" on="1"/>
        <pt x="690" y="0" on="1"/>
        <pt x="519" y="0" on="1"/>
        <pt x="471" y="147" on="1"/>
        <pt x="250" y="147" on="1"/>
        <pt x="202" y="0" on="1"/>
      </contour>
      <contour>
        <pt x="290" y="289" on="1"/>
        <pt x="435" y="289" on="1"/>
        <pt x="366" y="522" on="1"/>
      </contour>
    </TTGlyph>
    <TTGlyph name="Atilde" xMin="30" yMin="0" xMax="690" yMax="933">
      <contour>
        <pt x="424" y="894" on="1"/>
        <pt x="467" y="894" on="0"/>
        <pt x="512" y="933" on="1"/>
        <pt x="537" y="867" on="1"/>
        <pt x="481" y="797" on="0"/>
        <pt x="425" y="797" on="1"/>
        <pt x="401" y="797" on="0"/>
        <pt x="329" y="832" on="0"/>
        <pt x="283" y="832" on="0"/>
        <pt x="246" y="816" on="0"/>
        <pt x="217" y="797" on="1"/>
        <pt x="191" y="858" on="1"/>
        <pt x="250" y="929" on="0"/>
        <pt x="313" y="929" on="1"/>
        <pt x="337" y="929" on="0"/>
        <pt x="369" y="911" on="1"/>
        <pt x="402" y="894" on="0"/>
      </contour>
      <contour>
        <pt x="30" y="0" on="1"/>
        <pt x="269" y="732" on="1"/>
        <pt x="459" y="732" on="1"/>
        <pt x="690" y="0" on="1"/>
        <pt x="519" y="0" on="1"/>
        <pt x="471" y="147" on="1"/>
        <pt x="250" y="147" on="1"/>
        <pt x="202" y="0" on="1"/>
      </contour>
      <contour>
        <pt x="290" y="289" on="1"/>
        <pt x="435" y="289" on="1"/>
        <pt x="366" y="522" on="1"/>
      </contour>
    </TTGlyph>
    <TTGlyph name="B" xMin="53" yMin="0" xMax="590" yMax="732">
      <contour>
        <pt x="54" y="0" on="1"/>
        <pt x="54" y="732" on="1"/>
        <pt x="363" y="732" on="1"/>
        <pt x="472" y="732" on="0"/>
        <pt x="575" y="625" on="0"/>
        <pt x="575" y="534" on="1"/>
        <pt x="575" y="480" on="0"/>
        <pt x="522" y="387" on="0"/>
        <pt x="472" y="380" on="1"/>
        <pt x="543" y="368" on="0"/>
        <pt x="574" y="296" on="1"/>
        <pt x="590" y="261" on="0"/>
        <pt x="590" y="219" on="1"/>
        <pt x="590" y="107" on="0"/>
        <pt x="482" y="0" on="0"/>
        <pt x="366" y="0" on="1"/>
      </contour>
      <contour>
        <pt x="218" y="142" on="1"/>
        <pt x="359" y="142" on="1"/>
        <pt x="426" y="142" on="0"/>
        <pt x="426" y="227" on="1"/>
        <pt x="426" y="266" on="0"/>
        <pt x="394" y="316" on="0"/>
        <pt x="359" y="316" on="1"/>
        <pt x="218" y="316" on="1"/>
      </contour>
      <contour>
        <pt x="218" y="450" on="1"/>
        <pt x="352" y="450" on="1"/>
        <pt x="382" y="450" on="0"/>
        <pt x="414" y="487" on="0"/>
        <pt x="414" y="558" on="0"/>
        <pt x="378" y="590" on="0"/>
        <pt x="352" y="590" on="1"/>
        <pt x="218" y="590" on="1"/>
      </contour>
    </TTGlyph>
    <TTGlyph name="C" xMin="37" yMin="-7" xMax="547" yMax="740">
      <contour>
        <pt x="37" y="368" on="1"/>
        <pt x="37" y="460" on="0"/>
        <pt x="60" y="591" on="0"/>
        <pt x="88" y="641" on="1"/>
        <pt x="142" y="740" on="0"/>
        <pt x="288" y="740" on="1"/>
        <pt x="377" y="740" on="0"/>
        <pt x="484" y="725" on="0"/>
        <pt x="547" y="704" on="1"/>
        <pt x="547" y="576" on="1"/>
        <pt x="547" y="576" on="0"/>
        <pt x="533" y="577" on="0"/>
        <pt x="509" y="580" on="0"/>
        <pt x="478" y="583" on="0"/>
        <pt x="439" y="587" on="0"/>
        <pt x="419" y="588" on="1"/>
        <pt x="374" y="591" on="0"/>
        <pt x="310" y="591" on="0"/>
        <pt x="282" y="588" on="0"/>
        <pt x="250" y="579" on="0"/>
        <pt x="232" y="560" on="0"/>
        <pt x="215" y="528" on="0"/>
        <pt x="210" y="504" on="1"/>
        <pt x="201" y="449" on="0"/>
        <pt x="201" y="239" on="0"/>
        <pt x="254" y="143" on="0"/>
        <pt x="334" y="143" on="1"/>
        <pt x="427" y="143" on="0"/>
        <pt x="517" y="149" on="1"/>
        <pt x="547" y="152" on="1"/>
        <pt x="547" y="24" on="1"/>
        <pt x="463" y="-6" on="0"/>
        <pt x="316" y="-6" on="1"/>
        <pt x="302" y="-6" on="0"/>
        <pt x="288" y="-6" on="1"/>
        <pt x="151" y="-4" on="0"/>
        <pt x="93" y="93" on="1"/>
        <pt x="37" y="186" on="0"/>
      </contour>
    </TTGlyph>
    <TTGlyph name="Cacute" xMin="37" yMin="-7" xMax="547" yMax="941">
      <contour>
        <pt x="283" y="800" on="1"/>
        <pt x="368" y="940" on="1"/>
        <pt x="500" y="940" on="1"/>
        <pt x="382" y="800" on="1"/>
      </contour>
      <contour>
        <pt x="37" y="368" on="1"/>
        <pt x="37" y="460" on="0"/>
        <pt x="60" y="591" on="0"/>
        <pt x="88" y="641" on="1"/>
        <pt x="142" y="740" on="0"/>
        <pt x="288" y="740" on="1"/>
        <pt x="377" y="740" on="0"/>
        <pt x="484" y="725" on="0"/>
        <pt x="547" y="704" on="1"/>
        <pt x="547" y="576" on="1"/>
        <pt x="547" y="576" on="0"/>
        <pt x="533" y="577" on="0"/>
        <pt x="509" y="580" on="0"/>
        <pt x="478" y="583" on="0"/>
        <pt x="439" y="587" on="0"/>
        <pt x="419" y="588" on="1"/>
        <pt x="374" y="591" on="0"/>
        <pt x="310" y="591" on="0"/>
        <pt x="282" y="588" on="0"/>
        <pt x="250" y="579" on="0"/>
        <pt x="232" y="560" on="0"/>
        <pt x="215" y="528" on="0"/>
        <pt x="210" y="504" on="1"/>
        <pt x="201" y="449" on="0"/>
        <pt x="201" y="239" on="0"/>
        <pt x="254" y="143" on="0"/>
        <pt x="334" y="143" on="1"/>
        <pt x="427" y="143" on="0"/>
        <pt x="517" y="149" on="1"/>
        <pt x="547" y="152" on="1"/>
        <pt x="547" y="24" on="1"/>
        <pt x="463" y="-6" on="0"/>
        <pt x="316" y="-6" on="1"/>
        <pt x="302" y="-6" on="0"/>
        <pt x="288" y="-6" on="1"/>
        <pt x="151" y="-4" on="0"/>
        <pt x="93" y="93" on="1"/>
        <pt x="37" y="186" on="0"/>
      </contour>
    </TTGlyph>
    <TTGlyph name="Ccaron" xMin="37" yMin="-7" xMax="547" yMax="938">
      <contour>
        <pt x="183" y="938" on="1"/>
        <pt x="284" y="938" on="1"/>
        <pt x="341" y="882" on="1"/>
        <pt x="396" y="938" on="1"/>
        <pt x="497" y="938" on="1"/>
        <pt x="396" y="800" on="1"/>
        <pt x="280" y="800" on="1"/>
      </contour>
      <contour>
        <pt x="37" y="368" on="1"/>
        <pt x="37" y="460" on="0"/>
        <pt x="60" y="591" on="0"/>
        <pt x="88" y="641" on="1"/>
        <pt x="142" y="740" on="0"/>
        <pt x="288" y="740" on="1"/>
        <pt x="377" y="740" on="0"/>
        <pt x="484" y="725" on="0"/>
        <pt x="547" y="704" on="1"/>
        <pt x="547" y="576" on="1"/>
        <pt x="547" y="576" on="0"/>
        <pt x="533" y="577" on="0"/>
        <pt x="509" y="580" on="0"/>
        <pt x="478" y="583" on="0"/>
        <pt x="439" y="587" on="0"/>
        <pt x="419" y="588" on="1"/>
        <pt x="374" y="591" on="0"/>
        <pt x="310" y="591" on="0"/>
        <pt x="282" y="588" on="0"/>
        <pt x="250" y="579" on="0"/>
        <pt x="232" y="560" on="0"/>
        <pt x="215" y="528" on="0"/>
        <pt x="210" y="504" on="1"/>
        <pt x="201" y="449" on="0"/>
        <pt x="201" y="239" on="0"/>
        <pt x="254" y="143" on="0"/>
        <pt x="334" y="143" on="1"/>
        <pt x="427" y="143" on="0"/>
        <pt x="517" y="149" on="1"/>
        <pt x="547" y="152" on="1"/>
        <pt x="547" y="24" on="1"/>
        <pt x="463" y="-6" on="0"/>
        <pt x="316" y="-6" on="1"/>
        <pt x="302" y="-6" on="0"/>
        <pt x="288" y="-6" on="1"/>
        <pt x="151" y="-4" on="0"/>
        <pt x="93" y="93" on="1"/>
        <pt x="37" y="186" on="0"/>
      </contour>
    </TTGlyph>
    <TTGlyph name="Ccedilla" xMin="37" yMin="-181" xMax="547" yMax="740">
      <contour>
        <pt x="146" y="-37" on="1"/>
        <pt x="250" y="-37" on="1"/>
        <pt x="250" y="-115" on="0"/>
        <pt x="199" y="-180" on="0"/>
        <pt x="134" y="-180" on="1"/>
        <pt x="76" y="-180" on="1"/>
        <pt x="76" y="-112" on="1"/>
        <pt x="116" y="-97" on="1"/>
        <pt x="141" y="-86" on="0"/>
        <pt x="144" y="-67" on="1"/>
        <pt x="146" y="-58" on="0"/>
      </contour>
      <contour>
        <pt x="37" y="368" on="1"/>
        <pt x="37" y="460" on="0"/>
        <pt x="60" y="591" on="0"/>
        <pt x="88" y="641" on="1"/>
        <pt x="142" y="740" on="0"/>
        <pt x="288" y="740" on="1"/>
        <pt x="377" y="740" on="0"/>
        <pt x="484" y="725" on="0"/>
        <pt x="547" y="704" on="1"/>
        <pt x="547" y="576" on="1"/>
        <pt x="547" y="576" on="0"/>
        <pt x="533" y="577" on="0"/>
        <pt x="509" y="580" on="0"/>
        <pt x="478" y="583" on="0"/>
        <pt x="439" y="587" on="0"/>
        <pt x="419" y="588" on="1"/>
        <pt x="374" y="591" on="0"/>
        <pt x="310" y="591" on="0"/>
        <pt x="282" y="588" on="0"/>
        <pt x="250" y="579" on="0"/>
        <pt x="232" y="560" on="0"/>
        <pt x="215" y="528" on="0"/>
        <pt x="210" y="504" on="1"/>
        <pt x="201" y="449" on="0"/>
        <pt x="201" y="239" on="0"/>
        <pt x="254" y="143" on="0"/>
        <pt x="334" y="143" on="1"/>
        <pt x="427" y="143" on="0"/>
        <pt x="517" y="149" on="1"/>
        <pt x="547" y="152" on="1"/>
        <pt x="547" y="24" on="1"/>
        <pt x="463" y="-6" on="0"/>
        <pt x="316" y="-6" on="1"/>
        <pt x="302" y="-6" on="0"/>
        <pt x="288" y="-6" on="1"/>
        <pt x="151" y="-4" on="0"/>
        <pt x="93" y="93" on="1"/>
        <pt x="37" y="186" on="0"/>
      </contour>
    </TTGlyph>
    <TTGlyph name="Ccircumflex" xMin="37" yMin="-7" xMax="547" yMax="938">
      <contour>
        <pt x="174" y="800" on="1"/>
        <pt x="278" y="938" on="1"/>
        <pt x="394" y="938" on="1"/>
        <pt x="488" y="800" on="1"/>
        <pt x="388" y="800" on="1"/>
        <pt x="333" y="856" on="1"/>
        <pt x="276" y="800" on="1"/>
      </contour>
      <contour>
        <pt x="37" y="368" on="1"/>
        <pt x="37" y="460" on="0"/>
        <pt x="60" y="591" on="0"/>
        <pt x="88" y="641" on="1"/>
        <pt x="142" y="740" on="0"/>
        <pt x="288" y="740" on="1"/>
        <pt x="377" y="740" on="0"/>
        <pt x="484" y="725" on="0"/>
        <pt x="547" y="704" on="1"/>
        <pt x="547" y="576" on="1"/>
        <pt x="547" y="576" on="0"/>
        <pt x="533" y="577" on="0"/>
        <pt x="509" y="580" on="0"/>
        <pt x="478" y="583" on="0"/>
        <pt x="439" y="587" on="0"/>
        <pt x="419" y="588" on="1"/>
        <pt x="374" y="591" on="0"/>
        <pt x="310" y="591" on="0"/>
        <pt x="282" y="588" on="0"/>
        <pt x="250" y="579" on="0"/>
        <pt x="232" y="560" on="0"/>
        <pt x="215" y="528" on="0"/>
        <pt x="210" y="504" on="1"/>
        <pt x="201" y="449" on="0"/>
        <pt x="201" y="239" on="0"/>
        <pt x="254" y="143" on="0"/>
        <pt x="334" y="143" on="1"/>
        <pt x="427" y="143" on="0"/>
        <pt x="517" y="149" on="1"/>
        <pt x="547" y="152" on="1"/>
        <pt x="547" y="24" on="1"/>
        <pt x="463" y="-6" on="0"/>
        <pt x="316" y="-6" on="1"/>
        <pt x="302" y="-6" on="0"/>
        <pt x="288" y="-6" on="1"/>
        <pt x="151" y="-4" on="0"/>
        <pt x="93" y="93" on="1"/>
        <pt x="37" y="186" on="0"/>
      </contour>
    </TTGlyph>
    <TTGlyph name="Cdotaccent" xMin="37" yMin="-7" xMax="547" yMax="933">
      <contour>
        <pt x="264" y="824" on="1"/>
        <pt x="264" y="908" on="1"/>
        <pt x="264" y="932" on="0"/>
        <pt x="288" y="932" on="1"/>
        <pt x="368" y="932" on="1"/>
        <pt x="379" y="932" on="0"/>
        <pt x="392" y="918" on="0"/>
        <pt x="392" y="908" on="1"/>
        <pt x="392" y="824" on="1"/>
        <pt x="392" y="800" on="0"/>
        <pt x="368" y="800" on="1"/>
        <pt x="288" y="800" on="1"/>
        <pt x="278" y="800" on="0"/>
        <pt x="264" y="813" on="0"/>
      </contour>
      <contour>
        <pt x="37" y="368" on="1"/>
        <pt x="37" y="460" on="0"/>
        <pt x="60" y="591" on="0"/>
        <pt x="88" y="641" on="1"/>
        <pt x="142" y="740" on="0"/>
        <pt x="288" y="740" on="1"/>
        <pt x="377" y="740" on="0"/>
        <pt x="484" y="725" on="0"/>
        <pt x="547" y="704" on="1"/>
        <pt x="547" y="576" on="1"/>
        <pt x="547" y="576" on="0"/>
        <pt x="533" y="577" on="0"/>
        <pt x="509" y="580" on="0"/>
        <pt x="478" y="583" on="0"/>
        <pt x="439" y="587" on="0"/>
        <pt x="419" y="588" on="1"/>
        <pt x="374" y="591" on="0"/>
        <pt x="310" y="591" on="0"/>
        <pt x="282" y="588" on="0"/>
        <pt x="250" y="579" on="0"/>
        <pt x="232" y="560" on="0"/>
        <pt x="215" y="528" on="0"/>
        <pt x="210" y="504" on="1"/>
        <pt x="201" y="449" on="0"/>
        <pt x="201" y="239" on="0"/>
        <pt x="254" y="143" on="0"/>
        <pt x="334" y="143" on="1"/>
        <pt x="427" y="143" on="0"/>
        <pt x="517" y="149" on="1"/>
        <pt x="547" y="152" on="1"/>
        <pt x="547" y="24" on="1"/>
        <pt x="463" y="-6" on="0"/>
        <pt x="316" y="-6" on="1"/>
        <pt x="302" y="-6" on="0"/>
        <pt x="288" y="-6" on="1"/>
        <pt x="151" y="-4" on="0"/>
        <pt x="93" y="93" on="1"/>
        <pt x="37" y="186" on="0"/>
      </contour>
    </TTGlyph>
    <TTGlyph name="D" xMin="53" yMin="0" xMax="631" yMax="732">
      <contour>
        <pt x="54" y="0" on="1"/>
        <pt x="54" y="732" on="1"/>
        <pt x="379" y="732" on="1"/>
        <pt x="439" y="732" on="0"/>
        <pt x="529" y="691" on="0"/>
        <pt x="584" y="625" on="0"/>
        <pt x="601" y="576" on="1"/>
        <pt x="631" y="491" on="0"/>
        <pt x="631" y="363" on="1"/>
        <pt x="631" y="0" on="0"/>
        <pt x="379" y="0" on="1"/>
      </contour>
      <contour>
        <pt x="218" y="142" on="1"/>
        <pt x="364" y="142" on="1"/>
        <pt x="419" y="142" on="0"/>
        <pt x="467" y="252" on="0"/>
        <pt x="467" y="456" on="0"/>
        <pt x="441" y="558" on="0"/>
        <pt x="399" y="590" on="0"/>
        <pt x="364" y="590" on="1"/>
        <pt x="218" y="590" on="1"/>
      </contour>
    </TTGlyph>
    <TTGlyph name="Dcaron" xMin="53" yMin="0" xMax="631" yMax="934">
      <contour>
        <pt x="161" y="933" on="1"/>
        <pt x="262" y="933" on="1"/>
        <pt x="319" y="877" on="1"/>
        <pt x="374" y="933" on="1"/>
        <pt x="475" y="933" on="1"/>
        <pt x="374" y="796" on="1"/>
        <pt x="258" y="796" on="1"/>
      </contour>
      <contour>
        <pt x="54" y="0" on="1"/>
        <pt x="54" y="732" on="1"/>
        <pt x="379" y="732" on="1"/>
        <pt x="439" y="732" on="0"/>
        <pt x="529" y="691" on="0"/>
        <pt x="584" y="625" on="0"/>
        <pt x="601" y="576" on="1"/>
        <pt x="631" y="491" on="0"/>
        <pt x="631" y="363" on="1"/>
        <pt x="631" y="0" on="0"/>
        <pt x="379" y="0" on="1"/>
      </contour>
      <contour>
        <pt x="218" y="142" on="1"/>
        <pt x="364" y="142" on="1"/>
        <pt x="419" y="142" on="0"/>
        <pt x="467" y="252" on="0"/>
        <pt x="467" y="456" on="0"/>
        <pt x="441" y="558" on="0"/>
        <pt x="399" y="590" on="0"/>
        <pt x="364" y="590" on="1"/>
        <pt x="218" y="590" on="1"/>
      </contour>
    </TTGlyph>
    <TTGlyph name="Dcroat" xMin="-12" yMin="0" xMax="631" yMax="732">
      <contour>
        <pt x="-11" y="338" on="1"/>
        <pt x="-11" y="408" on="1"/>
        <pt x="54" y="408" on="1"/>
        <pt x="54" y="732" on="1"/>
        <pt x="54" y="732" on="0"/>
        <pt x="379" y="732" on="1"/>
        <pt x="439" y="732" on="0"/>
        <pt x="529" y="691" on="0"/>
        <pt x="584" y="625" on="0"/>
        <pt x="601" y="576" on="1"/>
        <pt x="631" y="491" on="0"/>
        <pt x="631" y="363" on="1"/>
        <pt x="631" y="0" on="0"/>
        <pt x="379" y="0" on="1"/>
        <pt x="54" y="0" on="1"/>
        <pt x="54" y="338" on="1"/>
      </contour>
      <contour>
        <pt x="218" y="142" on="1"/>
        <pt x="364" y="142" on="1"/>
        <pt x="419" y="142" on="0"/>
        <pt x="466" y="252" on="0"/>
        <pt x="466" y="433" on="0"/>
        <pt x="452" y="524" on="0"/>
        <pt x="424" y="571" on="0"/>
        <pt x="389" y="589" on="0"/>
        <pt x="364" y="589" on="1"/>
        <pt x="218" y="589" on="1"/>
        <pt x="218" y="408" on="1"/>
        <pt x="319" y="408" on="1"/>
        <pt x="319" y="338" on="1"/>
        <pt x="218" y="338" on="1"/>
      </contour>
    </TTGlyph>
    <TTGlyph name="E" xMin="50" yMin="-4" xMax="546" yMax="732">
      <contour>
        <pt x="50" y="152" on="1"/>
        <pt x="50" y="572" on="1"/>
        <pt x="50" y="680" on="0"/>
        <pt x="131" y="716" on="1"/>
        <pt x="169" y="732" on="0"/>
        <pt x="221" y="732" on="1"/>
        <pt x="458" y="728" on="0"/>
        <pt x="545" y="716" on="1"/>
        <pt x="545" y="579" on="1"/>
        <pt x="266" y="579" on="1"/>
        <pt x="229" y="579" on="0"/>
        <pt x="220" y="561" on="1"/>
        <pt x="214" y="547" on="0"/>
        <pt x="214" y="523" on="1"/>
        <pt x="214" y="440" on="1"/>
        <pt x="498" y="430" on="1"/>
        <pt x="498" y="294" on="1"/>
        <pt x="214" y="285" on="1"/>
        <pt x="214" y="202" on="1"/>
        <pt x="214" y="164" on="0"/>
        <pt x="235" y="156" on="1"/>
        <pt x="250" y="150" on="0"/>
        <pt x="276" y="150" on="1"/>
        <pt x="545" y="150" on="1"/>
        <pt x="545" y="14" on="1"/>
        <pt x="473" y="4" on="0"/>
        <pt x="256" y="-2" on="1"/>
        <pt x="231" y="-3" on="1"/>
        <pt x="223" y="-3" on="0"/>
        <pt x="201" y="-3" on="0"/>
        <pt x="166" y="0" on="0"/>
        <pt x="113" y="18" on="0"/>
        <pt x="76" y="50" on="0"/>
        <pt x="50" y="111" on="0"/>
      </contour>
    </TTGlyph>
    <TTGlyph name="Eacute" xMin="50" yMin="-4" xMax="546" yMax="937">
      <contour>
        <pt x="271" y="796" on="1"/>
        <pt x="356" y="936" on="1"/>
        <pt x="488" y="936" on="1"/>
        <pt x="370" y="796" on="1"/>
      </contour>
      <contour>
        <pt x="50" y="152" on="1"/>
        <pt x="50" y="572" on="1"/>
        <pt x="50" y="680" on="0"/>
        <pt x="131" y="716" on="1"/>
        <pt x="169" y="732" on="0"/>
        <pt x="221" y="732" on="1"/>
        <pt x="458" y="728" on="0"/>
        <pt x="545" y="716" on="1"/>
        <pt x="545" y="579" on="1"/>
        <pt x="266" y="579" on="1"/>
        <pt x="229" y="579" on="0"/>
        <pt x="220" y="561" on="1"/>
        <pt x="214" y="547" on="0"/>
        <pt x="214" y="523" on="1"/>
        <pt x="214" y="440" on="1"/>
        <pt x="498" y="430" on="1"/>
        <pt x="498" y="294" on="1"/>
        <pt x="214" y="285" on="1"/>
        <pt x="214" y="202" on="1"/>
        <pt x="214" y="164" on="0"/>
        <pt x="235" y="156" on="1"/>
        <pt x="250" y="150" on="0"/>
        <pt x="276" y="150" on="1"/>
        <pt x="545" y="150" on="1"/>
        <pt x="545" y="14" on="1"/>
        <pt x="473" y="4" on="0"/>
        <pt x="256" y="-2" on="1"/>
        <pt x="231" y="-3" on="1"/>
        <pt x="223" y="-3" on="0"/>
        <pt x="201" y="-3" on="0"/>
        <pt x="166" y="0" on="0"/>
        <pt x="113" y="18" on="0"/>
        <pt x="76" y="50" on="0"/>
        <pt x="50" y="111" on="0"/>
      </contour>
    </TTGlyph>
    <TTGlyph name="Ecaron" xMin="50" yMin="-4" xMax="546" yMax="934">
      <contour>
        <pt x="164" y="933" on="1"/>
        <pt x="265" y="933" on="1"/>
        <pt x="322" y="877" on="1"/>
        <pt x="376" y="933" on="1"/>
        <pt x="478" y="933" on="1"/>
        <pt x="377" y="796" on="1"/>
        <pt x="261" y="796" on="1"/>
      </contour>
      <contour>
        <pt x="50" y="152" on="1"/>
        <pt x="50" y="572" on="1"/>
        <pt x="50" y="680" on="0"/>
        <pt x="131" y="716" on="1"/>
        <pt x="169" y="732" on="0"/>
        <pt x="221" y="732" on="1"/>
        <pt x="458" y="728" on="0"/>
        <pt x="545" y="716" on="1"/>
        <pt x="545" y="579" on="1"/>
        <pt x="266" y="579" on="1"/>
        <pt x="229" y="579" on="0"/>
        <pt x="220" y="561" on="1"/>
        <pt x="214" y="547" on="0"/>
        <pt x="214" y="523" on="1"/>
        <pt x="214" y="440" on="1"/>
        <pt x="498" y="430" on="1"/>
        <pt x="498" y="294" on="1"/>
        <pt x="214" y="285" on="1"/>
        <pt x="214" y="202" on="1"/>
        <pt x="214" y="164" on="0"/>
        <pt x="235" y="156" on="1"/>
        <pt x="250" y="150" on="0"/>
        <pt x="276" y="150" on="1"/>
        <pt x="545" y="150" on="1"/>
        <pt x="545" y="14" on="1"/>
        <pt x="473" y="4" on="0"/>
        <pt x="256" y="-2" on="1"/>
        <pt x="231" y="-3" on="1"/>
        <pt x="223" y="-3" on="0"/>
        <pt x="201" y="-3" on="0"/>
        <pt x="166" y="0" on="0"/>
        <pt x="113" y="18" on="0"/>
        <pt x="76" y="50" on="0"/>
        <pt x="50" y="111" on="0"/>
      </contour>
    </TTGlyph>
    <TTGlyph name="Ecircumflex" xMin="50" yMin="-4" xMax="546" yMax="935">
      <contour>
        <pt x="161" y="797" on="1"/>
        <pt x="265" y="934" on="1"/>
        <pt x="381" y="934" on="1"/>
        <pt x="476" y="797" on="1"/>
        <pt x="374" y="797" on="1"/>
        <pt x="320" y="853" on="1"/>
        <pt x="263" y="797" on="1"/>
      </contour>
      <contour>
        <pt x="50" y="152" on="1"/>
        <pt x="50" y="572" on="1"/>
        <pt x="50" y="680" on="0"/>
        <pt x="131" y="716" on="1"/>
        <pt x="169" y="732" on="0"/>
        <pt x="221" y="732" on="1"/>
        <pt x="458" y="728" on="0"/>
        <pt x="545" y="716" on="1"/>
        <pt x="545" y="579" on="1"/>
        <pt x="266" y="579" on="1"/>
        <pt x="229" y="579" on="0"/>
        <pt x="220" y="561" on="1"/>
        <pt x="214" y="547" on="0"/>
        <pt x="214" y="523" on="1"/>
        <pt x="214" y="440" on="1"/>
        <pt x="498" y="430" on="1"/>
        <pt x="498" y="294" on="1"/>
        <pt x="214" y="285" on="1"/>
        <pt x="214" y="202" on="1"/>
        <pt x="214" y="164" on="0"/>
        <pt x="235" y="156" on="1"/>
        <pt x="250" y="150" on="0"/>
        <pt x="276" y="150" on="1"/>
        <pt x="545" y="150" on="1"/>
        <pt x="545" y="14" on="1"/>
        <pt x="473" y="4" on="0"/>
        <pt x="256" y="-2" on="1"/>
        <pt x="231" y="-3" on="1"/>
        <pt x="223" y="-3" on="0"/>
        <pt x="201" y="-3" on="0"/>
        <pt x="166" y="0" on="0"/>
        <pt x="113" y="18" on="0"/>
        <pt x="76" y="50" on="0"/>
        <pt x="50" y="111" on="0"/>
      </contour>
    </TTGlyph>
    <TTGlyph name="Edieresis" xMin="50" yMin="-4" xMax="546" yMax="920">
      <contour>
        <pt x="158" y="796" on="0"/>
        <pt x="122" y="832" on="0"/>
        <pt x="122" y="875" on="0"/>
        <pt x="130" y="889" on="1"/>
        <pt x="148" y="919" on="0"/>
        <pt x="210" y="919" on="0"/>
        <pt x="245" y="884" on="0"/>
        <pt x="245" y="832" on="0"/>
        <pt x="209" y="796" on="0"/>
      </contour>
      <contour>
        <pt x="377" y="832" on="0"/>
        <pt x="377" y="883" on="0"/>
        <pt x="413" y="919" on="0"/>
        <pt x="464" y="919" on="0"/>
        <pt x="500" y="884" on="0"/>
        <pt x="500" y="832" on="0"/>
        <pt x="464" y="796" on="0"/>
        <pt x="414" y="796" on="0"/>
      </contour>
      <contour>
        <pt x="50" y="152" on="1"/>
        <pt x="50" y="572" on="1"/>
        <pt x="50" y="680" on="0"/>
        <pt x="131" y="716" on="1"/>
        <pt x="169" y="732" on="0"/>
        <pt x="221" y="732" on="1"/>
        <pt x="458" y="728" on="0"/>
        <pt x="545" y="716" on="1"/>
        <pt x="545" y="579" on="1"/>
        <pt x="266" y="579" on="1"/>
        <pt x="229" y="579" on="0"/>
        <pt x="220" y="561" on="1"/>
        <pt x="214" y="547" on="0"/>
        <pt x="214" y="523" on="1"/>
        <pt x="214" y="440" on="1"/>
        <pt x="498" y="430" on="1"/>
        <pt x="498" y="294" on="1"/>
        <pt x="214" y="285" on="1"/>
        <pt x="214" y="202" on="1"/>
        <pt x="214" y="164" on="0"/>
        <pt x="235" y="156" on="1"/>
        <pt x="250" y="150" on="0"/>
        <pt x="276" y="150" on="1"/>
        <pt x="545" y="150" on="1"/>
        <pt x="545" y="14" on="1"/>
        <pt x="473" y="4" on="0"/>
        <pt x="256" y="-2" on="1"/>
        <pt x="231" y="-3" on="1"/>
        <pt x="223" y="-3" on="0"/>
        <pt x="201" y="-3" on="0"/>
        <pt x="166" y="0" on="0"/>
        <pt x="113" y="18" on="0"/>
        <pt x="76" y="50" on="0"/>
        <pt x="50" y="111" on="0"/>
      </contour>
    </TTGlyph>
    <TTGlyph name="Edotaccent" xMin="50" yMin="-4" xMax="546" yMax="929">
      <contour>
        <pt x="263" y="819" on="1"/>
        <pt x="263" y="903" on="1"/>
        <pt x="263" y="928" on="0"/>
        <pt x="287" y="928" on="1"/>
        <pt x="367" y="928" on="1"/>
        <pt x="378" y="928" on="0"/>
        <pt x="390" y="914" on="0"/>
        <pt x="390" y="903" on="1"/>
        <pt x="390" y="819" on="1"/>
        <pt x="390" y="796" on="0"/>
        <pt x="367" y="796" on="1"/>
        <pt x="287" y="796" on="1"/>
        <pt x="276" y="796" on="0"/>
        <pt x="263" y="809" on="0"/>
      </contour>
      <contour>
        <pt x="50" y="152" on="1"/>
        <pt x="50" y="572" on="1"/>
        <pt x="50" y="680" on="0"/>
        <pt x="131" y="716" on="1"/>
        <pt x="169" y="732" on="0"/>
        <pt x="221" y="732" on="1"/>
        <pt x="458" y="728" on="0"/>
        <pt x="545" y="716" on="1"/>
        <pt x="545" y="579" on="1"/>
        <pt x="266" y="579" on="1"/>
        <pt x="229" y="579" on="0"/>
        <pt x="220" y="561" on="1"/>
        <pt x="214" y="547" on="0"/>
        <pt x="214" y="523" on="1"/>
        <pt x="214" y="440" on="1"/>
        <pt x="498" y="430" on="1"/>
        <pt x="498" y="294" on="1"/>
        <pt x="214" y="285" on="1"/>
        <pt x="214" y="202" on="1"/>
        <pt x="214" y="164" on="0"/>
        <pt x="235" y="156" on="1"/>
        <pt x="250" y="150" on="0"/>
        <pt x="276" y="150" on="1"/>
        <pt x="545" y="150" on="1"/>
        <pt x="545" y="14" on="1"/>
        <pt x="473" y="4" on="0"/>
        <pt x="256" y="-2" on="1"/>
        <pt x="231" y="-3" on="1"/>
        <pt x="223" y="-3" on="0"/>
        <pt x="201" y="-3" on="0"/>
        <pt x="166" y="0" on="0"/>
        <pt x="113" y="18" on="0"/>
        <pt x="76" y="50" on="0"/>
        <pt x="50" y="111" on="0"/>
      </contour>
    </TTGlyph>
    <TTGlyph name="Egrave" xMin="50" yMin="-4" xMax="546" yMax="937">
      <contour>
        <pt x="160" y="937" on="1"/>
        <pt x="293" y="937" on="1"/>
        <pt x="377" y="796" on="1"/>
        <pt x="278" y="796" on="1"/>
      </contour>
      <contour>
        <pt x="50" y="152" on="1"/>
        <pt x="50" y="572" on="1"/>
        <pt x="50" y="680" on="0"/>
        <pt x="131" y="716" on="1"/>
        <pt x="169" y="732" on="0"/>
        <pt x="221" y="732" on="1"/>
        <pt x="458" y="728" on="0"/>
        <pt x="545" y="716" on="1"/>
        <pt x="545" y="579" on="1"/>
        <pt x="266" y="579" on="1"/>
        <pt x="229" y="579" on="0"/>
        <pt x="220" y="561" on="1"/>
        <pt x="214" y="547" on="0"/>
        <pt x="214" y="523" on="1"/>
        <pt x="214" y="440" on="1"/>
        <pt x="498" y="430" on="1"/>
        <pt x="498" y="294" on="1"/>
        <pt x="214" y="285" on="1"/>
        <pt x="214" y="202" on="1"/>
        <pt x="214" y="164" on="0"/>
        <pt x="235" y="156" on="1"/>
        <pt x="250" y="150" on="0"/>
        <pt x="276" y="150" on="1"/>
        <pt x="545" y="150" on="1"/>
        <pt x="545" y="14" on="1"/>
        <pt x="473" y="4" on="0"/>
        <pt x="256" y="-2" on="1"/>
        <pt x="231" y="-3" on="1"/>
        <pt x="223" y="-3" on="0"/>
        <pt x="201" y="-3" on="0"/>
        <pt x="166" y="0" on="0"/>
        <pt x="113" y="18" on="0"/>
        <pt x="76" y="50" on="0"/>
        <pt x="50" y="111" on="0"/>
      </contour>
    </TTGlyph>
    <TTGlyph name="Emacron" xMin="50" yMin="-4" xMax="546" yMax="882">
      <contour>
        <pt x="163" y="796" on="1"/>
        <pt x="163" y="882" on="1"/>
        <pt x="455" y="882" on="1"/>
        <pt x="455" y="796" on="1"/>
      </contour>
      <contour>
        <pt x="50" y="152" on="1"/>
        <pt x="50" y="572" on="1"/>
        <pt x="50" y="680" on="0"/>
        <pt x="131" y="716" on="1"/>
        <pt x="169" y="732" on="0"/>
        <pt x="221" y="732" on="1"/>
        <pt x="458" y="728" on="0"/>
        <pt x="545" y="716" on="1"/>
        <pt x="545" y="579" on="1"/>
        <pt x="266" y="579" on="1"/>
        <pt x="229" y="579" on="0"/>
        <pt x="220" y="561" on="1"/>
        <pt x="214" y="547" on="0"/>
        <pt x="214" y="523" on="1"/>
        <pt x="214" y="440" on="1"/>
        <pt x="498" y="430" on="1"/>
        <pt x="498" y="294" on="1"/>
        <pt x="214" y="285" on="1"/>
        <pt x="214" y="202" on="1"/>
        <pt x="214" y="164" on="0"/>
        <pt x="235" y="156" on="1"/>
        <pt x="250" y="150" on="0"/>
        <pt x="276" y="150" on="1"/>
        <pt x="545" y="150" on="1"/>
        <pt x="545" y="14" on="1"/>
        <pt x="473" y="4" on="0"/>
        <pt x="256" y="-2" on="1"/>
        <pt x="231" y="-3" on="1"/>
        <pt x="223" y="-3" on="0"/>
        <pt x="201" y="-3" on="0"/>
        <pt x="166" y="0" on="0"/>
        <pt x="113" y="18" on="0"/>
        <pt x="76" y="50" on="0"/>
        <pt x="50" y="111" on="0"/>
      </contour>
    </TTGlyph>
    <TTGlyph name="Eng" xMin="53" yMin="-259" xMax="638" yMax="732">
      <contour>
        <pt x="605" y="-198" on="0"/>
        <pt x="551" y="-236" on="0"/>
        <pt x="483" y="-259" on="0"/>
        <pt x="421" y="-259" on="0"/>
        <pt x="371" y="-257" on="1"/>
        <pt x="371" y="-140" on="1"/>
        <pt x="374" y="-140" on="0"/>
        <pt x="400" y="-138" on="0"/>
        <pt x="419" y="-135" on="0"/>
        <pt x="449" y="-126" on="0"/>
        <pt x="456" y="-118" on="1"/>
        <pt x="474" y="-99" on="0"/>
        <pt x="474" y="-62" on="1"/>
        <pt x="474" y="0" on="1"/>
        <pt x="219" y="422" on="1"/>
        <pt x="218" y="0" on="1"/>
        <pt x="54" y="0" on="1"/>
        <pt x="54" y="732" on="1"/>
        <pt x="220" y="732" on="1"/>
        <pt x="474" y="306" on="1"/>
        <pt x="474" y="732" on="1"/>
        <pt x="638" y="732" on="1"/>
        <pt x="638" y="-69" on="1"/>
        <pt x="638" y="-122" on="0"/>
      </contour>
    </TTGlyph>
    <TTGlyph name="Eogonek" xMin="50" yMin="-178" xMax="556" yMax="732">
      <contour>
        <pt x="545" y="15" on="1"/>
        <pt x="501" y="-17" on="0"/>
        <pt x="501" y="-76" on="0"/>
        <pt x="529" y="-88" on="1"/>
        <pt x="542" y="-93" on="0"/>
        <pt x="556" y="-91" on="1"/>
        <pt x="556" y="-174" on="1"/>
        <pt x="541" y="-178" on="0"/>
        <pt x="519" y="-178" on="0"/>
        <pt x="489" y="-174" on="0"/>
        <pt x="472" y="-163" on="1"/>
        <pt x="418" y="-127" on="0"/>
        <pt x="418" y="-21" on="0"/>
        <pt x="484" y="15" on="1"/>
      </contour>
      <contour>
        <pt x="50" y="152" on="1"/>
        <pt x="50" y="572" on="1"/>
        <pt x="50" y="680" on="0"/>
        <pt x="131" y="716" on="1"/>
        <pt x="169" y="732" on="0"/>
        <pt x="221" y="732" on="1"/>
        <pt x="458" y="728" on="0"/>
        <pt x="545" y="716" on="1"/>
        <pt x="545" y="579" on="1"/>
        <pt x="266" y="579" on="1"/>
        <pt x="229" y="579" on="0"/>
        <pt x="220" y="561" on="1"/>
        <pt x="214" y="547" on="0"/>
        <pt x="214" y="523" on="1"/>
        <pt x="214" y="440" on="1"/>
        <pt x="498" y="430" on="1"/>
        <pt x="498" y="294" on="1"/>
        <pt x="214" y="285" on="1"/>
        <pt x="214" y="202" on="1"/>
        <pt x="214" y="164" on="0"/>
        <pt x="235" y="156" on="1"/>
        <pt x="250" y="150" on="0"/>
        <pt x="276" y="150" on="1"/>
        <pt x="545" y="150" on="1"/>
        <pt x="545" y="14" on="1"/>
        <pt x="473" y="4" on="0"/>
        <pt x="256" y="-2" on="1"/>
        <pt x="231" y="-3" on="1"/>
        <pt x="223" y="-3" on="0"/>
        <pt x="201" y="-3" on="0"/>
        <pt x="166" y="0" on="0"/>
        <pt x="113" y="18" on="0"/>
        <pt x="76" y="50" on="0"/>
        <pt x="50" y="111" on="0"/>
      </contour>
    </TTGlyph>
    <TTGlyph name="Eth" xMin="-12" yMin="0" xMax="631" yMax="732">
      <contour>
        <pt x="-11" y="338" on="1"/>
        <pt x="-11" y="408" on="1"/>
        <pt x="54" y="408" on="1"/>
        <pt x="54" y="732" on="1"/>
        <pt x="54" y="732" on="0"/>
        <pt x="379" y="732" on="1"/>
        <pt x="439" y="732" on="0"/>
        <pt x="529" y="691" on="0"/>
        <pt x="584" y="625" on="0"/>
        <pt x="601" y="576" on="1"/>
        <pt x="631" y="491" on="0"/>
        <pt x="631" y="363" on="1"/>
        <pt x="631" y="0" on="0"/>
        <pt x="379" y="0" on="1"/>
        <pt x="54" y="0" on="1"/>
        <pt x="54" y="338" on="1"/>
      </contour>
      <contour>
        <pt x="218" y="142" on="1"/>
        <pt x="364" y="142" on="1"/>
        <pt x="419" y="142" on="0"/>
        <pt x="466" y="252" on="0"/>
        <pt x="466" y="433" on="0"/>
        <pt x="452" y="524" on="0"/>
        <pt x="424" y="571" on="0"/>
        <pt x="389" y="589" on="0"/>
        <pt x="364" y="589" on="1"/>
        <pt x="218" y="589" on="1"/>
        <pt x="218" y="408" on="1"/>
        <pt x="319" y="408" on="1"/>
        <pt x="319" y="338" on="1"/>
        <pt x="218" y="338" on="1"/>
      </contour>
    </TTGlyph>
    <TTGlyph name="Euro" xMin="13" yMin="-6" xMax="607" yMax="740">
      <contour>
        <pt x="336" y="740" on="1"/>
        <pt x="386" y="740" on="0"/>
        <pt x="548" y="721" on="0"/>
        <pt x="603" y="702" on="1"/>
        <pt x="603" y="584" on="1"/>
        <pt x="462" y="598" on="0"/>
        <pt x="353" y="598" on="0"/>
        <pt x="312" y="593" on="0"/>
        <pt x="285" y="585" on="0"/>
        <pt x="266" y="566" on="0"/>
        <pt x="256" y="551" on="0"/>
        <pt x="254" y="536" on="1"/>
        <pt x="250" y="515" on="0"/>
        <pt x="250" y="478" on="1"/>
        <pt x="484" y="470" on="1"/>
        <pt x="484" y="394" on="1"/>
        <pt x="250" y="388" on="1"/>
        <pt x="250" y="332" on="1"/>
        <pt x="484" y="324" on="1"/>
        <pt x="484" y="248" on="1"/>
        <pt x="346" y="245" on="0"/>
        <pt x="283" y="242" on="1"/>
        <pt x="250" y="240" on="1"/>
        <pt x="250" y="167" on="0"/>
        <pt x="291" y="146" on="1"/>
        <pt x="324" y="128" on="0"/>
        <pt x="372" y="128" on="1"/>
        <pt x="459" y="128" on="0"/>
        <pt x="570" y="146" on="1"/>
        <pt x="607" y="152" on="1"/>
        <pt x="607" y="36" on="1"/>
        <pt x="557" y="12" on="0"/>
        <pt x="428" y="-6" on="0"/>
        <pt x="316" y="-6" on="0"/>
        <pt x="278" y="-3" on="0"/>
        <pt x="227" y="10" on="0"/>
        <pt x="183" y="30" on="0"/>
        <pt x="138" y="68" on="0"/>
        <pt x="122" y="93" on="1"/>
        <pt x="86" y="150" on="0"/>
        <pt x="86" y="240" on="1"/>
        <pt x="13" y="248" on="1"/>
        <pt x="13" y="324" on="1"/>
        <pt x="86" y="332" on="1"/>
        <pt x="86" y="388" on="1"/>
        <pt x="13" y="396" on="1"/>
        <pt x="13" y="468" on="1"/>
        <pt x="86" y="478" on="1"/>
        <pt x="86" y="561" on="0"/>
        <pt x="107" y="611" on="1"/>
        <pt x="132" y="670" on="0"/>
        <pt x="179" y="701" on="1"/>
        <pt x="239" y="740" on="0"/>
      </contour>
    </TTGlyph>
    <TTGlyph name="Euro.smcp" xMin="10" yMin="-5" xMax="499" yMax="577">
      <contour>
        <pt x="399" y="195" on="1"/>
        <pt x="227" y="191" on="0"/>
        <pt x="229" y="189" on="1"/>
        <pt x="229" y="150" on="0"/>
        <pt x="255" y="140" on="1"/>
        <pt x="276" y="132" on="0"/>
        <pt x="330" y="132" on="0"/>
        <pt x="384" y="135" on="0"/>
        <pt x="408" y="137" on="1"/>
        <pt x="457" y="141" on="0"/>
        <pt x="486" y="144" on="1"/>
        <pt x="498" y="145" on="1"/>
        <pt x="498" y="23" on="1"/>
        <pt x="434" y="-5" on="0"/>
        <pt x="272" y="-5" on="1"/>
        <pt x="162" y="-5" on="0"/>
        <pt x="112" y="45" on="1"/>
        <pt x="92" y="65" on="0"/>
        <pt x="64" y="139" on="0"/>
        <pt x="64" y="189" on="1"/>
        <pt x="11" y="195" on="1"/>
        <pt x="11" y="265" on="1"/>
        <pt x="64" y="270" on="1"/>
        <pt x="64" y="299" on="1"/>
        <pt x="11" y="305" on="1"/>
        <pt x="11" y="371" on="1"/>
        <pt x="64" y="378" on="1"/>
        <pt x="64" y="500" on="0"/>
        <pt x="143" y="548" on="1"/>
        <pt x="193" y="577" on="0"/>
        <pt x="272" y="577" on="1"/>
        <pt x="306" y="577" on="0"/>
        <pt x="440" y="564" on="0"/>
        <pt x="495" y="554" on="1"/>
        <pt x="495" y="432" on="1"/>
        <pt x="373" y="443" on="0"/>
        <pt x="265" y="443" on="0"/>
        <pt x="229" y="414" on="0"/>
        <pt x="229" y="378" on="1"/>
        <pt x="399" y="372" on="1"/>
        <pt x="399" y="304" on="1"/>
        <pt x="229" y="299" on="1"/>
        <pt x="229" y="270" on="1"/>
        <pt x="399" y="265" on="1"/>
      </contour>
    </TTGlyph>
    <TTGlyph name="F" xMin="50" yMin="0" xMax="546" yMax="733">
      <contour>
        <pt x="50" y="0" on="1"/>
        <pt x="50" y="569" on="1"/>
        <pt x="50" y="656" on="0"/>
        <pt x="150" y="732" on="0"/>
        <pt x="217" y="732" on="1"/>
        <pt x="219" y="732" on="0"/>
        <pt x="221" y="732" on="1"/>
        <pt x="458" y="728" on="0"/>
        <pt x="545" y="716" on="1"/>
        <pt x="545" y="579" on="1"/>
        <pt x="266" y="579" on="1"/>
        <pt x="229" y="579" on="0"/>
        <pt x="220" y="561" on="1"/>
        <pt x="214" y="547" on="0"/>
        <pt x="214" y="523" on="1"/>
        <pt x="214" y="440" on="1"/>
        <pt x="498" y="430" on="1"/>
        <pt x="498" y="294" on="1"/>
        <pt x="214" y="285" on="1"/>
        <pt x="214" y="0" on="1"/>
      </contour>
    </TTGlyph>
    <TTGlyph name="G" xMin="37" yMin="-6" xMax="579" yMax="740">
      <contour>
        <pt x="46" y="198" on="0"/>
        <pt x="37" y="301" on="0"/>
        <pt x="37" y="440" on="0"/>
        <pt x="49" y="545" on="0"/>
        <pt x="80" y="642" on="0"/>
        <pt x="107" y="673" on="1"/>
        <pt x="165" y="740" on="0"/>
        <pt x="379" y="740" on="0"/>
        <pt x="482" y="728" on="0"/>
        <pt x="569" y="706" on="1"/>
        <pt x="569" y="579" on="1"/>
        <pt x="568" y="579" on="0"/>
        <pt x="552" y="581" on="0"/>
        <pt x="525" y="585" on="0"/>
        <pt x="490" y="589" on="0"/>
        <pt x="446" y="593" on="0"/>
        <pt x="423" y="595" on="1"/>
        <pt x="372" y="598" on="0"/>
        <pt x="323" y="598" on="1"/>
        <pt x="248" y="598" on="0"/>
        <pt x="201" y="502" on="0"/>
        <pt x="201" y="368" on="1"/>
        <pt x="201" y="229" on="0"/>
        <pt x="220" y="190" on="1"/>
        <pt x="236" y="158" on="0"/>
        <pt x="271" y="151" on="1"/>
        <pt x="288" y="147" on="0"/>
        <pt x="342" y="147" on="0"/>
        <pt x="393" y="170" on="0"/>
        <pt x="404" y="181" on="1"/>
        <pt x="414" y="193" on="1"/>
        <pt x="414" y="299" on="1"/>
        <pt x="336" y="299" on="1"/>
        <pt x="336" y="402" on="1"/>
        <pt x="388" y="426" on="0"/>
        <pt x="510" y="426" on="1"/>
        <pt x="542" y="426" on="0"/>
        <pt x="578" y="424" on="1"/>
        <pt x="578" y="0" on="1"/>
        <pt x="462" y="0" on="1"/>
        <pt x="416" y="49" on="1"/>
        <pt x="400" y="31" on="0"/>
        <pt x="384" y="21" on="1"/>
        <pt x="344" y="-5" on="0"/>
        <pt x="259" y="-5" on="1"/>
        <pt x="155" y="-5" on="0"/>
        <pt x="102" y="62" on="1"/>
        <pt x="76" y="94" on="0"/>
      </contour>
    </TTGlyph>
    <TTGlyph name="Gbreve" xMin="37" yMin="-6" xMax="579" yMax="914">
      <contour>
        <pt x="208" y="914" on="1"/>
        <pt x="270" y="914" on="1"/>
        <pt x="270" y="890" on="0"/>
        <pt x="298" y="862" on="0"/>
        <pt x="322" y="862" on="1"/>
        <pt x="376" y="862" on="0"/>
        <pt x="376" y="914" on="1"/>
        <pt x="438" y="914" on="1"/>
        <pt x="438" y="880" on="0"/>
        <pt x="423" y="854" on="1"/>
        <pt x="392" y="800" on="0"/>
        <pt x="322" y="800" on="1"/>
        <pt x="272" y="800" on="0"/>
        <pt x="208" y="863" on="0"/>
      </contour>
      <contour>
        <pt x="46" y="198" on="0"/>
        <pt x="37" y="301" on="0"/>
        <pt x="37" y="440" on="0"/>
        <pt x="49" y="545" on="0"/>
        <pt x="80" y="642" on="0"/>
        <pt x="107" y="673" on="1"/>
        <pt x="165" y="740" on="0"/>
        <pt x="379" y="740" on="0"/>
        <pt x="482" y="728" on="0"/>
        <pt x="569" y="706" on="1"/>
        <pt x="569" y="579" on="1"/>
        <pt x="568" y="579" on="0"/>
        <pt x="552" y="581" on="0"/>
        <pt x="525" y="585" on="0"/>
        <pt x="490" y="589" on="0"/>
        <pt x="446" y="593" on="0"/>
        <pt x="423" y="595" on="1"/>
        <pt x="372" y="598" on="0"/>
        <pt x="323" y="598" on="1"/>
        <pt x="248" y="598" on="0"/>
        <pt x="201" y="502" on="0"/>
        <pt x="201" y="368" on="1"/>
        <pt x="201" y="229" on="0"/>
        <pt x="220" y="190" on="1"/>
        <pt x="236" y="158" on="0"/>
        <pt x="271" y="151" on="1"/>
        <pt x="288" y="147" on="0"/>
        <pt x="342" y="147" on="0"/>
        <pt x="393" y="170" on="0"/>
        <pt x="404" y="181" on="1"/>
        <pt x="414" y="193" on="1"/>
        <pt x="414" y="299" on="1"/>
        <pt x="336" y="299" on="1"/>
        <pt x="336" y="402" on="1"/>
        <pt x="388" y="426" on="0"/>
        <pt x="510" y="426" on="1"/>
        <pt x="542" y="426" on="0"/>
        <pt x="578" y="424" on="1"/>
        <pt x="578" y="0" on="1"/>
        <pt x="462" y="0" on="1"/>
        <pt x="416" y="49" on="1"/>
        <pt x="400" y="31" on="0"/>
        <pt x="384" y="21" on="1"/>
        <pt x="344" y="-5" on="0"/>
        <pt x="259" y="-5" on="1"/>
        <pt x="155" y="-5" on="0"/>
        <pt x="102" y="62" on="1"/>
        <pt x="76" y="94" on="0"/>
      </contour>
    </TTGlyph>
    <TTGlyph name="Gcircumflex" xMin="37" yMin="-6" xMax="579" yMax="938">
      <contour>
        <pt x="176" y="800" on="1"/>
        <pt x="280" y="938" on="1"/>
        <pt x="396" y="938" on="1"/>
        <pt x="490" y="800" on="1"/>
        <pt x="389" y="800" on="1"/>
        <pt x="335" y="856" on="1"/>
        <pt x="278" y="800" on="1"/>
      </contour>
      <contour>
        <pt x="46" y="198" on="0"/>
        <pt x="37" y="301" on="0"/>
        <pt x="37" y="440" on="0"/>
        <pt x="49" y="545" on="0"/>
        <pt x="80" y="642" on="0"/>
        <pt x="107" y="673" on="1"/>
        <pt x="165" y="740" on="0"/>
        <pt x="379" y="740" on="0"/>
        <pt x="482" y="728" on="0"/>
        <pt x="569" y="706" on="1"/>
        <pt x="569" y="579" on="1"/>
        <pt x="568" y="579" on="0"/>
        <pt x="552" y="581" on="0"/>
        <pt x="525" y="585" on="0"/>
        <pt x="490" y="589" on="0"/>
        <pt x="446" y="593" on="0"/>
        <pt x="423" y="595" on="1"/>
        <pt x="372" y="598" on="0"/>
        <pt x="323" y="598" on="1"/>
        <pt x="248" y="598" on="0"/>
        <pt x="201" y="502" on="0"/>
        <pt x="201" y="368" on="1"/>
        <pt x="201" y="229" on="0"/>
        <pt x="220" y="190" on="1"/>
        <pt x="236" y="158" on="0"/>
        <pt x="271" y="151" on="1"/>
        <pt x="288" y="147" on="0"/>
        <pt x="342" y="147" on="0"/>
        <pt x="393" y="170" on="0"/>
        <pt x="404" y="181" on="1"/>
        <pt x="414" y="193" on="1"/>
        <pt x="414" y="299" on="1"/>
        <pt x="336" y="299" on="1"/>
        <pt x="336" y="402" on="1"/>
        <pt x="388" y="426" on="0"/>
        <pt x="510" y="426" on="1"/>
        <pt x="542" y="426" on="0"/>
        <pt x="578" y="424" on="1"/>
        <pt x="578" y="0" on="1"/>
        <pt x="462" y="0" on="1"/>
        <pt x="416" y="49" on="1"/>
        <pt x="400" y="31" on="0"/>
        <pt x="384" y="21" on="1"/>
        <pt x="344" y="-5" on="0"/>
        <pt x="259" y="-5" on="1"/>
        <pt x="155" y="-5" on="0"/>
        <pt x="102" y="62" on="1"/>
        <pt x="76" y="94" on="0"/>
      </contour>
    </TTGlyph>
    <TTGlyph name="Gcommaaccent" xMin="37" yMin="-299" xMax="579" yMax="740">
      <contour>
        <pt x="245" y="-191" on="1"/>
        <pt x="245" y="-102" on="1"/>
        <pt x="245" y="-78" on="0"/>
        <pt x="267" y="-78" on="1"/>
        <pt x="354" y="-78" on="1"/>
        <pt x="375" y="-78" on="0"/>
        <pt x="375" y="-102" on="1"/>
        <pt x="375" y="-223" on="1"/>
        <pt x="375" y="-253" on="0"/>
        <pt x="349" y="-289" on="0"/>
        <pt x="331" y="-293" on="1"/>
        <pt x="310" y="-298" on="0"/>
        <pt x="274" y="-298" on="0"/>
        <pt x="262" y="-296" on="1"/>
        <pt x="249" y="-293" on="1"/>
        <pt x="249" y="-244" on="1"/>
        <pt x="273" y="-244" on="0"/>
        <pt x="276" y="-233" on="1"/>
        <pt x="277" y="-229" on="0"/>
        <pt x="277" y="-222" on="1"/>
        <pt x="277" y="-214" on="1"/>
        <pt x="267" y="-214" on="1"/>
        <pt x="245" y="-214" on="0"/>
      </contour>
      <contour>
        <pt x="46" y="198" on="0"/>
        <pt x="37" y="301" on="0"/>
        <pt x="37" y="440" on="0"/>
        <pt x="49" y="545" on="0"/>
        <pt x="80" y="642" on="0"/>
        <pt x="107" y="673" on="1"/>
        <pt x="165" y="740" on="0"/>
        <pt x="379" y="740" on="0"/>
        <pt x="482" y="728" on="0"/>
        <pt x="569" y="706" on="1"/>
        <pt x="569" y="579" on="1"/>
        <pt x="568" y="579" on="0"/>
        <pt x="552" y="581" on="0"/>
        <pt x="525" y="585" on="0"/>
        <pt x="490" y="589" on="0"/>
        <pt x="446" y="593" on="0"/>
        <pt x="423" y="595" on="1"/>
        <pt x="372" y="598" on="0"/>
        <pt x="323" y="598" on="1"/>
        <pt x="248" y="598" on="0"/>
        <pt x="201" y="502" on="0"/>
        <pt x="201" y="368" on="1"/>
        <pt x="201" y="229" on="0"/>
        <pt x="220" y="190" on="1"/>
        <pt x="236" y="158" on="0"/>
        <pt x="271" y="151" on="1"/>
        <pt x="288" y="147" on="0"/>
        <pt x="342" y="147" on="0"/>
        <pt x="393" y="170" on="0"/>
        <pt x="404" y="181" on="1"/>
        <pt x="414" y="193" on="1"/>
        <pt x="414" y="299" on="1"/>
        <pt x="336" y="299" on="1"/>
        <pt x="336" y="402" on="1"/>
        <pt x="388" y="426" on="0"/>
        <pt x="510" y="426" on="1"/>
        <pt x="542" y="426" on="0"/>
        <pt x="578" y="424" on="1"/>
        <pt x="578" y="0" on="1"/>
        <pt x="462" y="0" on="1"/>
        <pt x="416" y="49" on="1"/>
        <pt x="400" y="31" on="0"/>
        <pt x="384" y="21" on="1"/>
        <pt x="344" y="-5" on="0"/>
        <pt x="259" y="-5" on="1"/>
        <pt x="155" y="-5" on="0"/>
        <pt x="102" y="62" on="1"/>
        <pt x="76" y="94" on="0"/>
      </contour>
    </TTGlyph>
    <TTGlyph name="Gdotaccent" xMin="37" yMin="-6" xMax="579" yMax="932">
      <contour>
        <pt x="262" y="823" on="1"/>
        <pt x="262" y="907" on="1"/>
        <pt x="262" y="932" on="0"/>
        <pt x="286" y="932" on="1"/>
        <pt x="366" y="932" on="1"/>
        <pt x="377" y="932" on="0"/>
        <pt x="389" y="918" on="0"/>
        <pt x="389" y="907" on="1"/>
        <pt x="389" y="823" on="1"/>
        <pt x="389" y="800" on="0"/>
        <pt x="366" y="800" on="1"/>
        <pt x="286" y="800" on="1"/>
        <pt x="275" y="800" on="0"/>
        <pt x="262" y="813" on="0"/>
      </contour>
      <contour>
        <pt x="46" y="198" on="0"/>
        <pt x="37" y="301" on="0"/>
        <pt x="37" y="440" on="0"/>
        <pt x="49" y="545" on="0"/>
        <pt x="80" y="642" on="0"/>
        <pt x="107" y="673" on="1"/>
        <pt x="165" y="740" on="0"/>
        <pt x="379" y="740" on="0"/>
        <pt x="482" y="728" on="0"/>
        <pt x="569" y="706" on="1"/>
        <pt x="569" y="579" on="1"/>
        <pt x="568" y="579" on="0"/>
        <pt x="552" y="581" on="0"/>
        <pt x="525" y="585" on="0"/>
        <pt x="490" y="589" on="0"/>
        <pt x="446" y="593" on="0"/>
        <pt x="423" y="595" on="1"/>
        <pt x="372" y="598" on="0"/>
        <pt x="323" y="598" on="1"/>
        <pt x="248" y="598" on="0"/>
        <pt x="201" y="502" on="0"/>
        <pt x="201" y="368" on="1"/>
        <pt x="201" y="229" on="0"/>
        <pt x="220" y="190" on="1"/>
        <pt x="236" y="158" on="0"/>
        <pt x="271" y="151" on="1"/>
        <pt x="288" y="147" on="0"/>
        <pt x="342" y="147" on="0"/>
        <pt x="393" y="170" on="0"/>
        <pt x="404" y="181" on="1"/>
        <pt x="414" y="193" on="1"/>
        <pt x="414" y="299" on="1"/>
        <pt x="336" y="299" on="1"/>
        <pt x="336" y="402" on="1"/>
        <pt x="388" y="426" on="0"/>
        <pt x="510" y="426" on="1"/>
        <pt x="542" y="426" on="0"/>
        <pt x="578" y="424" on="1"/>
        <pt x="578" y="0" on="1"/>
        <pt x="462" y="0" on="1"/>
        <pt x="416" y="49" on="1"/>
        <pt x="400" y="31" on="0"/>
        <pt x="384" y="21" on="1"/>
        <pt x="344" y="-5" on="0"/>
        <pt x="259" y="-5" on="1"/>
        <pt x="155" y="-5" on="0"/>
        <pt x="102" y="62" on="1"/>
        <pt x="76" y="94" on="0"/>
      </contour>
    </TTGlyph>
    <TTGlyph name="H" xMin="53" yMin="0" xMax="597" yMax="732">
      <contour>
        <pt x="54" y="0" on="1"/>
        <pt x="54" y="732" on="1"/>
        <pt x="218" y="732" on="1"/>
        <pt x="218" y="428" on="1"/>
        <pt x="433" y="428" on="1"/>
        <pt x="433" y="732" on="1"/>
        <pt x="597" y="732" on="1"/>
        <pt x="597" y="0" on="1"/>
        <pt x="433" y="0" on="1"/>
        <pt x="433" y="280" on="1"/>
        <pt x="218" y="280" on="1"/>
        <pt x="218" y="0" on="1"/>
      </contour>
    </TTGlyph>
    <TTGlyph name="Hbar" xMin="13" yMin="0" xMax="684" yMax="732">
      <contour>
        <pt x="13" y="516" on="1"/>
        <pt x="13" y="585" on="1"/>
        <pt x="77" y="585" on="1"/>
        <pt x="77" y="732" on="1"/>
        <pt x="241" y="732" on="1"/>
        <pt x="241" y="585" on="1"/>
        <pt x="456" y="585" on="1"/>
        <pt x="456" y="732" on="1"/>
        <pt x="620" y="732" on="1"/>
        <pt x="620" y="585" on="1"/>
        <pt x="684" y="585" on="1"/>
        <pt x="684" y="516" on="1"/>
        <pt x="620" y="516" on="1"/>
        <pt x="620" y="0" on="1"/>
        <pt x="456" y="0" on="1"/>
        <pt x="456" y="280" on="1"/>
        <pt x="241" y="280" on="1"/>
        <pt x="241" y="0" on="1"/>
        <pt x="77" y="0" on="1"/>
        <pt x="77" y="516" on="1"/>
      </contour>
      <contour>
        <pt x="241" y="428" on="1"/>
        <pt x="456" y="428" on="1"/>
        <pt x="456" y="516" on="1"/>
        <pt x="241" y="516" on="1"/>
      </contour>
    </TTGlyph>
    <TTGlyph name="Hcircumflex" xMin="53" yMin="0" xMax="597" yMax="935">
      <contour>
        <pt x="168" y="797" on="1"/>
        <pt x="272" y="934" on="1"/>
        <pt x="388" y="934" on="1"/>
        <pt x="482" y="797" on="1"/>
        <pt x="382" y="797" on="1"/>
        <pt x="327" y="853" on="1"/>
        <pt x="270" y="797" on="1"/>
      </contour>
      <contour>
        <pt x="54" y="0" on="1"/>
        <pt x="54" y="732" on="1"/>
        <pt x="218" y="732" on="1"/>
        <pt x="218" y="428" on="1"/>
        <pt x="433" y="428" on="1"/>
        <pt x="433" y="732" on="1"/>
        <pt x="597" y="732" on="1"/>
        <pt x="597" y="0" on="1"/>
        <pt x="433" y="0" on="1"/>
        <pt x="433" y="280" on="1"/>
        <pt x="218" y="280" on="1"/>
        <pt x="218" y="0" on="1"/>
      </contour>
    </TTGlyph>
    <TTGlyph name="I" xMin="53" yMin="0" xMax="218" yMax="732">
      <contour>
        <pt x="54" y="0" on="1"/>
        <pt x="54" y="732" on="1"/>
        <pt x="218" y="732" on="1"/>
        <pt x="218" y="0" on="1"/>
      </contour>
    </TTGlyph>
    <TTGlyph name="Iacute" xMin="53" yMin="0" xMax="304" yMax="938">
      <contour>
        <pt x="86" y="797" on="1"/>
        <pt x="171" y="938" on="1"/>
        <pt x="303" y="938" on="1"/>
        <pt x="185" y="797" on="1"/>
      </contour>
      <contour>
        <pt x="54" y="0" on="1"/>
        <pt x="54" y="732" on="1"/>
        <pt x="218" y="732" on="1"/>
        <pt x="218" y="0" on="1"/>
      </contour>
    </TTGlyph>
    <TTGlyph name="Icircumflex" xMin="-22" yMin="0" xMax="293" yMax="935">
      <contour>
        <pt x="-22" y="797" on="1"/>
        <pt x="83" y="934" on="1"/>
        <pt x="199" y="934" on="1"/>
        <pt x="293" y="797" on="1"/>
        <pt x="192" y="797" on="1"/>
        <pt x="138" y="853" on="1"/>
        <pt x="80" y="797" on="1"/>
      </contour>
      <contour>
        <pt x="54" y="0" on="1"/>
        <pt x="54" y="732" on="1"/>
        <pt x="218" y="732" on="1"/>
        <pt x="218" y="0" on="1"/>
      </contour>
    </TTGlyph>
    <TTGlyph name="Idieresis" xMin="-54" yMin="0" xMax="325" yMax="921">
      <contour>
        <pt x="-54" y="834" on="0"/>
        <pt x="-54" y="885" on="0"/>
        <pt x="-17" y="920" on="0"/>
        <pt x="34" y="920" on="0"/>
        <pt x="70" y="885" on="0"/>
        <pt x="70" y="834" on="0"/>
        <pt x="34" y="797" on="0"/>
        <pt x="-17" y="797" on="0"/>
      </contour>
      <contour>
        <pt x="202" y="834" on="0"/>
        <pt x="202" y="885" on="0"/>
        <pt x="238" y="920" on="0"/>
        <pt x="289" y="920" on="0"/>
        <pt x="325" y="885" on="0"/>
        <pt x="325" y="834" on="0"/>
        <pt x="289" y="797" on="0"/>
        <pt x="238" y="797" on="0"/>
      </contour>
      <contour>
        <pt x="54" y="0" on="1"/>
        <pt x="54" y="732" on="1"/>
        <pt x="218" y="732" on="1"/>
        <pt x="218" y="0" on="1"/>
      </contour>
    </TTGlyph>
    <TTGlyph name="Idotaccent" xMin="53" yMin="0" xMax="218" yMax="929">
      <contour>
        <pt x="72" y="820" on="1"/>
        <pt x="72" y="904" on="1"/>
        <pt x="72" y="929" on="0"/>
        <pt x="96" y="929" on="1"/>
        <pt x="176" y="929" on="1"/>
        <pt x="187" y="929" on="0"/>
        <pt x="199" y="915" on="0"/>
        <pt x="199" y="904" on="1"/>
        <pt x="199" y="820" on="1"/>
        <pt x="199" y="797" on="0"/>
        <pt x="176" y="797" on="1"/>
        <pt x="96" y="797" on="1"/>
        <pt x="86" y="797" on="0"/>
        <pt x="72" y="810" on="0"/>
      </contour>
      <contour>
        <pt x="54" y="0" on="1"/>
        <pt x="54" y="732" on="1"/>
        <pt x="218" y="732" on="1"/>
        <pt x="218" y="0" on="1"/>
      </contour>
    </TTGlyph>
    <TTGlyph name="Idotaccent.smcp" xMin="36" yMin="0" xMax="201" yMax="765">
      <contour>
        <pt x="37" y="0" on="1"/>
        <pt x="37" y="570" on="1"/>
        <pt x="201" y="570" on="1"/>
        <pt x="201" y="0" on="1"/>
      </contour>
      <contour>
        <pt x="57" y="656" on="1"/>
        <pt x="57" y="740" on="1"/>
        <pt x="57" y="765" on="0"/>
        <pt x="81" y="765" on="1"/>
        <pt x="161" y="765" on="1"/>
        <pt x="184" y="765" on="0"/>
        <pt x="184" y="740" on="1"/>
        <pt x="184" y="656" on="1"/>
        <pt x="184" y="633" on="0"/>
        <pt x="161" y="633" on="1"/>
        <pt x="81" y="633" on="1"/>
        <pt x="57" y="633" on="0"/>
      </contour>
    </TTGlyph>
    <TTGlyph name="Igrave" xMin="-32" yMin="0" xMax="218" yMax="938">
      <contour>
        <pt x="-32" y="938" on="1"/>
        <pt x="101" y="938" on="1"/>
        <pt x="185" y="797" on="1"/>
        <pt x="86" y="797" on="1"/>
      </contour>
      <contour>
        <pt x="54" y="0" on="1"/>
        <pt x="54" y="732" on="1"/>
        <pt x="218" y="732" on="1"/>
        <pt x="218" y="0" on="1"/>
      </contour>
    </TTGlyph>
    <TTGlyph name="Imacron" xMin="-11" yMin="0" xMax="282" yMax="883">
      <contour>
        <pt x="-10" y="797" on="1"/>
        <pt x="-10" y="882" on="1"/>
        <pt x="282" y="882" on="1"/>
        <pt x="282" y="797" on="1"/>
      </contour>
      <contour>
        <pt x="54" y="0" on="1"/>
        <pt x="54" y="732" on="1"/>
        <pt x="218" y="732" on="1"/>
        <pt x="218" y="0" on="1"/>
      </contour>
    </TTGlyph>
    <TTGlyph name="Iogonek" xMin="47" yMin="-192" xMax="218" yMax="732">
      <contour>
        <pt x="175" y="0" on="1"/>
        <pt x="131" y="-31" on="0"/>
        <pt x="131" y="-91" on="0"/>
        <pt x="158" y="-102" on="1"/>
        <pt x="171" y="-107" on="0"/>
        <pt x="185" y="-106" on="1"/>
        <pt x="185" y="-188" on="1"/>
        <pt x="171" y="-192" on="0"/>
        <pt x="149" y="-192" on="0"/>
        <pt x="119" y="-188" on="0"/>
        <pt x="101" y="-177" on="1"/>
        <pt x="47" y="-141" on="0"/>
        <pt x="47" y="-35" on="0"/>
        <pt x="113" y="0" on="1"/>
      </contour>
      <contour>
        <pt x="54" y="0" on="1"/>
        <pt x="54" y="732" on="1"/>
        <pt x="218" y="732" on="1"/>
        <pt x="218" y="0" on="1"/>
      </contour>
    </TTGlyph>
    <TTGlyph name="Itilde" xMin="-37" yMin="0" xMax="309" yMax="933">
      <contour>
        <pt x="196" y="894" on="1"/>
        <pt x="239" y="894" on="0"/>
        <pt x="284" y="933" on="1"/>
        <pt x="308" y="867" on="1"/>
        <pt x="253" y="797" on="0"/>
        <pt x="197" y="797" on="1"/>
        <pt x="173" y="797" on="0"/>
        <pt x="101" y="832" on="0"/>
        <pt x="55" y="832" on="0"/>
        <pt x="18" y="816" on="0"/>
        <pt x="-12" y="797" on="1"/>
        <pt x="-37" y="858" on="1"/>
        <pt x="21" y="929" on="0"/>
        <pt x="85" y="929" on="1"/>
        <pt x="113" y="929" on="0"/>
        <pt x="132" y="917" on="1"/>
        <pt x="169" y="894" on="0"/>
      </contour>
      <contour>
        <pt x="54" y="0" on="1"/>
        <pt x="54" y="732" on="1"/>
        <pt x="218" y="732" on="1"/>
        <pt x="218" y="0" on="1"/>
      </contour>
    </TTGlyph>
    <TTGlyph name="J" xMin="23" yMin="-5" xMax="317" yMax="732">
      <contour>
        <pt x="263" y="18" on="1"/>
        <pt x="226" y="-5" on="0"/>
        <pt x="68" y="-5" on="0"/>
        <pt x="24" y="24" on="1"/>
        <pt x="25" y="153" on="1"/>
        <pt x="43" y="152" on="0"/>
        <pt x="74" y="152" on="0"/>
        <pt x="110" y="154" on="0"/>
        <pt x="125" y="164" on="1"/>
        <pt x="152" y="183" on="0"/>
        <pt x="152" y="248" on="1"/>
        <pt x="152" y="732" on="1"/>
        <pt x="316" y="732" on="1"/>
        <pt x="316" y="165" on="1"/>
        <pt x="316" y="52" on="0"/>
      </contour>
    </TTGlyph>
    <TTGlyph name="Jcircumflex" xMin="23" yMin="-5" xMax="392" yMax="935">
      <contour>
        <pt x="77" y="797" on="1"/>
        <pt x="181" y="934" on="1"/>
        <pt x="297" y="934" on="1"/>
        <pt x="392" y="797" on="1"/>
        <pt x="290" y="797" on="1"/>
        <pt x="236" y="853" on="1"/>
        <pt x="179" y="797" on="1"/>
      </contour>
      <contour>
        <pt x="263" y="18" on="1"/>
        <pt x="226" y="-5" on="0"/>
        <pt x="68" y="-5" on="0"/>
        <pt x="24" y="24" on="1"/>
        <pt x="25" y="153" on="1"/>
        <pt x="43" y="152" on="0"/>
        <pt x="74" y="152" on="0"/>
        <pt x="110" y="154" on="0"/>
        <pt x="125" y="164" on="1"/>
        <pt x="152" y="183" on="0"/>
        <pt x="152" y="248" on="1"/>
        <pt x="152" y="732" on="1"/>
        <pt x="316" y="732" on="1"/>
        <pt x="316" y="165" on="1"/>
        <pt x="316" y="52" on="0"/>
      </contour>
    </TTGlyph>
    <TTGlyph name="K" xMin="53" yMin="0" xMax="620" yMax="732">
      <contour>
        <pt x="54" y="0" on="1"/>
        <pt x="54" y="732" on="1"/>
        <pt x="210" y="732" on="1"/>
        <pt x="210" y="434" on="1"/>
        <pt x="261" y="434" on="1"/>
        <pt x="430" y="732" on="1"/>
        <pt x="620" y="732" on="1"/>
        <pt x="406" y="365" on="1"/>
        <pt x="620" y="0" on="1"/>
        <pt x="430" y="0" on="1"/>
        <pt x="261" y="292" on="1"/>
        <pt x="211" y="292" on="1"/>
        <pt x="211" y="0" on="1"/>
      </contour>
    </TTGlyph>
    <TTGlyph name="Kcommaaccent" xMin="53" yMin="-294" xMax="620" yMax="732">
      <contour>
        <pt x="303" y="-294" on="1"/>
        <pt x="275" y="-293" on="0"/>
        <pt x="254" y="-288" on="1"/>
        <pt x="254" y="-239" on="1"/>
        <pt x="273" y="-239" on="0"/>
        <pt x="277" y="-234" on="1"/>
        <pt x="282" y="-226" on="0"/>
        <pt x="282" y="-218" on="1"/>
        <pt x="282" y="-208" on="1"/>
        <pt x="272" y="-208" on="1"/>
        <pt x="249" y="-208" on="0"/>
        <pt x="249" y="-186" on="1"/>
        <pt x="249" y="-97" on="1"/>
        <pt x="249" y="-73" on="0"/>
        <pt x="272" y="-73" on="1"/>
        <pt x="358" y="-73" on="1"/>
        <pt x="380" y="-73" on="0"/>
        <pt x="380" y="-97" on="1"/>
        <pt x="380" y="-218" on="1"/>
        <pt x="380" y="-261" on="0"/>
        <pt x="355" y="-278" on="1"/>
        <pt x="332" y="-294" on="0"/>
        <pt x="305" y="-294" on="1"/>
      </contour>
      <contour>
        <pt x="54" y="0" on="1"/>
        <pt x="54" y="732" on="1"/>
        <pt x="210" y="732" on="1"/>
        <pt x="210" y="434" on="1"/>
        <pt x="261" y="434" on="1"/>
        <pt x="430" y="732" on="1"/>
        <pt x="620" y="732" on="1"/>
        <pt x="406" y="365" on="1"/>
        <pt x="620" y="0" on="1"/>
        <pt x="430" y="0" on="1"/>
        <pt x="261" y="292" on="1"/>
        <pt x="211" y="292" on="1"/>
        <pt x="211" y="0" on="1"/>
      </contour>
    </TTGlyph>
    <TTGlyph name="L" xMin="53" yMin="0" xMax="511" yMax="732">
      <contour>
        <pt x="54" y="148" on="1"/>
        <pt x="54" y="732" on="1"/>
        <pt x="218" y="732" on="1"/>
        <pt x="218" y="201" on="1"/>
        <pt x="218" y="163" on="0"/>
        <pt x="239" y="155" on="1"/>
        <pt x="254" y="149" on="0"/>
        <pt x="280" y="149" on="1"/>
        <pt x="511" y="149" on="1"/>
        <pt x="511" y="0" on="1"/>
        <pt x="212" y="0" on="1"/>
        <pt x="141" y="0" on="0"/>
        <pt x="54" y="69" on="0"/>
      </contour>
    </TTGlyph>
    <TTGlyph name="Lacute" xMin="53" yMin="0" xMax="511" yMax="938">
      <contour>
        <pt x="86" y="797" on="1"/>
        <pt x="171" y="938" on="1"/>
        <pt x="303" y="938" on="1"/>
        <pt x="185" y="797" on="1"/>
      </contour>
      <contour>
        <pt x="54" y="148" on="1"/>
        <pt x="54" y="732" on="1"/>
        <pt x="218" y="732" on="1"/>
        <pt x="218" y="201" on="1"/>
        <pt x="218" y="163" on="0"/>
        <pt x="239" y="155" on="1"/>
        <pt x="254" y="149" on="0"/>
        <pt x="280" y="149" on="1"/>
        <pt x="511" y="149" on="1"/>
        <pt x="511" y="0" on="1"/>
        <pt x="212" y="0" on="1"/>
        <pt x="141" y="0" on="0"/>
        <pt x="54" y="69" on="0"/>
      </contour>
    </TTGlyph>
    <TTGlyph name="Lcaron" xMin="53" yMin="0" xMax="511" yMax="772">
      <contour>
        <pt x="54" y="148" on="1"/>
        <pt x="54" y="732" on="1"/>
        <pt x="218" y="732" on="1"/>
        <pt x="218" y="201" on="1"/>
        <pt x="218" y="163" on="0"/>
        <pt x="239" y="155" on="1"/>
        <pt x="254" y="149" on="0"/>
        <pt x="280" y="149" on="1"/>
        <pt x="511" y="149" on="1"/>
        <pt x="511" y="0" on="1"/>
        <pt x="212" y="0" on="1"/>
        <pt x="141" y="0" on="0"/>
        <pt x="54" y="69" on="0"/>
      </contour>
      <contour>
        <pt x="274" y="772" on="1"/>
        <pt x="378" y="772" on="1"/>
        <pt x="378" y="705" on="1"/>
        <pt x="368" y="571" on="1"/>
        <pt x="286" y="571" on="1"/>
        <pt x="274" y="705" on="1"/>
      </contour>
    </TTGlyph>
    <TTGlyph name="Lcommaaccent" xMin="53" yMin="-290" xMax="511" yMax="732">
      <contour>
        <pt x="223" y="-182" on="1"/>
        <pt x="223" y="-93" on="1"/>
        <pt x="223" y="-69" on="0"/>
        <pt x="246" y="-69" on="1"/>
        <pt x="332" y="-69" on="1"/>
        <pt x="354" y="-69" on="0"/>
        <pt x="354" y="-93" on="1"/>
        <pt x="354" y="-215" on="1"/>
        <pt x="354" y="-244" on="0"/>
        <pt x="328" y="-280" on="0"/>
        <pt x="309" y="-285" on="1"/>
        <pt x="289" y="-290" on="0"/>
        <pt x="252" y="-290" on="0"/>
        <pt x="241" y="-287" on="1"/>
        <pt x="228" y="-284" on="1"/>
        <pt x="228" y="-235" on="1"/>
        <pt x="251" y="-236" on="0"/>
        <pt x="254" y="-224" on="1"/>
        <pt x="255" y="-220" on="0"/>
        <pt x="255" y="-214" on="1"/>
        <pt x="255" y="-205" on="1"/>
        <pt x="246" y="-205" on="1"/>
        <pt x="223" y="-205" on="0"/>
      </contour>
      <contour>
        <pt x="54" y="148" on="1"/>
        <pt x="54" y="732" on="1"/>
        <pt x="218" y="732" on="1"/>
        <pt x="218" y="201" on="1"/>
        <pt x="218" y="163" on="0"/>
        <pt x="239" y="155" on="1"/>
        <pt x="254" y="149" on="0"/>
        <pt x="280" y="149" on="1"/>
        <pt x="511" y="149" on="1"/>
        <pt x="511" y="0" on="1"/>
        <pt x="212" y="0" on="1"/>
        <pt x="141" y="0" on="0"/>
        <pt x="54" y="69" on="0"/>
      </contour>
    </TTGlyph>
    <TTGlyph name="Lslash" xMin="20" yMin="0" xMax="554" yMax="732">
      <contour>
        <pt x="96" y="732" on="1"/>
        <pt x="260" y="732" on="1"/>
        <pt x="260" y="478" on="1"/>
        <pt x="363" y="522" on="1"/>
        <pt x="363" y="446" on="1"/>
        <pt x="260" y="402" on="1"/>
        <pt x="260" y="201" on="1"/>
        <pt x="260" y="163" on="0"/>
        <pt x="281" y="155" on="1"/>
        <pt x="297" y="149" on="0"/>
        <pt x="322" y="149" on="1"/>
        <pt x="554" y="149" on="1"/>
        <pt x="554" y="0" on="1"/>
        <pt x="255" y="0" on="1"/>
        <pt x="184" y="0" on="0"/>
        <pt x="96" y="69" on="0"/>
        <pt x="96" y="148" on="1"/>
        <pt x="96" y="332" on="1"/>
        <pt x="20" y="300" on="1"/>
        <pt x="20" y="376" on="1"/>
        <pt x="96" y="408" on="1"/>
      </contour>
    </TTGlyph>
    <TTGlyph name="M" xMin="37" yMin="0" xMax="829" yMax="732">
      <contour>
        <pt x="37" y="0" on="1"/>
        <pt x="108" y="732" on="1"/>
        <pt x="336" y="732" on="1"/>
        <pt x="431" y="272" on="1"/>
        <pt x="528" y="732" on="1"/>
        <pt x="755" y="732" on="1"/>
        <pt x="828" y="0" on="1"/>
        <pt x="667" y="0" on="1"/>
        <pt x="618" y="449" on="1"/>
        <pt x="525" y="0" on="1"/>
        <pt x="340" y="0" on="1"/>
        <pt x="243" y="449" on="1"/>
        <pt x="199" y="0" on="1"/>
      </contour>
    </TTGlyph>
    <TTGlyph name="M.salt" xMin="37" yMin="0" xMax="844" yMax="736">
      <contour>
        <pt x="364" y="676" on="1"/>
        <pt x="388" y="645" on="0"/>
        <pt x="390" y="604" on="1"/>
        <pt x="420" y="322" on="1"/>
        <pt x="422" y="308" on="0"/>
        <pt x="449" y="310" on="0"/>
        <pt x="450" y="322" on="1"/>
        <pt x="478" y="607" on="1"/>
        <pt x="481" y="685" on="0"/>
        <pt x="564" y="721" on="1"/>
        <pt x="598" y="736" on="0"/>
        <pt x="646" y="736" on="1"/>
        <pt x="713" y="736" on="0"/>
        <pt x="761" y="701" on="1"/>
        <pt x="803" y="672" on="0"/>
        <pt x="805" y="622" on="1"/>
        <pt x="844" y="0" on="1"/>
        <pt x="678" y="0" on="1"/>
        <pt x="651" y="535" on="1"/>
        <pt x="651" y="543" on="0"/>
        <pt x="638" y="548" on="0"/>
        <pt x="625" y="540" on="0"/>
        <pt x="625" y="532" on="1"/>
        <pt x="595" y="263" on="1"/>
        <pt x="591" y="225" on="0"/>
        <pt x="526" y="172" on="0"/>
        <pt x="459" y="162" on="0"/>
        <pt x="437" y="162" on="1"/>
        <pt x="361" y="162" on="0"/>
        <pt x="285" y="225" on="0"/>
        <pt x="281" y="266" on="1"/>
        <pt x="247" y="540" on="1"/>
        <pt x="246" y="554" on="0"/>
        <pt x="222" y="545" on="0"/>
        <pt x="221" y="533" on="1"/>
        <pt x="200" y="0" on="1"/>
        <pt x="37" y="0" on="1"/>
        <pt x="69" y="613" on="1"/>
        <pt x="70" y="652" on="0"/>
        <pt x="94" y="680" on="1"/>
        <pt x="140" y="734" on="0"/>
        <pt x="318" y="734" on="0"/>
      </contour>
    </TTGlyph>
    <TTGlyph name="N" xMin="53" yMin="0" xMax="638" yMax="732">
      <contour>
        <pt x="54" y="0" on="1"/>
        <pt x="54" y="732" on="1"/>
        <pt x="220" y="732" on="1"/>
        <pt x="474" y="303" on="1"/>
        <pt x="474" y="732" on="1"/>
        <pt x="638" y="732" on="1"/>
        <pt x="638" y="0" on="1"/>
        <pt x="474" y="0" on="1"/>
        <pt x="219" y="422" on="1"/>
        <pt x="219" y="0" on="1"/>
      </contour>
    </TTGlyph>
    <TTGlyph name="N.salt" xMin="53" yMin="-6" xMax="688" yMax="741">
      <contour>
        <pt x="54" y="0" on="1"/>
        <pt x="54" y="590" on="1"/>
        <pt x="54" y="637" on="0"/>
        <pt x="78" y="671" on="1"/>
        <pt x="125" y="740" on="0"/>
        <pt x="227" y="740" on="1"/>
        <pt x="313" y="740" on="0"/>
        <pt x="365" y="686" on="1"/>
        <pt x="393" y="656" on="0"/>
        <pt x="399" y="615" on="1"/>
        <pt x="500" y="157" on="1"/>
        <pt x="502" y="143" on="0"/>
        <pt x="524" y="148" on="0"/>
        <pt x="524" y="160" on="1"/>
        <pt x="524" y="732" on="1"/>
        <pt x="688" y="732" on="1"/>
        <pt x="688" y="144" on="1"/>
        <pt x="688" y="100" on="0"/>
        <pt x="664" y="66" on="1"/>
        <pt x="614" y="-5" on="0"/>
        <pt x="511" y="-5" on="1"/>
        <pt x="428" y="-5" on="0"/>
        <pt x="380" y="49" on="1"/>
        <pt x="352" y="81" on="0"/>
        <pt x="345" y="127" on="1"/>
        <pt x="244" y="590" on="1"/>
        <pt x="242" y="597" on="0"/>
        <pt x="230" y="600" on="0"/>
        <pt x="219" y="591" on="0"/>
        <pt x="219" y="583" on="1"/>
        <pt x="219" y="0" on="1"/>
      </contour>
    </TTGlyph>
    <TTGlyph name="Nacute" xMin="53" yMin="0" xMax="638" yMax="938">
      <contour>
        <pt x="299" y="797" on="1"/>
        <pt x="383" y="938" on="1"/>
        <pt x="516" y="938" on="1"/>
        <pt x="398" y="797" on="1"/>
      </contour>
      <contour>
        <pt x="54" y="0" on="1"/>
        <pt x="54" y="732" on="1"/>
        <pt x="220" y="732" on="1"/>
        <pt x="474" y="303" on="1"/>
        <pt x="474" y="732" on="1"/>
        <pt x="638" y="732" on="1"/>
        <pt x="638" y="0" on="1"/>
        <pt x="474" y="0" on="1"/>
        <pt x="219" y="422" on="1"/>
        <pt x="219" y="0" on="1"/>
      </contour>
    </TTGlyph>
    <TTGlyph name="Nacute.salt" xMin="53" yMin="-6" xMax="688" yMax="941">
      <contour>
        <pt x="309" y="800" on="1"/>
        <pt x="393" y="940" on="1"/>
        <pt x="526" y="940" on="1"/>
        <pt x="408" y="800" on="1"/>
      </contour>
      <contour>
        <pt x="54" y="0" on="1"/>
        <pt x="54" y="590" on="1"/>
        <pt x="54" y="637" on="0"/>
        <pt x="78" y="671" on="1"/>
        <pt x="125" y="740" on="0"/>
        <pt x="227" y="740" on="1"/>
        <pt x="313" y="740" on="0"/>
        <pt x="365" y="686" on="1"/>
        <pt x="393" y="656" on="0"/>
        <pt x="399" y="615" on="1"/>
        <pt x="500" y="157" on="1"/>
        <pt x="502" y="143" on="0"/>
        <pt x="524" y="148" on="0"/>
        <pt x="524" y="160" on="1"/>
        <pt x="524" y="732" on="1"/>
        <pt x="688" y="732" on="1"/>
        <pt x="688" y="144" on="1"/>
        <pt x="688" y="100" on="0"/>
        <pt x="664" y="66" on="1"/>
        <pt x="614" y="-5" on="0"/>
        <pt x="511" y="-5" on="1"/>
        <pt x="428" y="-5" on="0"/>
        <pt x="380" y="49" on="1"/>
        <pt x="352" y="81" on="0"/>
        <pt x="345" y="127" on="1"/>
        <pt x="244" y="590" on="1"/>
        <pt x="242" y="597" on="0"/>
        <pt x="230" y="600" on="0"/>
        <pt x="219" y="591" on="0"/>
        <pt x="219" y="583" on="1"/>
        <pt x="219" y="0" on="1"/>
      </contour>
    </TTGlyph>
    <TTGlyph name="Ncaron" xMin="53" yMin="0" xMax="638" yMax="935">
      <contour>
        <pt x="191" y="934" on="1"/>
        <pt x="292" y="934" on="1"/>
        <pt x="349" y="878" on="1"/>
        <pt x="404" y="934" on="1"/>
        <pt x="506" y="934" on="1"/>
        <pt x="405" y="797" on="1"/>
        <pt x="289" y="797" on="1"/>
      </contour>
      <contour>
        <pt x="54" y="0" on="1"/>
        <pt x="54" y="732" on="1"/>
        <pt x="220" y="732" on="1"/>
        <pt x="474" y="303" on="1"/>
        <pt x="474" y="732" on="1"/>
        <pt x="638" y="732" on="1"/>
        <pt x="638" y="0" on="1"/>
        <pt x="474" y="0" on="1"/>
        <pt x="219" y="422" on="1"/>
        <pt x="219" y="0" on="1"/>
      </contour>
    </TTGlyph>
    <TTGlyph name="Ncaron.salt" xMin="53" yMin="-6" xMax="688" yMax="938">
      <contour>
        <pt x="227" y="938" on="1"/>
        <pt x="328" y="938" on="1"/>
        <pt x="385" y="882" on="1"/>
        <pt x="440" y="938" on="1"/>
        <pt x="542" y="938" on="1"/>
        <pt x="440" y="800" on="1"/>
        <pt x="324" y="800" on="1"/>
      </contour>
      <contour>
        <pt x="54" y="0" on="1"/>
        <pt x="54" y="590" on="1"/>
        <pt x="54" y="637" on="0"/>
        <pt x="78" y="671" on="1"/>
        <pt x="125" y="740" on="0"/>
        <pt x="227" y="740" on="1"/>
        <pt x="313" y="740" on="0"/>
        <pt x="365" y="686" on="1"/>
        <pt x="393" y="656" on="0"/>
        <pt x="399" y="615" on="1"/>
        <pt x="500" y="157" on="1"/>
        <pt x="502" y="143" on="0"/>
        <pt x="524" y="148" on="0"/>
        <pt x="524" y="160" on="1"/>
        <pt x="524" y="732" on="1"/>
        <pt x="688" y="732" on="1"/>
        <pt x="688" y="144" on="1"/>
        <pt x="688" y="100" on="0"/>
        <pt x="664" y="66" on="1"/>
        <pt x="614" y="-5" on="0"/>
        <pt x="511" y="-5" on="1"/>
        <pt x="428" y="-5" on="0"/>
        <pt x="380" y="49" on="1"/>
        <pt x="352" y="81" on="0"/>
        <pt x="345" y="127" on="1"/>
        <pt x="244" y="590" on="1"/>
        <pt x="242" y="597" on="0"/>
        <pt x="230" y="600" on="0"/>
        <pt x="219" y="591" on="0"/>
        <pt x="219" y="583" on="1"/>
        <pt x="219" y="0" on="1"/>
      </contour>
    </TTGlyph>
    <TTGlyph name="Ncommaaccent" xMin="53" yMin="-294" xMax="638" yMax="732">
      <contour>
        <pt x="330" y="-294" on="1"/>
        <pt x="302" y="-293" on="0"/>
        <pt x="280" y="-288" on="1"/>
        <pt x="280" y="-239" on="1"/>
        <pt x="300" y="-239" on="0"/>
        <pt x="303" y="-234" on="1"/>
        <pt x="308" y="-226" on="0"/>
        <pt x="308" y="-218" on="1"/>
        <pt x="308" y="-208" on="1"/>
        <pt x="298" y="-208" on="1"/>
        <pt x="276" y="-208" on="0"/>
        <pt x="276" y="-186" on="1"/>
        <pt x="276" y="-97" on="1"/>
        <pt x="276" y="-73" on="0"/>
        <pt x="298" y="-73" on="1"/>
        <pt x="385" y="-73" on="1"/>
        <pt x="406" y="-73" on="0"/>
        <pt x="406" y="-97" on="1"/>
        <pt x="406" y="-218" on="1"/>
        <pt x="406" y="-261" on="0"/>
        <pt x="381" y="-278" on="1"/>
        <pt x="358" y="-294" on="0"/>
        <pt x="331" y="-294" on="1"/>
      </contour>
      <contour>
        <pt x="54" y="0" on="1"/>
        <pt x="54" y="732" on="1"/>
        <pt x="220" y="732" on="1"/>
        <pt x="474" y="303" on="1"/>
        <pt x="474" y="732" on="1"/>
        <pt x="638" y="732" on="1"/>
        <pt x="638" y="0" on="1"/>
        <pt x="474" y="0" on="1"/>
        <pt x="219" y="422" on="1"/>
        <pt x="219" y="0" on="1"/>
      </contour>
    </TTGlyph>
    <TTGlyph name="Ncommaaccent.salt" xMin="53" yMin="-300" xMax="688" yMax="741">
      <contour>
        <pt x="352" y="-299" on="1"/>
        <pt x="324" y="-299" on="0"/>
        <pt x="302" y="-293" on="1"/>
        <pt x="302" y="-244" on="1"/>
        <pt x="326" y="-245" on="0"/>
        <pt x="329" y="-233" on="1"/>
        <pt x="330" y="-229" on="0"/>
        <pt x="330" y="-223" on="1"/>
        <pt x="330" y="-214" on="1"/>
        <pt x="320" y="-214" on="1"/>
        <pt x="298" y="-214" on="0"/>
        <pt x="298" y="-192" on="1"/>
        <pt x="298" y="-102" on="1"/>
        <pt x="298" y="-78" on="0"/>
        <pt x="320" y="-78" on="1"/>
        <pt x="407" y="-78" on="1"/>
        <pt x="428" y="-78" on="0"/>
        <pt x="428" y="-102" on="1"/>
        <pt x="428" y="-224" on="1"/>
        <pt x="428" y="-267" on="0"/>
        <pt x="403" y="-284" on="1"/>
        <pt x="380" y="-299" on="0"/>
        <pt x="353" y="-299" on="1"/>
      </contour>
      <contour>
        <pt x="54" y="0" on="1"/>
        <pt x="54" y="590" on="1"/>
        <pt x="54" y="637" on="0"/>
        <pt x="78" y="671" on="1"/>
        <pt x="125" y="740" on="0"/>
        <pt x="227" y="740" on="1"/>
        <pt x="313" y="740" on="0"/>
        <pt x="365" y="686" on="1"/>
        <pt x="393" y="656" on="0"/>
        <pt x="399" y="615" on="1"/>
        <pt x="500" y="157" on="1"/>
        <pt x="502" y="143" on="0"/>
        <pt x="524" y="148" on="0"/>
        <pt x="524" y="160" on="1"/>
        <pt x="524" y="732" on="1"/>
        <pt x="688" y="732" on="1"/>
        <pt x="688" y="144" on="1"/>
        <pt x="688" y="100" on="0"/>
        <pt x="664" y="66" on="1"/>
        <pt x="614" y="-5" on="0"/>
        <pt x="511" y="-5" on="1"/>
        <pt x="428" y="-5" on="0"/>
        <pt x="380" y="49" on="1"/>
        <pt x="352" y="81" on="0"/>
        <pt x="345" y="127" on="1"/>
        <pt x="244" y="590" on="1"/>
        <pt x="242" y="597" on="0"/>
        <pt x="230" y="600" on="0"/>
        <pt x="219" y="591" on="0"/>
        <pt x="219" y="583" on="1"/>
        <pt x="219" y="0" on="1"/>
      </contour>
    </TTGlyph>
    <TTGlyph name="Ntilde" xMin="53" yMin="0" xMax="638" yMax="933">
      <contour>
        <pt x="406" y="894" on="1"/>
        <pt x="449" y="894" on="0"/>
        <pt x="494" y="933" on="1"/>
        <pt x="519" y="867" on="1"/>
        <pt x="463" y="797" on="0"/>
        <pt x="407" y="797" on="1"/>
        <pt x="387" y="797" on="0"/>
        <pt x="345" y="815" on="0"/>
        <pt x="308" y="832" on="0"/>
        <pt x="265" y="832" on="0"/>
        <pt x="228" y="816" on="0"/>
        <pt x="199" y="797" on="1"/>
        <pt x="173" y="858" on="1"/>
        <pt x="231" y="929" on="0"/>
        <pt x="295" y="929" on="1"/>
        <pt x="319" y="929" on="0"/>
        <pt x="351" y="911" on="1"/>
        <pt x="384" y="894" on="0"/>
      </contour>
      <contour>
        <pt x="54" y="0" on="1"/>
        <pt x="54" y="732" on="1"/>
        <pt x="220" y="732" on="1"/>
        <pt x="474" y="303" on="1"/>
        <pt x="474" y="732" on="1"/>
        <pt x="638" y="732" on="1"/>
        <pt x="638" y="0" on="1"/>
        <pt x="474" y="0" on="1"/>
        <pt x="219" y="422" on="1"/>
        <pt x="219" y="0" on="1"/>
      </contour>
    </TTGlyph>
    <TTGlyph name="Ntilde.salt" xMin="53" yMin="-6" xMax="688" yMax="936">
      <contour>
        <pt x="440" y="897" on="1"/>
        <pt x="484" y="897" on="0"/>
        <pt x="528" y="936" on="1"/>
        <pt x="553" y="870" on="1"/>
        <pt x="498" y="800" on="0"/>
        <pt x="441" y="800" on="1"/>
        <pt x="422" y="800" on="0"/>
        <pt x="380" y="818" on="0"/>
        <pt x="343" y="835" on="0"/>
        <pt x="300" y="835" on="0"/>
        <pt x="262" y="819" on="0"/>
        <pt x="233" y="800" on="1"/>
        <pt x="208" y="860" on="1"/>
        <pt x="266" y="932" on="0"/>
        <pt x="330" y="932" on="1"/>
        <pt x="353" y="932" on="0"/>
        <pt x="386" y="914" on="1"/>
        <pt x="419" y="897" on="0"/>
      </contour>
      <contour>
        <pt x="54" y="0" on="1"/>
        <pt x="54" y="590" on="1"/>
        <pt x="54" y="637" on="0"/>
        <pt x="78" y="671" on="1"/>
        <pt x="125" y="740" on="0"/>
        <pt x="227" y="740" on="1"/>
        <pt x="313" y="740" on="0"/>
        <pt x="365" y="686" on="1"/>
        <pt x="393" y="656" on="0"/>
        <pt x="399" y="615" on="1"/>
        <pt x="500" y="157" on="1"/>
        <pt x="502" y="143" on="0"/>
        <pt x="524" y="148" on="0"/>
        <pt x="524" y="160" on="1"/>
        <pt x="524" y="732" on="1"/>
        <pt x="688" y="732" on="1"/>
        <pt x="688" y="144" on="1"/>
        <pt x="688" y="100" on="0"/>
        <pt x="664" y="66" on="1"/>
        <pt x="614" y="-5" on="0"/>
        <pt x="511" y="-5" on="1"/>
        <pt x="428" y="-5" on="0"/>
        <pt x="380" y="49" on="1"/>
        <pt x="352" y="81" on="0"/>
        <pt x="345" y="127" on="1"/>
        <pt x="244" y="590" on="1"/>
        <pt x="242" y="597" on="0"/>
        <pt x="230" y="600" on="0"/>
        <pt x="219" y="591" on="0"/>
        <pt x="219" y="583" on="1"/>
        <pt x="219" y="0" on="1"/>
      </contour>
    </TTGlyph>
    <TTGlyph name="O" xMin="44" yMin="-4" xMax="640" yMax="737">
      <contour>
        <pt x="44" y="299" on="0"/>
        <pt x="44" y="433" on="0"/>
        <pt x="60" y="546" on="0"/>
        <pt x="87" y="625" on="0"/>
        <pt x="131" y="681" on="0"/>
        <pt x="177" y="713" on="0"/>
        <pt x="210" y="722" on="1"/>
        <pt x="263" y="737" on="0"/>
        <pt x="384" y="737" on="0"/>
        <pt x="443" y="731" on="0"/>
        <pt x="510" y="713" on="0"/>
        <pt x="555" y="681" on="0"/>
        <pt x="599" y="625" on="0"/>
        <pt x="612" y="586" on="1"/>
        <pt x="640" y="499" on="0"/>
        <pt x="640" y="361" on="1"/>
        <pt x="640" y="194" on="0"/>
        <pt x="593" y="104" on="1"/>
        <pt x="569" y="56" on="0"/>
        <pt x="516" y="26" on="1"/>
        <pt x="462" y="-4" on="0"/>
        <pt x="342" y="-4" on="1"/>
        <pt x="220" y="-4" on="0"/>
        <pt x="169" y="24" on="1"/>
        <pt x="114" y="53" on="0"/>
        <pt x="91" y="99" on="1"/>
        <pt x="58" y="163" on="0"/>
      </contour>
      <contour>
        <pt x="218" y="506" on="0"/>
        <pt x="208" y="424" on="0"/>
        <pt x="208" y="321" on="0"/>
        <pt x="211" y="264" on="0"/>
        <pt x="218" y="216" on="0"/>
        <pt x="232" y="185" on="0"/>
        <pt x="251" y="162" on="0"/>
        <pt x="266" y="156" on="1"/>
        <pt x="295" y="145" on="0"/>
        <pt x="383" y="145" on="0"/>
        <pt x="431" y="162" on="0"/>
        <pt x="464" y="211" on="0"/>
        <pt x="476" y="293" on="0"/>
        <pt x="476" y="423" on="0"/>
        <pt x="467" y="502" on="0"/>
        <pt x="450" y="554" on="0"/>
        <pt x="416" y="579" on="0"/>
        <pt x="376" y="588" on="0"/>
        <pt x="309" y="588" on="0"/>
        <pt x="271" y="581" on="0"/>
        <pt x="235" y="556" on="0"/>
      </contour>
    </TTGlyph>
    <TTGlyph name="OE" xMin="44" yMin="-4" xMax="956" yMax="737">
      <contour>
        <pt x="236" y="562" on="0"/>
        <pt x="208" y="464" on="0"/>
        <pt x="208" y="226" on="0"/>
        <pt x="258" y="145" on="0"/>
        <pt x="342" y="145" on="1"/>
        <pt x="396" y="145" on="0"/>
        <pt x="451" y="179" on="0"/>
        <pt x="475" y="271" on="0"/>
        <pt x="475" y="423" on="0"/>
        <pt x="466" y="502" on="0"/>
        <pt x="450" y="554" on="0"/>
        <pt x="416" y="579" on="0"/>
        <pt x="375" y="588" on="0"/>
        <pt x="287" y="588" on="0"/>
      </contour>
      <contour>
        <pt x="44" y="368" on="1"/>
        <pt x="44" y="445" on="0"/>
        <pt x="64" y="571" on="0"/>
        <pt x="105" y="652" on="0"/>
        <pt x="154" y="703" on="0"/>
        <pt x="191" y="716" on="1"/>
        <pt x="251" y="737" on="0"/>
        <pt x="342" y="737" on="1"/>
        <pt x="423" y="737" on="0"/>
        <pt x="504" y="713" on="0"/>
        <pt x="527" y="696" on="1"/>
        <pt x="565" y="732" on="0"/>
        <pt x="633" y="732" on="1"/>
        <pt x="639" y="732" on="0"/>
        <pt x="646" y="732" on="1"/>
        <pt x="868" y="728" on="0"/>
        <pt x="956" y="716" on="1"/>
        <pt x="956" y="579" on="1"/>
        <pt x="691" y="579" on="1"/>
        <pt x="654" y="579" on="0"/>
        <pt x="646" y="561" on="1"/>
        <pt x="639" y="547" on="0"/>
        <pt x="639" y="523" on="1"/>
        <pt x="639" y="440" on="1"/>
        <pt x="908" y="430" on="1"/>
        <pt x="908" y="294" on="1"/>
        <pt x="639" y="285" on="1"/>
        <pt x="639" y="202" on="1"/>
        <pt x="639" y="164" on="0"/>
        <pt x="660" y="156" on="1"/>
        <pt x="676" y="150" on="0"/>
        <pt x="701" y="150" on="1"/>
        <pt x="956" y="150" on="1"/>
        <pt x="956" y="14" on="1"/>
        <pt x="887" y="5" on="0"/>
        <pt x="714" y="-1" on="1"/>
        <pt x="656" y="-3" on="1"/>
        <pt x="646" y="-4" on="0"/>
        <pt x="637" y="-4" on="1"/>
        <pt x="561" y="-4" on="0"/>
        <pt x="522" y="34" on="1"/>
        <pt x="465" y="-4" on="0"/>
        <pt x="342" y="-4" on="1"/>
        <pt x="203" y="-4" on="0"/>
        <pt x="148" y="35" on="1"/>
        <pt x="94" y="73" on="0"/>
        <pt x="72" y="143" on="1"/>
        <pt x="44" y="227" on="0"/>
      </contour>
    </TTGlyph>
    <TTGlyph name="Oacute" xMin="44" yMin="-4" xMax="640" yMax="938">
      <contour>
        <pt x="293" y="797" on="1"/>
        <pt x="377" y="938" on="1"/>
        <pt x="510" y="938" on="1"/>
        <pt x="392" y="797" on="1"/>
      </contour>
      <contour>
        <pt x="44" y="299" on="0"/>
        <pt x="44" y="433" on="0"/>
        <pt x="60" y="546" on="0"/>
        <pt x="87" y="625" on="0"/>
        <pt x="131" y="681" on="0"/>
        <pt x="177" y="713" on="0"/>
        <pt x="210" y="722" on="1"/>
        <pt x="263" y="737" on="0"/>
        <pt x="384" y="737" on="0"/>
        <pt x="443" y="731" on="0"/>
        <pt x="510" y="713" on="0"/>
        <pt x="555" y="681" on="0"/>
        <pt x="599" y="625" on="0"/>
        <pt x="612" y="586" on="1"/>
        <pt x="640" y="499" on="0"/>
        <pt x="640" y="361" on="1"/>
        <pt x="640" y="194" on="0"/>
        <pt x="593" y="104" on="1"/>
        <pt x="569" y="56" on="0"/>
        <pt x="516" y="26" on="1"/>
        <pt x="462" y="-4" on="0"/>
        <pt x="342" y="-4" on="1"/>
        <pt x="220" y="-4" on="0"/>
        <pt x="169" y="24" on="1"/>
        <pt x="114" y="53" on="0"/>
        <pt x="91" y="99" on="1"/>
        <pt x="58" y="163" on="0"/>
      </contour>
      <contour>
        <pt x="218" y="506" on="0"/>
        <pt x="208" y="424" on="0"/>
        <pt x="208" y="321" on="0"/>
        <pt x="211" y="264" on="0"/>
        <pt x="218" y="216" on="0"/>
        <pt x="232" y="185" on="0"/>
        <pt x="251" y="162" on="0"/>
        <pt x="266" y="156" on="1"/>
        <pt x="295" y="145" on="0"/>
        <pt x="383" y="145" on="0"/>
        <pt x="431" y="162" on="0"/>
        <pt x="464" y="211" on="0"/>
        <pt x="476" y="293" on="0"/>
        <pt x="476" y="423" on="0"/>
        <pt x="467" y="502" on="0"/>
        <pt x="450" y="554" on="0"/>
        <pt x="416" y="579" on="0"/>
        <pt x="376" y="588" on="0"/>
        <pt x="309" y="588" on="0"/>
        <pt x="271" y="581" on="0"/>
        <pt x="235" y="556" on="0"/>
      </contour>
    </TTGlyph>
    <TTGlyph name="Ocircumflex" xMin="44" yMin="-4" xMax="640" yMax="935">
      <contour>
        <pt x="185" y="797" on="1"/>
        <pt x="289" y="934" on="1"/>
        <pt x="405" y="934" on="1"/>
        <pt x="500" y="797" on="1"/>
        <pt x="398" y="797" on="1"/>
        <pt x="344" y="853" on="1"/>
        <pt x="287" y="797" on="1"/>
      </contour>
      <contour>
        <pt x="44" y="299" on="0"/>
        <pt x="44" y="433" on="0"/>
        <pt x="60" y="546" on="0"/>
        <pt x="87" y="625" on="0"/>
        <pt x="131" y="681" on="0"/>
        <pt x="177" y="713" on="0"/>
        <pt x="210" y="722" on="1"/>
        <pt x="263" y="737" on="0"/>
        <pt x="384" y="737" on="0"/>
        <pt x="443" y="731" on="0"/>
        <pt x="510" y="713" on="0"/>
        <pt x="555" y="681" on="0"/>
        <pt x="599" y="625" on="0"/>
        <pt x="612" y="586" on="1"/>
        <pt x="640" y="499" on="0"/>
        <pt x="640" y="361" on="1"/>
        <pt x="640" y="194" on="0"/>
        <pt x="593" y="104" on="1"/>
        <pt x="569" y="56" on="0"/>
        <pt x="516" y="26" on="1"/>
        <pt x="462" y="-4" on="0"/>
        <pt x="342" y="-4" on="1"/>
        <pt x="220" y="-4" on="0"/>
        <pt x="169" y="24" on="1"/>
        <pt x="114" y="53" on="0"/>
        <pt x="91" y="99" on="1"/>
        <pt x="58" y="163" on="0"/>
      </contour>
      <contour>
        <pt x="218" y="506" on="0"/>
        <pt x="208" y="424" on="0"/>
        <pt x="208" y="321" on="0"/>
        <pt x="211" y="264" on="0"/>
        <pt x="218" y="216" on="0"/>
        <pt x="232" y="185" on="0"/>
        <pt x="251" y="162" on="0"/>
        <pt x="266" y="156" on="1"/>
        <pt x="295" y="145" on="0"/>
        <pt x="383" y="145" on="0"/>
        <pt x="431" y="162" on="0"/>
        <pt x="464" y="211" on="0"/>
        <pt x="476" y="293" on="0"/>
        <pt x="476" y="423" on="0"/>
        <pt x="467" y="502" on="0"/>
        <pt x="450" y="554" on="0"/>
        <pt x="416" y="579" on="0"/>
        <pt x="376" y="588" on="0"/>
        <pt x="309" y="588" on="0"/>
        <pt x="271" y="581" on="0"/>
        <pt x="235" y="556" on="0"/>
      </contour>
    </TTGlyph>
    <TTGlyph name="Odieresis" xMin="44" yMin="-4" xMax="640" yMax="921">
      <contour>
        <pt x="190" y="797" on="0"/>
        <pt x="153" y="834" on="0"/>
        <pt x="153" y="876" on="0"/>
        <pt x="161" y="890" on="1"/>
        <pt x="180" y="920" on="0"/>
        <pt x="241" y="920" on="0"/>
        <pt x="276" y="885" on="0"/>
        <pt x="276" y="834" on="0"/>
        <pt x="241" y="797" on="0"/>
      </contour>
      <contour>
        <pt x="408" y="834" on="0"/>
        <pt x="408" y="885" on="0"/>
        <pt x="445" y="920" on="0"/>
        <pt x="496" y="920" on="0"/>
        <pt x="532" y="885" on="0"/>
        <pt x="532" y="834" on="0"/>
        <pt x="496" y="797" on="0"/>
        <pt x="445" y="797" on="0"/>
      </contour>
      <contour>
        <pt x="44" y="299" on="0"/>
        <pt x="44" y="433" on="0"/>
        <pt x="60" y="546" on="0"/>
        <pt x="87" y="625" on="0"/>
        <pt x="131" y="681" on="0"/>
        <pt x="177" y="713" on="0"/>
        <pt x="210" y="722" on="1"/>
        <pt x="263" y="737" on="0"/>
        <pt x="384" y="737" on="0"/>
        <pt x="443" y="731" on="0"/>
        <pt x="510" y="713" on="0"/>
        <pt x="555" y="681" on="0"/>
        <pt x="599" y="625" on="0"/>
        <pt x="612" y="586" on="1"/>
        <pt x="640" y="499" on="0"/>
        <pt x="640" y="361" on="1"/>
        <pt x="640" y="194" on="0"/>
        <pt x="593" y="104" on="1"/>
        <pt x="569" y="56" on="0"/>
        <pt x="516" y="26" on="1"/>
        <pt x="462" y="-4" on="0"/>
        <pt x="342" y="-4" on="1"/>
        <pt x="220" y="-4" on="0"/>
        <pt x="169" y="24" on="1"/>
        <pt x="114" y="53" on="0"/>
        <pt x="91" y="99" on="1"/>
        <pt x="58" y="163" on="0"/>
      </contour>
      <contour>
        <pt x="218" y="506" on="0"/>
        <pt x="208" y="424" on="0"/>
        <pt x="208" y="321" on="0"/>
        <pt x="211" y="264" on="0"/>
        <pt x="218" y="216" on="0"/>
        <pt x="232" y="185" on="0"/>
        <pt x="251" y="162" on="0"/>
        <pt x="266" y="156" on="1"/>
        <pt x="295" y="145" on="0"/>
        <pt x="383" y="145" on="0"/>
        <pt x="431" y="162" on="0"/>
        <pt x="464" y="211" on="0"/>
        <pt x="476" y="293" on="0"/>
        <pt x="476" y="423" on="0"/>
        <pt x="467" y="502" on="0"/>
        <pt x="450" y="554" on="0"/>
        <pt x="416" y="579" on="0"/>
        <pt x="376" y="588" on="0"/>
        <pt x="309" y="588" on="0"/>
        <pt x="271" y="581" on="0"/>
        <pt x="235" y="556" on="0"/>
      </contour>
    </TTGlyph>
    <TTGlyph name="Ograve" xMin="44" yMin="-4" xMax="640" yMax="938">
      <contour>
        <pt x="175" y="938" on="1"/>
        <pt x="307" y="938" on="1"/>
        <pt x="392" y="797" on="1"/>
        <pt x="293" y="797" on="1"/>
      </contour>
      <contour>
        <pt x="44" y="299" on="0"/>
        <pt x="44" y="433" on="0"/>
        <pt x="60" y="546" on="0"/>
        <pt x="87" y="625" on="0"/>
        <pt x="131" y="681" on="0"/>
        <pt x="177" y="713" on="0"/>
        <pt x="210" y="722" on="1"/>
        <pt x="263" y="737" on="0"/>
        <pt x="384" y="737" on="0"/>
        <pt x="443" y="731" on="0"/>
        <pt x="510" y="713" on="0"/>
        <pt x="555" y="681" on="0"/>
        <pt x="599" y="625" on="0"/>
        <pt x="612" y="586" on="1"/>
        <pt x="640" y="499" on="0"/>
        <pt x="640" y="361" on="1"/>
        <pt x="640" y="194" on="0"/>
        <pt x="593" y="104" on="1"/>
        <pt x="569" y="56" on="0"/>
        <pt x="516" y="26" on="1"/>
        <pt x="462" y="-4" on="0"/>
        <pt x="342" y="-4" on="1"/>
        <pt x="220" y="-4" on="0"/>
        <pt x="169" y="24" on="1"/>
        <pt x="114" y="53" on="0"/>
        <pt x="91" y="99" on="1"/>
        <pt x="58" y="163" on="0"/>
      </contour>
      <contour>
        <pt x="218" y="506" on="0"/>
        <pt x="208" y="424" on="0"/>
        <pt x="208" y="321" on="0"/>
        <pt x="211" y="264" on="0"/>
        <pt x="218" y="216" on="0"/>
        <pt x="232" y="185" on="0"/>
        <pt x="251" y="162" on="0"/>
        <pt x="266" y="156" on="1"/>
        <pt x="295" y="145" on="0"/>
        <pt x="383" y="145" on="0"/>
        <pt x="431" y="162" on="0"/>
        <pt x="464" y="211" on="0"/>
        <pt x="476" y="293" on="0"/>
        <pt x="476" y="423" on="0"/>
        <pt x="467" y="502" on="0"/>
        <pt x="450" y="554" on="0"/>
        <pt x="416" y="579" on="0"/>
        <pt x="376" y="588" on="0"/>
        <pt x="309" y="588" on="0"/>
        <pt x="271" y="581" on="0"/>
        <pt x="235" y="556" on="0"/>
      </contour>
    </TTGlyph>
    <TTGlyph name="Ohungarumlaut" xMin="44" yMin="-4" xMax="640" yMax="938">
      <contour>
        <pt x="211" y="797" on="1"/>
        <pt x="296" y="938" on="1"/>
        <pt x="428" y="938" on="1"/>
        <pt x="310" y="797" on="1"/>
      </contour>
      <contour>
        <pt x="374" y="797" on="1"/>
        <pt x="459" y="938" on="1"/>
        <pt x="592" y="938" on="1"/>
        <pt x="474" y="797" on="1"/>
      </contour>
      <contour>
        <pt x="44" y="299" on="0"/>
        <pt x="44" y="433" on="0"/>
        <pt x="60" y="546" on="0"/>
        <pt x="87" y="625" on="0"/>
        <pt x="131" y="681" on="0"/>
        <pt x="177" y="713" on="0"/>
        <pt x="210" y="722" on="1"/>
        <pt x="263" y="737" on="0"/>
        <pt x="384" y="737" on="0"/>
        <pt x="443" y="731" on="0"/>
        <pt x="510" y="713" on="0"/>
        <pt x="555" y="681" on="0"/>
        <pt x="599" y="625" on="0"/>
        <pt x="612" y="586" on="1"/>
        <pt x="640" y="499" on="0"/>
        <pt x="640" y="361" on="1"/>
        <pt x="640" y="194" on="0"/>
        <pt x="593" y="104" on="1"/>
        <pt x="569" y="56" on="0"/>
        <pt x="516" y="26" on="1"/>
        <pt x="462" y="-4" on="0"/>
        <pt x="342" y="-4" on="1"/>
        <pt x="220" y="-4" on="0"/>
        <pt x="169" y="24" on="1"/>
        <pt x="114" y="53" on="0"/>
        <pt x="91" y="99" on="1"/>
        <pt x="58" y="163" on="0"/>
      </contour>
      <contour>
        <pt x="218" y="506" on="0"/>
        <pt x="208" y="424" on="0"/>
        <pt x="208" y="321" on="0"/>
        <pt x="211" y="264" on="0"/>
        <pt x="218" y="216" on="0"/>
        <pt x="232" y="185" on="0"/>
        <pt x="251" y="162" on="0"/>
        <pt x="266" y="156" on="1"/>
        <pt x="295" y="145" on="0"/>
        <pt x="383" y="145" on="0"/>
        <pt x="431" y="162" on="0"/>
        <pt x="464" y="211" on="0"/>
        <pt x="476" y="293" on="0"/>
        <pt x="476" y="423" on="0"/>
        <pt x="467" y="502" on="0"/>
        <pt x="450" y="554" on="0"/>
        <pt x="416" y="579" on="0"/>
        <pt x="376" y="588" on="0"/>
        <pt x="309" y="588" on="0"/>
        <pt x="271" y="581" on="0"/>
        <pt x="235" y="556" on="0"/>
      </contour>
    </TTGlyph>
    <TTGlyph name="Omacron" xMin="44" yMin="-4" xMax="640" yMax="883">
      <contour>
        <pt x="196" y="797" on="1"/>
        <pt x="196" y="882" on="1"/>
        <pt x="488" y="882" on="1"/>
        <pt x="488" y="797" on="1"/>
      </contour>
      <contour>
        <pt x="44" y="299" on="0"/>
        <pt x="44" y="433" on="0"/>
        <pt x="60" y="546" on="0"/>
        <pt x="87" y="625" on="0"/>
        <pt x="131" y="681" on="0"/>
        <pt x="177" y="713" on="0"/>
        <pt x="210" y="722" on="1"/>
        <pt x="263" y="737" on="0"/>
        <pt x="384" y="737" on="0"/>
        <pt x="443" y="731" on="0"/>
        <pt x="510" y="713" on="0"/>
        <pt x="555" y="681" on="0"/>
        <pt x="599" y="625" on="0"/>
        <pt x="612" y="586" on="1"/>
        <pt x="640" y="499" on="0"/>
        <pt x="640" y="361" on="1"/>
        <pt x="640" y="194" on="0"/>
        <pt x="593" y="104" on="1"/>
        <pt x="569" y="56" on="0"/>
        <pt x="516" y="26" on="1"/>
        <pt x="462" y="-4" on="0"/>
        <pt x="342" y="-4" on="1"/>
        <pt x="220" y="-4" on="0"/>
        <pt x="169" y="24" on="1"/>
        <pt x="114" y="53" on="0"/>
        <pt x="91" y="99" on="1"/>
        <pt x="58" y="163" on="0"/>
      </contour>
      <contour>
        <pt x="218" y="506" on="0"/>
        <pt x="208" y="424" on="0"/>
        <pt x="208" y="321" on="0"/>
        <pt x="211" y="264" on="0"/>
        <pt x="218" y="216" on="0"/>
        <pt x="232" y="185" on="0"/>
        <pt x="251" y="162" on="0"/>
        <pt x="266" y="156" on="1"/>
        <pt x="295" y="145" on="0"/>
        <pt x="383" y="145" on="0"/>
        <pt x="431" y="162" on="0"/>
        <pt x="464" y="211" on="0"/>
        <pt x="476" y="293" on="0"/>
        <pt x="476" y="423" on="0"/>
        <pt x="467" y="502" on="0"/>
        <pt x="450" y="554" on="0"/>
        <pt x="416" y="579" on="0"/>
        <pt x="376" y="588" on="0"/>
        <pt x="309" y="588" on="0"/>
        <pt x="271" y="581" on="0"/>
        <pt x="235" y="556" on="0"/>
      </contour>
    </TTGlyph>
    <TTGlyph name="Omega" xMin="43" yMin="0" xMax="715" yMax="739">
      <contour>
        <pt x="152" y="146" on="1"/>
        <pt x="43" y="218" on="0"/>
        <pt x="43" y="376" on="1"/>
        <pt x="43" y="445" on="0"/>
        <pt x="62" y="537" on="0"/>
        <pt x="111" y="629" on="0"/>
        <pt x="185" y="697" on="0"/>
        <pt x="304" y="739" on="0"/>
        <pt x="452" y="739" on="0"/>
        <pt x="566" y="701" on="0"/>
        <pt x="640" y="637" on="0"/>
        <pt x="665" y="592" on="1"/>
        <pt x="710" y="508" on="0"/>
        <pt x="710" y="390" on="1"/>
        <pt x="710" y="304" on="0"/>
        <pt x="667" y="194" on="0"/>
        <pt x="617" y="144" on="1"/>
        <pt x="715" y="134" on="1"/>
        <pt x="715" y="0" on="1"/>
        <pt x="457" y="0" on="1"/>
        <pt x="457" y="146" on="1"/>
        <pt x="513" y="193" on="0"/>
        <pt x="530" y="253" on="1"/>
        <pt x="546" y="306" on="0"/>
        <pt x="546" y="413" on="0"/>
        <pt x="538" y="465" on="0"/>
        <pt x="516" y="522" on="0"/>
        <pt x="499" y="543" on="1"/>
        <pt x="458" y="590" on="0"/>
        <pt x="380" y="590" on="1"/>
        <pt x="307" y="590" on="0"/>
        <pt x="231" y="521" on="0"/>
        <pt x="219" y="474" on="1"/>
        <pt x="207" y="429" on="0"/>
        <pt x="207" y="297" on="0"/>
        <pt x="241" y="198" on="0"/>
        <pt x="299" y="146" on="1"/>
        <pt x="299" y="0" on="1"/>
        <pt x="49" y="0" on="1"/>
        <pt x="49" y="136" on="1"/>
      </contour>
    </TTGlyph>
    <TTGlyph name="Oslash" xMin="43" yMin="-5" xMax="647" yMax="737">
      <contour>
        <pt x="115" y="653" on="1"/>
        <pt x="137" y="681" on="0"/>
        <pt x="183" y="713" on="0"/>
        <pt x="216" y="722" on="1"/>
        <pt x="269" y="737" on="0"/>
        <pt x="349" y="737" on="1"/>
        <pt x="474" y="737" on="0"/>
        <pt x="532" y="701" on="1"/>
        <pt x="554" y="732" on="1"/>
        <pt x="634" y="732" on="1"/>
        <pt x="581" y="656" on="1"/>
        <pt x="647" y="569" on="0"/>
        <pt x="647" y="361" on="1"/>
        <pt x="647" y="161" on="0"/>
        <pt x="586" y="82" on="1"/>
        <pt x="546" y="29" on="0"/>
        <pt x="486" y="12" on="1"/>
        <pt x="432" y="-4" on="0"/>
        <pt x="280" y="-4" on="0"/>
        <pt x="185" y="13" on="0"/>
        <pt x="150" y="38" on="1"/>
        <pt x="123" y="0" on="1"/>
        <pt x="43" y="0" on="1"/>
        <pt x="104" y="88" on="1"/>
        <pt x="51" y="171" on="0"/>
        <pt x="51" y="571" on="0"/>
      </contour>
      <contour>
        <pt x="220" y="473" on="0"/>
        <pt x="215" y="406" on="0"/>
        <pt x="215" y="290" on="0"/>
        <pt x="223" y="255" on="1"/>
        <pt x="438" y="568" on="1"/>
        <pt x="414" y="588" on="0"/>
        <pt x="349" y="588" on="1"/>
        <pt x="276" y="588" on="0"/>
        <pt x="254" y="564" on="1"/>
        <pt x="231" y="539" on="0"/>
      </contour>
      <contour>
        <pt x="248" y="176" on="1"/>
        <pt x="274" y="145" on="0"/>
        <pt x="403" y="145" on="0"/>
        <pt x="458" y="179" on="0"/>
        <pt x="483" y="271" on="0"/>
        <pt x="483" y="456" on="0"/>
        <pt x="470" y="501" on="1"/>
      </contour>
    </TTGlyph>
    <TTGlyph name="Otilde" xMin="44" yMin="-4" xMax="640" yMax="933">
      <contour>
        <pt x="402" y="894" on="1"/>
        <pt x="445" y="894" on="0"/>
        <pt x="490" y="933" on="1"/>
        <pt x="515" y="867" on="1"/>
        <pt x="459" y="797" on="0"/>
        <pt x="403" y="797" on="1"/>
        <pt x="379" y="797" on="0"/>
        <pt x="307" y="832" on="0"/>
        <pt x="261" y="832" on="0"/>
        <pt x="224" y="816" on="0"/>
        <pt x="195" y="797" on="1"/>
        <pt x="170" y="858" on="1"/>
        <pt x="228" y="929" on="0"/>
        <pt x="291" y="929" on="1"/>
        <pt x="315" y="929" on="0"/>
        <pt x="347" y="911" on="1"/>
        <pt x="380" y="894" on="0"/>
      </contour>
      <contour>
        <pt x="44" y="299" on="0"/>
        <pt x="44" y="433" on="0"/>
        <pt x="60" y="546" on="0"/>
        <pt x="87" y="625" on="0"/>
        <pt x="131" y="681" on="0"/>
        <pt x="177" y="713" on="0"/>
        <pt x="210" y="722" on="1"/>
        <pt x="263" y="737" on="0"/>
        <pt x="384" y="737" on="0"/>
        <pt x="443" y="731" on="0"/>
        <pt x="510" y="713" on="0"/>
        <pt x="555" y="681" on="0"/>
        <pt x="599" y="625" on="0"/>
        <pt x="612" y="586" on="1"/>
        <pt x="640" y="499" on="0"/>
        <pt x="640" y="361" on="1"/>
        <pt x="640" y="194" on="0"/>
        <pt x="593" y="104" on="1"/>
        <pt x="569" y="56" on="0"/>
        <pt x="516" y="26" on="1"/>
        <pt x="462" y="-4" on="0"/>
        <pt x="342" y="-4" on="1"/>
        <pt x="220" y="-4" on="0"/>
        <pt x="169" y="24" on="1"/>
        <pt x="114" y="53" on="0"/>
        <pt x="91" y="99" on="1"/>
        <pt x="58" y="163" on="0"/>
      </contour>
      <contour>
        <pt x="218" y="506" on="0"/>
        <pt x="208" y="424" on="0"/>
        <pt x="208" y="321" on="0"/>
        <pt x="211" y="264" on="0"/>
        <pt x="218" y="216" on="0"/>
        <pt x="232" y="185" on="0"/>
        <pt x="251" y="162" on="0"/>
        <pt x="266" y="156" on="1"/>
        <pt x="295" y="145" on="0"/>
        <pt x="383" y="145" on="0"/>
        <pt x="431" y="162" on="0"/>
        <pt x="464" y="211" on="0"/>
        <pt x="476" y="293" on="0"/>
        <pt x="476" y="423" on="0"/>
        <pt x="467" y="502" on="0"/>
        <pt x="450" y="554" on="0"/>
        <pt x="416" y="579" on="0"/>
        <pt x="376" y="588" on="0"/>
        <pt x="309" y="588" on="0"/>
        <pt x="271" y="581" on="0"/>
        <pt x="235" y="556" on="0"/>
      </contour>
    </TTGlyph>
    <TTGlyph name="P" xMin="48" yMin="0" xMax="581" yMax="732">
      <contour>
        <pt x="48" y="0" on="1"/>
        <pt x="48" y="732" on="1"/>
        <pt x="368" y="732" on="1"/>
        <pt x="483" y="732" on="0"/>
        <pt x="534" y="671" on="1"/>
        <pt x="581" y="615" on="0"/>
        <pt x="581" y="501" on="1"/>
        <pt x="581" y="436" on="0"/>
        <pt x="552" y="341" on="0"/>
        <pt x="511" y="291" on="0"/>
        <pt x="480" y="277" on="1"/>
        <pt x="440" y="260" on="0"/>
        <pt x="392" y="260" on="1"/>
        <pt x="357" y="260" on="0"/>
        <pt x="216" y="278" on="0"/>
        <pt x="212" y="280" on="1"/>
        <pt x="212" y="0" on="1"/>
      </contour>
      <contour>
        <pt x="212" y="402" on="1"/>
        <pt x="353" y="402" on="1"/>
        <pt x="385" y="402" on="0"/>
        <pt x="416" y="447" on="0"/>
        <pt x="416" y="499" on="1"/>
        <pt x="415" y="590" on="0"/>
        <pt x="353" y="590" on="1"/>
        <pt x="212" y="590" on="1"/>
      </contour>
    </TTGlyph>
    <TTGlyph name="Q" xMin="44" yMin="-195" xMax="640" yMax="737">
      <contour>
        <pt x="54" y="200" on="0"/>
        <pt x="44" y="299" on="0"/>
        <pt x="44" y="433" on="0"/>
        <pt x="60" y="546" on="0"/>
        <pt x="86" y="625" on="0"/>
        <pt x="130" y="681" on="0"/>
        <pt x="176" y="713" on="0"/>
        <pt x="209" y="722" on="1"/>
        <pt x="262" y="737" on="0"/>
        <pt x="383" y="737" on="0"/>
        <pt x="443" y="731" on="0"/>
        <pt x="509" y="713" on="0"/>
        <pt x="555" y="681" on="0"/>
        <pt x="599" y="625" on="0"/>
        <pt x="611" y="586" on="1"/>
        <pt x="640" y="499" on="0"/>
        <pt x="640" y="361" on="1"/>
        <pt x="640" y="161" on="0"/>
        <pt x="579" y="82" on="1"/>
        <pt x="539" y="30" on="0"/>
        <pt x="479" y="13" on="1"/>
        <pt x="398" y="-11" on="0"/>
        <pt x="277" y="-2" on="1"/>
        <pt x="205" y="4" on="0"/>
        <pt x="147" y="35" on="0"/>
        <pt x="104" y="72" on="0"/>
        <pt x="77" y="127" on="0"/>
      </contour>
      <contour>
        <pt x="218" y="506" on="0"/>
        <pt x="208" y="424" on="0"/>
        <pt x="208" y="304" on="0"/>
        <pt x="215" y="234" on="0"/>
        <pt x="230" y="182" on="0"/>
        <pt x="246" y="169" on="1"/>
        <pt x="276" y="145" on="0"/>
        <pt x="396" y="145" on="0"/>
        <pt x="451" y="179" on="0"/>
        <pt x="476" y="271" on="0"/>
        <pt x="476" y="412" on="0"/>
        <pt x="471" y="484" on="0"/>
        <pt x="457" y="535" on="0"/>
        <pt x="438" y="565" on="0"/>
        <pt x="422" y="574" on="1"/>
        <pt x="395" y="588" on="0"/>
        <pt x="308" y="588" on="0"/>
        <pt x="270" y="581" on="0"/>
        <pt x="234" y="556" on="0"/>
      </contour>
      <contour>
        <pt x="463" y="-75" on="1"/>
        <pt x="497" y="-75" on="0"/>
        <pt x="544" y="-64" on="1"/>
        <pt x="544" y="-189" on="1"/>
        <pt x="510" y="-194" on="0"/>
        <pt x="441" y="-194" on="0"/>
        <pt x="377" y="-172" on="0"/>
        <pt x="352" y="-154" on="1"/>
        <pt x="297" y="-114" on="0"/>
        <pt x="294" y="-33" on="1"/>
        <pt x="383" y="-33" on="1"/>
        <pt x="398" y="-75" on="0"/>
      </contour>
    </TTGlyph>
    <TTGlyph name="R" xMin="48" yMin="0" xMax="602" yMax="732">
      <contour>
        <pt x="48" y="0" on="1"/>
        <pt x="48" y="732" on="1"/>
        <pt x="371" y="732" on="1"/>
        <pt x="470" y="732" on="0"/>
        <pt x="582" y="626" on="0"/>
        <pt x="582" y="501" on="1"/>
        <pt x="582" y="394" on="0"/>
        <pt x="551" y="345" on="1"/>
        <pt x="532" y="315" on="0"/>
        <pt x="514" y="304" on="1"/>
        <pt x="493" y="292" on="0"/>
        <pt x="469" y="283" on="1"/>
        <pt x="602" y="0" on="1"/>
        <pt x="416" y="0" on="1"/>
        <pt x="307" y="269" on="1"/>
        <pt x="212" y="283" on="1"/>
        <pt x="212" y="0" on="1"/>
      </contour>
      <contour>
        <pt x="213" y="409" on="1"/>
        <pt x="352" y="409" on="1"/>
        <pt x="390" y="409" on="0"/>
        <pt x="416" y="447" on="0"/>
        <pt x="416" y="549" on="0"/>
        <pt x="386" y="590" on="0"/>
        <pt x="352" y="590" on="1"/>
        <pt x="213" y="590" on="1"/>
      </contour>
    </TTGlyph>
    <TTGlyph name="Racute" xMin="48" yMin="0" xMax="602" yMax="937">
      <contour>
        <pt x="260" y="796" on="1"/>
        <pt x="344" y="936" on="1"/>
        <pt x="477" y="936" on="1"/>
        <pt x="359" y="796" on="1"/>
      </contour>
      <contour>
        <pt x="48" y="0" on="1"/>
        <pt x="48" y="732" on="1"/>
        <pt x="371" y="732" on="1"/>
        <pt x="470" y="732" on="0"/>
        <pt x="582" y="626" on="0"/>
        <pt x="582" y="501" on="1"/>
        <pt x="582" y="394" on="0"/>
        <pt x="551" y="345" on="1"/>
        <pt x="532" y="315" on="0"/>
        <pt x="514" y="304" on="1"/>
        <pt x="493" y="292" on="0"/>
        <pt x="469" y="283" on="1"/>
        <pt x="602" y="0" on="1"/>
        <pt x="416" y="0" on="1"/>
        <pt x="307" y="269" on="1"/>
        <pt x="212" y="283" on="1"/>
        <pt x="212" y="0" on="1"/>
      </contour>
      <contour>
        <pt x="213" y="409" on="1"/>
        <pt x="352" y="409" on="1"/>
        <pt x="390" y="409" on="0"/>
        <pt x="416" y="447" on="0"/>
        <pt x="416" y="549" on="0"/>
        <pt x="386" y="590" on="0"/>
        <pt x="352" y="590" on="1"/>
        <pt x="213" y="590" on="1"/>
      </contour>
    </TTGlyph>
    <TTGlyph name="Rcaron" xMin="48" yMin="0" xMax="602" yMax="935">
      <contour>
        <pt x="154" y="934" on="1"/>
        <pt x="256" y="934" on="1"/>
        <pt x="312" y="878" on="1"/>
        <pt x="367" y="934" on="1"/>
        <pt x="469" y="934" on="1"/>
        <pt x="368" y="797" on="1"/>
        <pt x="252" y="797" on="1"/>
      </contour>
      <contour>
        <pt x="48" y="0" on="1"/>
        <pt x="48" y="732" on="1"/>
        <pt x="371" y="732" on="1"/>
        <pt x="470" y="732" on="0"/>
        <pt x="582" y="626" on="0"/>
        <pt x="582" y="501" on="1"/>
        <pt x="582" y="394" on="0"/>
        <pt x="551" y="345" on="1"/>
        <pt x="532" y="315" on="0"/>
        <pt x="514" y="304" on="1"/>
        <pt x="493" y="292" on="0"/>
        <pt x="469" y="283" on="1"/>
        <pt x="602" y="0" on="1"/>
        <pt x="416" y="0" on="1"/>
        <pt x="307" y="269" on="1"/>
        <pt x="212" y="283" on="1"/>
        <pt x="212" y="0" on="1"/>
      </contour>
      <contour>
        <pt x="213" y="409" on="1"/>
        <pt x="352" y="409" on="1"/>
        <pt x="390" y="409" on="0"/>
        <pt x="416" y="447" on="0"/>
        <pt x="416" y="549" on="0"/>
        <pt x="386" y="590" on="0"/>
        <pt x="352" y="590" on="1"/>
        <pt x="213" y="590" on="1"/>
      </contour>
    </TTGlyph>
    <TTGlyph name="Rcommaaccent" xMin="48" yMin="-289" xMax="602" yMax="732">
      <contour>
        <pt x="233" y="-181" on="1"/>
        <pt x="233" y="-92" on="1"/>
        <pt x="233" y="-67" on="0"/>
        <pt x="256" y="-67" on="1"/>
        <pt x="342" y="-67" on="1"/>
        <pt x="364" y="-67" on="0"/>
        <pt x="364" y="-92" on="1"/>
        <pt x="364" y="-213" on="1"/>
        <pt x="364" y="-243" on="0"/>
        <pt x="338" y="-278" on="0"/>
        <pt x="319" y="-283" on="1"/>
        <pt x="299" y="-288" on="0"/>
        <pt x="262" y="-288" on="0"/>
        <pt x="251" y="-286" on="1"/>
        <pt x="238" y="-282" on="1"/>
        <pt x="238" y="-233" on="1"/>
        <pt x="261" y="-234" on="0"/>
        <pt x="265" y="-222" on="1"/>
        <pt x="266" y="-219" on="0"/>
        <pt x="266" y="-212" on="1"/>
        <pt x="266" y="-203" on="1"/>
        <pt x="256" y="-203" on="1"/>
        <pt x="233" y="-203" on="0"/>
      </contour>
      <contour>
        <pt x="48" y="0" on="1"/>
        <pt x="48" y="732" on="1"/>
        <pt x="371" y="732" on="1"/>
        <pt x="470" y="732" on="0"/>
        <pt x="582" y="626" on="0"/>
        <pt x="582" y="501" on="1"/>
        <pt x="582" y="394" on="0"/>
        <pt x="551" y="345" on="1"/>
        <pt x="532" y="315" on="0"/>
        <pt x="514" y="304" on="1"/>
        <pt x="493" y="292" on="0"/>
        <pt x="469" y="283" on="1"/>
        <pt x="602" y="0" on="1"/>
        <pt x="416" y="0" on="1"/>
        <pt x="307" y="269" on="1"/>
        <pt x="212" y="283" on="1"/>
        <pt x="212" y="0" on="1"/>
      </contour>
      <contour>
        <pt x="213" y="409" on="1"/>
        <pt x="352" y="409" on="1"/>
        <pt x="390" y="409" on="0"/>
        <pt x="416" y="447" on="0"/>
        <pt x="416" y="549" on="0"/>
        <pt x="386" y="590" on="0"/>
        <pt x="352" y="590" on="1"/>
        <pt x="213" y="590" on="1"/>
      </contour>
    </TTGlyph>
    <TTGlyph name="S" xMin="44" yMin="-8" xMax="564" yMax="739">
      <contour>
        <pt x="44" y="483" on="1"/>
        <pt x="44" y="545" on="1"/>
        <pt x="44" y="734" on="0"/>
        <pt x="242" y="738" on="1"/>
        <pt x="263" y="739" on="0"/>
        <pt x="284" y="739" on="1"/>
        <pt x="442" y="739" on="0"/>
        <pt x="537" y="707" on="1"/>
        <pt x="537" y="579" on="1"/>
        <pt x="435" y="589" on="0"/>
        <pt x="292" y="589" on="0"/>
        <pt x="289" y="589" on="1"/>
        <pt x="244" y="589" on="0"/>
        <pt x="208" y="569" on="0"/>
        <pt x="208" y="530" on="1"/>
        <pt x="208" y="505" on="1"/>
        <pt x="208" y="471" on="0"/>
        <pt x="219" y="461" on="1"/>
        <pt x="237" y="445" on="0"/>
        <pt x="278" y="445" on="1"/>
        <pt x="384" y="445" on="1"/>
        <pt x="456" y="445" on="0"/>
        <pt x="497" y="410" on="1"/>
        <pt x="564" y="353" on="0"/>
        <pt x="564" y="243" on="1"/>
        <pt x="564" y="201" on="1"/>
        <pt x="564" y="60" on="0"/>
        <pt x="475" y="15" on="1"/>
        <pt x="428" y="-8" on="0"/>
        <pt x="361" y="-8" on="1"/>
        <pt x="243" y="-8" on="0"/>
        <pt x="130" y="4" on="0"/>
        <pt x="67" y="24" on="1"/>
        <pt x="67" y="152" on="1"/>
        <pt x="177" y="141" on="0"/>
        <pt x="324" y="141" on="1"/>
        <pt x="360" y="141" on="0"/>
        <pt x="400" y="163" on="0"/>
        <pt x="400" y="194" on="1"/>
        <pt x="400" y="223" on="1"/>
        <pt x="400" y="253" on="0"/>
        <pt x="374" y="281" on="0"/>
        <pt x="340" y="281" on="1"/>
        <pt x="237" y="281" on="1"/>
        <pt x="169" y="281" on="0"/>
        <pt x="130" y="305" on="1"/>
        <pt x="88" y="330" on="0"/>
        <pt x="72" y="361" on="1"/>
        <pt x="53" y="399" on="0"/>
        <pt x="49" y="422" on="1"/>
        <pt x="44" y="458" on="0"/>
      </contour>
    </TTGlyph>
    <TTGlyph name="Sacute" xMin="44" yMin="-8" xMax="564" yMax="940">
      <contour>
        <pt x="257" y="799" on="1"/>
        <pt x="342" y="939" on="1"/>
        <pt x="474" y="939" on="1"/>
        <pt x="356" y="799" on="1"/>
      </contour>
      <contour>
        <pt x="44" y="483" on="1"/>
        <pt x="44" y="545" on="1"/>
        <pt x="44" y="734" on="0"/>
        <pt x="242" y="738" on="1"/>
        <pt x="263" y="739" on="0"/>
        <pt x="284" y="739" on="1"/>
        <pt x="442" y="739" on="0"/>
        <pt x="537" y="707" on="1"/>
        <pt x="537" y="579" on="1"/>
        <pt x="435" y="589" on="0"/>
        <pt x="292" y="589" on="0"/>
        <pt x="289" y="589" on="1"/>
        <pt x="244" y="589" on="0"/>
        <pt x="208" y="569" on="0"/>
        <pt x="208" y="530" on="1"/>
        <pt x="208" y="505" on="1"/>
        <pt x="208" y="471" on="0"/>
        <pt x="219" y="461" on="1"/>
        <pt x="237" y="445" on="0"/>
        <pt x="278" y="445" on="1"/>
        <pt x="384" y="445" on="1"/>
        <pt x="456" y="445" on="0"/>
        <pt x="497" y="410" on="1"/>
        <pt x="564" y="353" on="0"/>
        <pt x="564" y="243" on="1"/>
        <pt x="564" y="201" on="1"/>
        <pt x="564" y="60" on="0"/>
        <pt x="475" y="15" on="1"/>
        <pt x="428" y="-8" on="0"/>
        <pt x="361" y="-8" on="1"/>
        <pt x="243" y="-8" on="0"/>
        <pt x="130" y="4" on="0"/>
        <pt x="67" y="24" on="1"/>
        <pt x="67" y="152" on="1"/>
        <pt x="177" y="141" on="0"/>
        <pt x="324" y="141" on="1"/>
        <pt x="360" y="141" on="0"/>
        <pt x="400" y="163" on="0"/>
        <pt x="400" y="194" on="1"/>
        <pt x="400" y="223" on="1"/>
        <pt x="400" y="253" on="0"/>
        <pt x="374" y="281" on="0"/>
        <pt x="340" y="281" on="1"/>
        <pt x="237" y="281" on="1"/>
        <pt x="169" y="281" on="0"/>
        <pt x="130" y="305" on="1"/>
        <pt x="88" y="330" on="0"/>
        <pt x="72" y="361" on="1"/>
        <pt x="53" y="399" on="0"/>
        <pt x="49" y="422" on="1"/>
        <pt x="44" y="458" on="0"/>
      </contour>
    </TTGlyph>
    <TTGlyph name="Scaron" xMin="44" yMin="-8" xMax="564" yMax="937">
      <contour>
        <pt x="154" y="936" on="1"/>
        <pt x="255" y="936" on="1"/>
        <pt x="312" y="880" on="1"/>
        <pt x="367" y="936" on="1"/>
        <pt x="469" y="936" on="1"/>
        <pt x="368" y="799" on="1"/>
        <pt x="252" y="799" on="1"/>
      </contour>
      <contour>
        <pt x="44" y="483" on="1"/>
        <pt x="44" y="545" on="1"/>
        <pt x="44" y="734" on="0"/>
        <pt x="242" y="738" on="1"/>
        <pt x="263" y="739" on="0"/>
        <pt x="284" y="739" on="1"/>
        <pt x="442" y="739" on="0"/>
        <pt x="537" y="707" on="1"/>
        <pt x="537" y="579" on="1"/>
        <pt x="435" y="589" on="0"/>
        <pt x="292" y="589" on="0"/>
        <pt x="289" y="589" on="1"/>
        <pt x="244" y="589" on="0"/>
        <pt x="208" y="569" on="0"/>
        <pt x="208" y="530" on="1"/>
        <pt x="208" y="505" on="1"/>
        <pt x="208" y="471" on="0"/>
        <pt x="219" y="461" on="1"/>
        <pt x="237" y="445" on="0"/>
        <pt x="278" y="445" on="1"/>
        <pt x="384" y="445" on="1"/>
        <pt x="456" y="445" on="0"/>
        <pt x="497" y="410" on="1"/>
        <pt x="564" y="353" on="0"/>
        <pt x="564" y="243" on="1"/>
        <pt x="564" y="201" on="1"/>
        <pt x="564" y="60" on="0"/>
        <pt x="475" y="15" on="1"/>
        <pt x="428" y="-8" on="0"/>
        <pt x="361" y="-8" on="1"/>
        <pt x="243" y="-8" on="0"/>
        <pt x="130" y="4" on="0"/>
        <pt x="67" y="24" on="1"/>
        <pt x="67" y="152" on="1"/>
        <pt x="177" y="141" on="0"/>
        <pt x="324" y="141" on="1"/>
        <pt x="360" y="141" on="0"/>
        <pt x="400" y="163" on="0"/>
        <pt x="400" y="194" on="1"/>
        <pt x="400" y="223" on="1"/>
        <pt x="400" y="253" on="0"/>
        <pt x="374" y="281" on="0"/>
        <pt x="340" y="281" on="1"/>
        <pt x="237" y="281" on="1"/>
        <pt x="169" y="281" on="0"/>
        <pt x="130" y="305" on="1"/>
        <pt x="88" y="330" on="0"/>
        <pt x="72" y="361" on="1"/>
        <pt x="53" y="399" on="0"/>
        <pt x="49" y="422" on="1"/>
        <pt x="44" y="458" on="0"/>
      </contour>
    </TTGlyph>
    <TTGlyph name="Scedilla" xMin="44" yMin="-187" xMax="564" yMax="739">
      <contour>
        <pt x="266" y="-44" on="1"/>
        <pt x="370" y="-44" on="1"/>
        <pt x="370" y="-122" on="0"/>
        <pt x="320" y="-187" on="0"/>
        <pt x="254" y="-187" on="1"/>
        <pt x="196" y="-187" on="1"/>
        <pt x="196" y="-118" on="1"/>
        <pt x="237" y="-104" on="1"/>
        <pt x="257" y="-95" on="0"/>
        <pt x="266" y="-74" on="0"/>
      </contour>
      <contour>
        <pt x="44" y="483" on="1"/>
        <pt x="44" y="545" on="1"/>
        <pt x="44" y="734" on="0"/>
        <pt x="242" y="738" on="1"/>
        <pt x="263" y="739" on="0"/>
        <pt x="284" y="739" on="1"/>
        <pt x="442" y="739" on="0"/>
        <pt x="537" y="707" on="1"/>
        <pt x="537" y="579" on="1"/>
        <pt x="435" y="589" on="0"/>
        <pt x="292" y="589" on="0"/>
        <pt x="289" y="589" on="1"/>
        <pt x="244" y="589" on="0"/>
        <pt x="208" y="569" on="0"/>
        <pt x="208" y="530" on="1"/>
        <pt x="208" y="505" on="1"/>
        <pt x="208" y="471" on="0"/>
        <pt x="219" y="461" on="1"/>
        <pt x="237" y="445" on="0"/>
        <pt x="278" y="445" on="1"/>
        <pt x="384" y="445" on="1"/>
        <pt x="456" y="445" on="0"/>
        <pt x="497" y="410" on="1"/>
        <pt x="564" y="353" on="0"/>
        <pt x="564" y="243" on="1"/>
        <pt x="564" y="201" on="1"/>
        <pt x="564" y="60" on="0"/>
        <pt x="475" y="15" on="1"/>
        <pt x="428" y="-8" on="0"/>
        <pt x="361" y="-8" on="1"/>
        <pt x="243" y="-8" on="0"/>
        <pt x="130" y="4" on="0"/>
        <pt x="67" y="24" on="1"/>
        <pt x="67" y="152" on="1"/>
        <pt x="177" y="141" on="0"/>
        <pt x="324" y="141" on="1"/>
        <pt x="360" y="141" on="0"/>
        <pt x="400" y="163" on="0"/>
        <pt x="400" y="194" on="1"/>
        <pt x="400" y="223" on="1"/>
        <pt x="400" y="253" on="0"/>
        <pt x="374" y="281" on="0"/>
        <pt x="340" y="281" on="1"/>
        <pt x="237" y="281" on="1"/>
        <pt x="169" y="281" on="0"/>
        <pt x="130" y="305" on="1"/>
        <pt x="88" y="330" on="0"/>
        <pt x="72" y="361" on="1"/>
        <pt x="53" y="399" on="0"/>
        <pt x="49" y="422" on="1"/>
        <pt x="44" y="458" on="0"/>
      </contour>
    </TTGlyph>
    <TTGlyph name="Scircumflex" xMin="44" yMin="-8" xMax="564" yMax="937">
      <contour>
        <pt x="151" y="799" on="1"/>
        <pt x="255" y="936" on="1"/>
        <pt x="371" y="936" on="1"/>
        <pt x="465" y="799" on="1"/>
        <pt x="364" y="799" on="1"/>
        <pt x="310" y="855" on="1"/>
        <pt x="253" y="799" on="1"/>
      </contour>
      <contour>
        <pt x="44" y="483" on="1"/>
        <pt x="44" y="545" on="1"/>
        <pt x="44" y="734" on="0"/>
        <pt x="242" y="738" on="1"/>
        <pt x="263" y="739" on="0"/>
        <pt x="284" y="739" on="1"/>
        <pt x="442" y="739" on="0"/>
        <pt x="537" y="707" on="1"/>
        <pt x="537" y="579" on="1"/>
        <pt x="435" y="589" on="0"/>
        <pt x="292" y="589" on="0"/>
        <pt x="289" y="589" on="1"/>
        <pt x="244" y="589" on="0"/>
        <pt x="208" y="569" on="0"/>
        <pt x="208" y="530" on="1"/>
        <pt x="208" y="505" on="1"/>
        <pt x="208" y="471" on="0"/>
        <pt x="219" y="461" on="1"/>
        <pt x="237" y="445" on="0"/>
        <pt x="278" y="445" on="1"/>
        <pt x="384" y="445" on="1"/>
        <pt x="456" y="445" on="0"/>
        <pt x="497" y="410" on="1"/>
        <pt x="564" y="353" on="0"/>
        <pt x="564" y="243" on="1"/>
        <pt x="564" y="201" on="1"/>
        <pt x="564" y="60" on="0"/>
        <pt x="475" y="15" on="1"/>
        <pt x="428" y="-8" on="0"/>
        <pt x="361" y="-8" on="1"/>
        <pt x="243" y="-8" on="0"/>
        <pt x="130" y="4" on="0"/>
        <pt x="67" y="24" on="1"/>
        <pt x="67" y="152" on="1"/>
        <pt x="177" y="141" on="0"/>
        <pt x="324" y="141" on="1"/>
        <pt x="360" y="141" on="0"/>
        <pt x="400" y="163" on="0"/>
        <pt x="400" y="194" on="1"/>
        <pt x="400" y="223" on="1"/>
        <pt x="400" y="253" on="0"/>
        <pt x="374" y="281" on="0"/>
        <pt x="340" y="281" on="1"/>
        <pt x="237" y="281" on="1"/>
        <pt x="169" y="281" on="0"/>
        <pt x="130" y="305" on="1"/>
        <pt x="88" y="330" on="0"/>
        <pt x="72" y="361" on="1"/>
        <pt x="53" y="399" on="0"/>
        <pt x="49" y="422" on="1"/>
        <pt x="44" y="458" on="0"/>
      </contour>
    </TTGlyph>
    <TTGlyph name="T" xMin="26" yMin="0" xMax="580" yMax="732">
      <contour>
        <pt x="26" y="583" on="1"/>
        <pt x="26" y="732" on="1"/>
        <pt x="579" y="732" on="1"/>
        <pt x="579" y="583" on="1"/>
        <pt x="382" y="583" on="1"/>
        <pt x="382" y="0" on="1"/>
        <pt x="218" y="0" on="1"/>
        <pt x="218" y="583" on="1"/>
      </contour>
    </TTGlyph>
    <TTGlyph name="Tbar" xMin="17" yMin="0" xMax="570" yMax="732">
      <contour>
        <pt x="17" y="583" on="1"/>
        <pt x="17" y="732" on="1"/>
        <pt x="570" y="732" on="1"/>
        <pt x="570" y="583" on="1"/>
        <pt x="372" y="583" on="1"/>
        <pt x="372" y="429" on="1"/>
        <pt x="462" y="429" on="1"/>
        <pt x="462" y="360" on="1"/>
        <pt x="372" y="360" on="1"/>
        <pt x="372" y="0" on="1"/>
        <pt x="208" y="0" on="1"/>
        <pt x="208" y="360" on="1"/>
        <pt x="118" y="360" on="1"/>
        <pt x="118" y="429" on="1"/>
        <pt x="208" y="429" on="1"/>
        <pt x="208" y="583" on="1"/>
      </contour>
    </TTGlyph>
    <TTGlyph name="Tcaron" xMin="26" yMin="0" xMax="580" yMax="935">
      <contour>
        <pt x="143" y="934" on="1"/>
        <pt x="244" y="934" on="1"/>
        <pt x="301" y="878" on="1"/>
        <pt x="356" y="934" on="1"/>
        <pt x="458" y="934" on="1"/>
        <pt x="356" y="797" on="1"/>
        <pt x="240" y="797" on="1"/>
      </contour>
      <contour>
        <pt x="26" y="583" on="1"/>
        <pt x="26" y="732" on="1"/>
        <pt x="579" y="732" on="1"/>
        <pt x="579" y="583" on="1"/>
        <pt x="382" y="583" on="1"/>
        <pt x="382" y="0" on="1"/>
        <pt x="218" y="0" on="1"/>
        <pt x="218" y="583" on="1"/>
      </contour>
    </TTGlyph>
    <TTGlyph name="Tcommaaccent" xMin="26" yMin="-184" xMax="580" yMax="732">
      <contour>
        <pt x="135" y="-40" on="1"/>
        <pt x="240" y="-40" on="1"/>
        <pt x="240" y="-118" on="0"/>
        <pt x="189" y="-184" on="0"/>
        <pt x="124" y="-184" on="1"/>
        <pt x="65" y="-184" on="1"/>
        <pt x="65" y="-115" on="1"/>
        <pt x="106" y="-100" on="1"/>
        <pt x="126" y="-91" on="0"/>
        <pt x="135" y="-70" on="0"/>
      </contour>
      <contour>
        <pt x="26" y="583" on="1"/>
        <pt x="26" y="732" on="1"/>
        <pt x="579" y="732" on="1"/>
        <pt x="579" y="583" on="1"/>
        <pt x="382" y="583" on="1"/>
        <pt x="382" y="0" on="1"/>
        <pt x="218" y="0" on="1"/>
        <pt x="218" y="583" on="1"/>
      </contour>
    </TTGlyph>
    <TTGlyph name="Thorn" xMin="40" yMin="0" xMax="510" yMax="729">
      <contour>
        <pt x="316" y="148" on="0"/>
        <pt x="263" y="148" on="0"/>
        <pt x="204" y="168" on="1"/>
        <pt x="204" y="0" on="1"/>
        <pt x="40" y="0" on="1"/>
        <pt x="40" y="729" on="1"/>
        <pt x="204" y="729" on="1"/>
        <pt x="204" y="588" on="1"/>
        <pt x="334" y="588" on="1"/>
        <pt x="510" y="587" on="0"/>
        <pt x="510" y="375" on="1"/>
        <pt x="510" y="216" on="0"/>
        <pt x="428" y="171" on="1"/>
        <pt x="391" y="151" on="0"/>
      </contour>
      <contour>
        <pt x="204" y="290" on="1"/>
        <pt x="274" y="290" on="1"/>
        <pt x="275" y="290" on="0"/>
        <pt x="275" y="290" on="1"/>
        <pt x="316" y="290" on="0"/>
        <pt x="345" y="320" on="0"/>
        <pt x="345" y="399" on="0"/>
        <pt x="335" y="430" on="0"/>
        <pt x="323" y="437" on="1"/>
        <pt x="306" y="446" on="0"/>
        <pt x="274" y="446" on="1"/>
        <pt x="204" y="446" on="1"/>
      </contour>
    </TTGlyph>
    <TTGlyph name="U" xMin="53" yMin="-6" xMax="621" yMax="732">
      <contour>
        <pt x="340" y="-5" on="1"/>
        <pt x="325" y="-5" on="1"/>
        <pt x="232" y="-5" on="0"/>
        <pt x="184" y="12" on="0"/>
        <pt x="138" y="34" on="0"/>
        <pt x="112" y="66" on="0"/>
        <pt x="81" y="116" on="0"/>
        <pt x="73" y="148" on="1"/>
        <pt x="54" y="224" on="0"/>
        <pt x="54" y="320" on="1"/>
        <pt x="54" y="732" on="1"/>
        <pt x="218" y="732" on="1"/>
        <pt x="218" y="320" on="1"/>
        <pt x="218" y="267" on="0"/>
        <pt x="227" y="203" on="0"/>
        <pt x="255" y="160" on="0"/>
        <pt x="301" y="144" on="0"/>
        <pt x="340" y="144" on="1"/>
        <pt x="407" y="144" on="0"/>
        <pt x="456" y="221" on="0"/>
        <pt x="456" y="320" on="1"/>
        <pt x="456" y="732" on="1"/>
        <pt x="621" y="732" on="1"/>
        <pt x="621" y="320" on="1"/>
        <pt x="621" y="125" on="0"/>
        <pt x="548" y="57" on="1"/>
        <pt x="522" y="33" on="0"/>
        <pt x="481" y="9" on="0"/>
        <pt x="448" y="3" on="1"/>
        <pt x="404" y="-5" on="0"/>
      </contour>
    </TTGlyph>
    <TTGlyph name="Uacute" xMin="53" yMin="-6" xMax="621" yMax="938">
      <contour>
        <pt x="288" y="797" on="1"/>
        <pt x="372" y="938" on="1"/>
        <pt x="505" y="938" on="1"/>
        <pt x="387" y="797" on="1"/>
      </contour>
      <contour>
        <pt x="340" y="-5" on="1"/>
        <pt x="325" y="-5" on="1"/>
        <pt x="232" y="-5" on="0"/>
        <pt x="184" y="12" on="0"/>
        <pt x="138" y="34" on="0"/>
        <pt x="112" y="66" on="0"/>
        <pt x="81" y="116" on="0"/>
        <pt x="73" y="148" on="1"/>
        <pt x="54" y="224" on="0"/>
        <pt x="54" y="320" on="1"/>
        <pt x="54" y="732" on="1"/>
        <pt x="218" y="732" on="1"/>
        <pt x="218" y="320" on="1"/>
        <pt x="218" y="267" on="0"/>
        <pt x="227" y="203" on="0"/>
        <pt x="255" y="160" on="0"/>
        <pt x="301" y="144" on="0"/>
        <pt x="340" y="144" on="1"/>
        <pt x="407" y="144" on="0"/>
        <pt x="456" y="221" on="0"/>
        <pt x="456" y="320" on="1"/>
        <pt x="456" y="732" on="1"/>
        <pt x="621" y="732" on="1"/>
        <pt x="621" y="320" on="1"/>
        <pt x="621" y="125" on="0"/>
        <pt x="548" y="57" on="1"/>
        <pt x="522" y="33" on="0"/>
        <pt x="481" y="9" on="0"/>
        <pt x="448" y="3" on="1"/>
        <pt x="404" y="-5" on="0"/>
      </contour>
    </TTGlyph>
    <TTGlyph name="Ubreve" xMin="53" yMin="-6" xMax="621" yMax="911">
      <contour>
        <pt x="222" y="911" on="1"/>
        <pt x="284" y="911" on="1"/>
        <pt x="284" y="887" on="0"/>
        <pt x="312" y="859" on="0"/>
        <pt x="336" y="859" on="1"/>
        <pt x="390" y="859" on="0"/>
        <pt x="390" y="911" on="1"/>
        <pt x="452" y="911" on="1"/>
        <pt x="452" y="877" on="0"/>
        <pt x="437" y="851" on="1"/>
        <pt x="406" y="797" on="0"/>
        <pt x="336" y="797" on="1"/>
        <pt x="286" y="797" on="0"/>
        <pt x="222" y="860" on="0"/>
      </contour>
      <contour>
        <pt x="340" y="-5" on="1"/>
        <pt x="325" y="-5" on="1"/>
        <pt x="232" y="-5" on="0"/>
        <pt x="184" y="12" on="0"/>
        <pt x="138" y="34" on="0"/>
        <pt x="112" y="66" on="0"/>
        <pt x="81" y="116" on="0"/>
        <pt x="73" y="148" on="1"/>
        <pt x="54" y="224" on="0"/>
        <pt x="54" y="320" on="1"/>
        <pt x="54" y="732" on="1"/>
        <pt x="218" y="732" on="1"/>
        <pt x="218" y="320" on="1"/>
        <pt x="218" y="267" on="0"/>
        <pt x="227" y="203" on="0"/>
        <pt x="255" y="160" on="0"/>
        <pt x="301" y="144" on="0"/>
        <pt x="340" y="144" on="1"/>
        <pt x="407" y="144" on="0"/>
        <pt x="456" y="221" on="0"/>
        <pt x="456" y="320" on="1"/>
        <pt x="456" y="732" on="1"/>
        <pt x="621" y="732" on="1"/>
        <pt x="621" y="320" on="1"/>
        <pt x="621" y="125" on="0"/>
        <pt x="548" y="57" on="1"/>
        <pt x="522" y="33" on="0"/>
        <pt x="481" y="9" on="0"/>
        <pt x="448" y="3" on="1"/>
        <pt x="404" y="-5" on="0"/>
      </contour>
    </TTGlyph>
    <TTGlyph name="Ucircumflex" xMin="53" yMin="-6" xMax="621" yMax="935">
      <contour>
        <pt x="180" y="797" on="1"/>
        <pt x="284" y="934" on="1"/>
        <pt x="400" y="934" on="1"/>
        <pt x="494" y="797" on="1"/>
        <pt x="394" y="797" on="1"/>
        <pt x="339" y="853" on="1"/>
        <pt x="282" y="797" on="1"/>
      </contour>
      <contour>
        <pt x="340" y="-5" on="1"/>
        <pt x="325" y="-5" on="1"/>
        <pt x="232" y="-5" on="0"/>
        <pt x="184" y="12" on="0"/>
        <pt x="138" y="34" on="0"/>
        <pt x="112" y="66" on="0"/>
        <pt x="81" y="116" on="0"/>
        <pt x="73" y="148" on="1"/>
        <pt x="54" y="224" on="0"/>
        <pt x="54" y="320" on="1"/>
        <pt x="54" y="732" on="1"/>
        <pt x="218" y="732" on="1"/>
        <pt x="218" y="320" on="1"/>
        <pt x="218" y="267" on="0"/>
        <pt x="227" y="203" on="0"/>
        <pt x="255" y="160" on="0"/>
        <pt x="301" y="144" on="0"/>
        <pt x="340" y="144" on="1"/>
        <pt x="407" y="144" on="0"/>
        <pt x="456" y="221" on="0"/>
        <pt x="456" y="320" on="1"/>
        <pt x="456" y="732" on="1"/>
        <pt x="621" y="732" on="1"/>
        <pt x="621" y="320" on="1"/>
        <pt x="621" y="125" on="0"/>
        <pt x="548" y="57" on="1"/>
        <pt x="522" y="33" on="0"/>
        <pt x="481" y="9" on="0"/>
        <pt x="448" y="3" on="1"/>
        <pt x="404" y="-5" on="0"/>
      </contour>
    </TTGlyph>
    <TTGlyph name="Udieresis" xMin="53" yMin="-6" xMax="621" yMax="921">
      <contour>
        <pt x="185" y="797" on="0"/>
        <pt x="148" y="834" on="0"/>
        <pt x="148" y="876" on="0"/>
        <pt x="156" y="890" on="1"/>
        <pt x="175" y="920" on="0"/>
        <pt x="236" y="920" on="0"/>
        <pt x="272" y="885" on="0"/>
        <pt x="272" y="834" on="0"/>
        <pt x="236" y="797" on="0"/>
      </contour>
      <contour>
        <pt x="403" y="834" on="0"/>
        <pt x="403" y="885" on="0"/>
        <pt x="440" y="920" on="0"/>
        <pt x="491" y="920" on="0"/>
        <pt x="526" y="885" on="0"/>
        <pt x="526" y="834" on="0"/>
        <pt x="491" y="797" on="0"/>
        <pt x="440" y="797" on="0"/>
      </contour>
      <contour>
        <pt x="340" y="-5" on="1"/>
        <pt x="325" y="-5" on="1"/>
        <pt x="232" y="-5" on="0"/>
        <pt x="184" y="12" on="0"/>
        <pt x="138" y="34" on="0"/>
        <pt x="112" y="66" on="0"/>
        <pt x="81" y="116" on="0"/>
        <pt x="73" y="148" on="1"/>
        <pt x="54" y="224" on="0"/>
        <pt x="54" y="320" on="1"/>
        <pt x="54" y="732" on="1"/>
        <pt x="218" y="732" on="1"/>
        <pt x="218" y="320" on="1"/>
        <pt x="218" y="267" on="0"/>
        <pt x="227" y="203" on="0"/>
        <pt x="255" y="160" on="0"/>
        <pt x="301" y="144" on="0"/>
        <pt x="340" y="144" on="1"/>
        <pt x="407" y="144" on="0"/>
        <pt x="456" y="221" on="0"/>
        <pt x="456" y="320" on="1"/>
        <pt x="456" y="732" on="1"/>
        <pt x="621" y="732" on="1"/>
        <pt x="621" y="320" on="1"/>
        <pt x="621" y="125" on="0"/>
        <pt x="548" y="57" on="1"/>
        <pt x="522" y="33" on="0"/>
        <pt x="481" y="9" on="0"/>
        <pt x="448" y="3" on="1"/>
        <pt x="404" y="-5" on="0"/>
      </contour>
    </TTGlyph>
    <TTGlyph name="Ugrave" xMin="53" yMin="-6" xMax="621" yMax="938">
      <contour>
        <pt x="170" y="938" on="1"/>
        <pt x="302" y="938" on="1"/>
        <pt x="387" y="797" on="1"/>
        <pt x="288" y="797" on="1"/>
      </contour>
      <contour>
        <pt x="340" y="-5" on="1"/>
        <pt x="325" y="-5" on="1"/>
        <pt x="232" y="-5" on="0"/>
        <pt x="184" y="12" on="0"/>
        <pt x="138" y="34" on="0"/>
        <pt x="112" y="66" on="0"/>
        <pt x="81" y="116" on="0"/>
        <pt x="73" y="148" on="1"/>
        <pt x="54" y="224" on="0"/>
        <pt x="54" y="320" on="1"/>
        <pt x="54" y="732" on="1"/>
        <pt x="218" y="732" on="1"/>
        <pt x="218" y="320" on="1"/>
        <pt x="218" y="267" on="0"/>
        <pt x="227" y="203" on="0"/>
        <pt x="255" y="160" on="0"/>
        <pt x="301" y="144" on="0"/>
        <pt x="340" y="144" on="1"/>
        <pt x="407" y="144" on="0"/>
        <pt x="456" y="221" on="0"/>
        <pt x="456" y="320" on="1"/>
        <pt x="456" y="732" on="1"/>
        <pt x="621" y="732" on="1"/>
        <pt x="621" y="320" on="1"/>
        <pt x="621" y="125" on="0"/>
        <pt x="548" y="57" on="1"/>
        <pt x="522" y="33" on="0"/>
        <pt x="481" y="9" on="0"/>
        <pt x="448" y="3" on="1"/>
        <pt x="404" y="-5" on="0"/>
      </contour>
    </TTGlyph>
    <TTGlyph name="Uhungarumlaut" xMin="53" yMin="-6" xMax="621" yMax="938">
      <contour>
        <pt x="206" y="797" on="1"/>
        <pt x="290" y="938" on="1"/>
        <pt x="423" y="938" on="1"/>
        <pt x="305" y="797" on="1"/>
      </contour>
      <contour>
        <pt x="370" y="797" on="1"/>
        <pt x="454" y="938" on="1"/>
        <pt x="586" y="938" on="1"/>
        <pt x="468" y="797" on="1"/>
      </contour>
      <contour>
        <pt x="340" y="-5" on="1"/>
        <pt x="325" y="-5" on="1"/>
        <pt x="232" y="-5" on="0"/>
        <pt x="184" y="12" on="0"/>
        <pt x="138" y="34" on="0"/>
        <pt x="112" y="66" on="0"/>
        <pt x="81" y="116" on="0"/>
        <pt x="73" y="148" on="1"/>
        <pt x="54" y="224" on="0"/>
        <pt x="54" y="320" on="1"/>
        <pt x="54" y="732" on="1"/>
        <pt x="218" y="732" on="1"/>
        <pt x="218" y="320" on="1"/>
        <pt x="218" y="267" on="0"/>
        <pt x="227" y="203" on="0"/>
        <pt x="255" y="160" on="0"/>
        <pt x="301" y="144" on="0"/>
        <pt x="340" y="144" on="1"/>
        <pt x="407" y="144" on="0"/>
        <pt x="456" y="221" on="0"/>
        <pt x="456" y="320" on="1"/>
        <pt x="456" y="732" on="1"/>
        <pt x="621" y="732" on="1"/>
        <pt x="621" y="320" on="1"/>
        <pt x="621" y="125" on="0"/>
        <pt x="548" y="57" on="1"/>
        <pt x="522" y="33" on="0"/>
        <pt x="481" y="9" on="0"/>
        <pt x="448" y="3" on="1"/>
        <pt x="404" y="-5" on="0"/>
      </contour>
    </TTGlyph>
    <TTGlyph name="Umacron" xMin="53" yMin="-6" xMax="621" yMax="883">
      <contour>
        <pt x="191" y="797" on="1"/>
        <pt x="191" y="882" on="1"/>
        <pt x="483" y="882" on="1"/>
        <pt x="483" y="797" on="1"/>
      </contour>
      <contour>
        <pt x="340" y="-5" on="1"/>
        <pt x="325" y="-5" on="1"/>
        <pt x="232" y="-5" on="0"/>
        <pt x="184" y="12" on="0"/>
        <pt x="138" y="34" on="0"/>
        <pt x="112" y="66" on="0"/>
        <pt x="81" y="116" on="0"/>
        <pt x="73" y="148" on="1"/>
        <pt x="54" y="224" on="0"/>
        <pt x="54" y="320" on="1"/>
        <pt x="54" y="732" on="1"/>
        <pt x="218" y="732" on="1"/>
        <pt x="218" y="320" on="1"/>
        <pt x="218" y="267" on="0"/>
        <pt x="227" y="203" on="0"/>
        <pt x="255" y="160" on="0"/>
        <pt x="301" y="144" on="0"/>
        <pt x="340" y="144" on="1"/>
        <pt x="407" y="144" on="0"/>
        <pt x="456" y="221" on="0"/>
        <pt x="456" y="320" on="1"/>
        <pt x="456" y="732" on="1"/>
        <pt x="621" y="732" on="1"/>
        <pt x="621" y="320" on="1"/>
        <pt x="621" y="125" on="0"/>
        <pt x="548" y="57" on="1"/>
        <pt x="522" y="33" on="0"/>
        <pt x="481" y="9" on="0"/>
        <pt x="448" y="3" on="1"/>
        <pt x="404" y="-5" on="0"/>
      </contour>
    </TTGlyph>
    <TTGlyph name="Uogonek" xMin="53" yMin="-194" xMax="621" yMax="732">
      <contour>
        <pt x="371" y="-1" on="1"/>
        <pt x="327" y="-33" on="0"/>
        <pt x="327" y="-92" on="0"/>
        <pt x="355" y="-103" on="1"/>
        <pt x="368" y="-108" on="0"/>
        <pt x="382" y="-107" on="1"/>
        <pt x="382" y="-190" on="1"/>
        <pt x="367" y="-193" on="0"/>
        <pt x="345" y="-193" on="0"/>
        <pt x="315" y="-190" on="0"/>
        <pt x="298" y="-178" on="1"/>
        <pt x="244" y="-142" on="0"/>
        <pt x="244" y="-36" on="0"/>
        <pt x="310" y="-1" on="1"/>
      </contour>
      <contour>
        <pt x="340" y="-5" on="1"/>
        <pt x="325" y="-5" on="1"/>
        <pt x="232" y="-5" on="0"/>
        <pt x="184" y="12" on="0"/>
        <pt x="138" y="34" on="0"/>
        <pt x="112" y="66" on="0"/>
        <pt x="81" y="116" on="0"/>
        <pt x="73" y="148" on="1"/>
        <pt x="54" y="224" on="0"/>
        <pt x="54" y="320" on="1"/>
        <pt x="54" y="732" on="1"/>
        <pt x="218" y="732" on="1"/>
        <pt x="218" y="320" on="1"/>
        <pt x="218" y="267" on="0"/>
        <pt x="227" y="203" on="0"/>
        <pt x="255" y="160" on="0"/>
        <pt x="301" y="144" on="0"/>
        <pt x="340" y="144" on="1"/>
        <pt x="407" y="144" on="0"/>
        <pt x="456" y="221" on="0"/>
        <pt x="456" y="320" on="1"/>
        <pt x="456" y="732" on="1"/>
        <pt x="621" y="732" on="1"/>
        <pt x="621" y="320" on="1"/>
        <pt x="621" y="125" on="0"/>
        <pt x="548" y="57" on="1"/>
        <pt x="522" y="33" on="0"/>
        <pt x="481" y="9" on="0"/>
        <pt x="448" y="3" on="1"/>
        <pt x="404" y="-5" on="0"/>
      </contour>
    </TTGlyph>
    <TTGlyph name="Uring" xMin="53" yMin="-6" xMax="621" yMax="1002">
      <contour>
        <pt x="236" y="871" on="0"/>
        <pt x="236" y="927" on="0"/>
        <pt x="263" y="974" on="0"/>
        <pt x="310" y="1002" on="0"/>
        <pt x="380" y="1002" on="0"/>
        <pt x="439" y="942" on="0"/>
        <pt x="439" y="871" on="0"/>
        <pt x="412" y="824" on="0"/>
        <pt x="365" y="797" on="0"/>
        <pt x="310" y="797" on="0"/>
        <pt x="263" y="824" on="0"/>
      </contour>
      <contour>
        <pt x="321" y="938" on="0"/>
        <pt x="298" y="915" on="0"/>
        <pt x="298" y="888" on="0"/>
        <pt x="304" y="880" on="1"/>
        <pt x="315" y="861" on="0"/>
        <pt x="354" y="861" on="0"/>
        <pt x="376" y="883" on="0"/>
        <pt x="376" y="915" on="0"/>
        <pt x="354" y="938" on="0"/>
      </contour>
      <contour>
        <pt x="340" y="-5" on="1"/>
        <pt x="325" y="-5" on="1"/>
        <pt x="232" y="-5" on="0"/>
        <pt x="184" y="12" on="0"/>
        <pt x="138" y="34" on="0"/>
        <pt x="112" y="66" on="0"/>
        <pt x="81" y="116" on="0"/>
        <pt x="73" y="148" on="1"/>
        <pt x="54" y="224" on="0"/>
        <pt x="54" y="320" on="1"/>
        <pt x="54" y="732" on="1"/>
        <pt x="218" y="732" on="1"/>
        <pt x="218" y="320" on="1"/>
        <pt x="218" y="267" on="0"/>
        <pt x="227" y="203" on="0"/>
        <pt x="255" y="160" on="0"/>
        <pt x="301" y="144" on="0"/>
        <pt x="340" y="144" on="1"/>
        <pt x="407" y="144" on="0"/>
        <pt x="456" y="221" on="0"/>
        <pt x="456" y="320" on="1"/>
        <pt x="456" y="732" on="1"/>
        <pt x="621" y="732" on="1"/>
        <pt x="621" y="320" on="1"/>
        <pt x="621" y="125" on="0"/>
        <pt x="548" y="57" on="1"/>
        <pt x="522" y="33" on="0"/>
        <pt x="481" y="9" on="0"/>
        <pt x="448" y="3" on="1"/>
        <pt x="404" y="-5" on="0"/>
      </contour>
    </TTGlyph>
    <TTGlyph name="Utilde" xMin="53" yMin="-6" xMax="621" yMax="932">
      <contour>
        <pt x="397" y="893" on="1"/>
        <pt x="440" y="893" on="0"/>
        <pt x="485" y="932" on="1"/>
        <pt x="510" y="866" on="1"/>
        <pt x="454" y="796" on="0"/>
        <pt x="398" y="796" on="1"/>
        <pt x="374" y="796" on="0"/>
        <pt x="302" y="831" on="0"/>
        <pt x="256" y="831" on="0"/>
        <pt x="219" y="815" on="0"/>
        <pt x="190" y="796" on="1"/>
        <pt x="164" y="856" on="1"/>
        <pt x="223" y="928" on="0"/>
        <pt x="286" y="928" on="1"/>
        <pt x="310" y="927" on="0"/>
        <pt x="342" y="910" on="1"/>
        <pt x="375" y="893" on="0"/>
      </contour>
      <contour>
        <pt x="340" y="-5" on="1"/>
        <pt x="325" y="-5" on="1"/>
        <pt x="232" y="-5" on="0"/>
        <pt x="184" y="12" on="0"/>
        <pt x="138" y="34" on="0"/>
        <pt x="112" y="66" on="0"/>
        <pt x="81" y="116" on="0"/>
        <pt x="73" y="148" on="1"/>
        <pt x="54" y="224" on="0"/>
        <pt x="54" y="320" on="1"/>
        <pt x="54" y="732" on="1"/>
        <pt x="218" y="732" on="1"/>
        <pt x="218" y="320" on="1"/>
        <pt x="218" y="267" on="0"/>
        <pt x="227" y="203" on="0"/>
        <pt x="255" y="160" on="0"/>
        <pt x="301" y="144" on="0"/>
        <pt x="340" y="144" on="1"/>
        <pt x="407" y="144" on="0"/>
        <pt x="456" y="221" on="0"/>
        <pt x="456" y="320" on="1"/>
        <pt x="456" y="732" on="1"/>
        <pt x="621" y="732" on="1"/>
        <pt x="621" y="320" on="1"/>
        <pt x="621" y="125" on="0"/>
        <pt x="548" y="57" on="1"/>
        <pt x="522" y="33" on="0"/>
        <pt x="481" y="9" on="0"/>
        <pt x="448" y="3" on="1"/>
        <pt x="404" y="-5" on="0"/>
      </contour>
    </TTGlyph>
    <TTGlyph name="V" xMin="30" yMin="0" xMax="675" yMax="732">
      <contour>
        <pt x="30" y="732" on="1"/>
        <pt x="203" y="732" on="1"/>
        <pt x="348" y="208" on="1"/>
        <pt x="502" y="732" on="1"/>
        <pt x="675" y="732" on="1"/>
        <pt x="444" y="0" on="1"/>
        <pt x="250" y="0" on="1"/>
      </contour>
    </TTGlyph>
    <TTGlyph name="W" xMin="30" yMin="0" xMax="988" yMax="732">
      <contour>
        <pt x="30" y="732" on="1"/>
        <pt x="203" y="732" on="1"/>
        <pt x="347" y="211" on="1"/>
        <pt x="461" y="732" on="1"/>
        <pt x="635" y="732" on="1"/>
        <pt x="590" y="560" on="1"/>
        <pt x="700" y="209" on="1"/>
        <pt x="815" y="732" on="1"/>
        <pt x="988" y="732" on="1"/>
        <pt x="796" y="0" on="1"/>
        <pt x="602" y="0" on="1"/>
        <pt x="518" y="273" on="1"/>
        <pt x="444" y="0" on="1"/>
        <pt x="250" y="0" on="1"/>
      </contour>
    </TTGlyph>
    <TTGlyph name="Wacute" xMin="30" yMin="0" xMax="988" yMax="937">
      <contour>
        <pt x="462" y="796" on="1"/>
        <pt x="547" y="936" on="1"/>
        <pt x="679" y="936" on="1"/>
        <pt x="561" y="796" on="1"/>
      </contour>
      <contour>
        <pt x="30" y="732" on="1"/>
        <pt x="203" y="732" on="1"/>
        <pt x="347" y="211" on="1"/>
        <pt x="461" y="732" on="1"/>
        <pt x="635" y="732" on="1"/>
        <pt x="590" y="560" on="1"/>
        <pt x="700" y="209" on="1"/>
        <pt x="815" y="732" on="1"/>
        <pt x="988" y="732" on="1"/>
        <pt x="796" y="0" on="1"/>
        <pt x="602" y="0" on="1"/>
        <pt x="518" y="273" on="1"/>
        <pt x="444" y="0" on="1"/>
        <pt x="250" y="0" on="1"/>
      </contour>
    </TTGlyph>
    <TTGlyph name="Wcircumflex" xMin="30" yMin="0" xMax="988" yMax="934">
      <contour>
        <pt x="360" y="796" on="1"/>
        <pt x="464" y="933" on="1"/>
        <pt x="580" y="933" on="1"/>
        <pt x="675" y="796" on="1"/>
        <pt x="574" y="796" on="1"/>
        <pt x="519" y="852" on="1"/>
        <pt x="462" y="796" on="1"/>
      </contour>
      <contour>
        <pt x="30" y="732" on="1"/>
        <pt x="203" y="732" on="1"/>
        <pt x="347" y="211" on="1"/>
        <pt x="461" y="732" on="1"/>
        <pt x="635" y="732" on="1"/>
        <pt x="590" y="560" on="1"/>
        <pt x="700" y="209" on="1"/>
        <pt x="815" y="732" on="1"/>
        <pt x="988" y="732" on="1"/>
        <pt x="796" y="0" on="1"/>
        <pt x="602" y="0" on="1"/>
        <pt x="518" y="273" on="1"/>
        <pt x="444" y="0" on="1"/>
        <pt x="250" y="0" on="1"/>
      </contour>
    </TTGlyph>
    <TTGlyph name="Wdieresis" xMin="30" yMin="0" xMax="988" yMax="920">
      <contour>
        <pt x="317" y="832" on="0"/>
        <pt x="317" y="883" on="0"/>
        <pt x="354" y="919" on="0"/>
        <pt x="405" y="919" on="0"/>
        <pt x="440" y="884" on="0"/>
        <pt x="440" y="832" on="0"/>
        <pt x="405" y="796" on="0"/>
        <pt x="354" y="796" on="0"/>
      </contour>
      <contour>
        <pt x="609" y="796" on="0"/>
        <pt x="572" y="832" on="0"/>
        <pt x="572" y="875" on="0"/>
        <pt x="580" y="889" on="1"/>
        <pt x="599" y="919" on="0"/>
        <pt x="660" y="919" on="0"/>
        <pt x="696" y="884" on="0"/>
        <pt x="696" y="832" on="0"/>
        <pt x="660" y="796" on="0"/>
      </contour>
      <contour>
        <pt x="30" y="732" on="1"/>
        <pt x="203" y="732" on="1"/>
        <pt x="347" y="211" on="1"/>
        <pt x="461" y="732" on="1"/>
        <pt x="635" y="732" on="1"/>
        <pt x="590" y="560" on="1"/>
        <pt x="700" y="209" on="1"/>
        <pt x="815" y="732" on="1"/>
        <pt x="988" y="732" on="1"/>
        <pt x="796" y="0" on="1"/>
        <pt x="602" y="0" on="1"/>
        <pt x="518" y="273" on="1"/>
        <pt x="444" y="0" on="1"/>
        <pt x="250" y="0" on="1"/>
      </contour>
    </TTGlyph>
    <TTGlyph name="Wgrave" xMin="30" yMin="0" xMax="988" yMax="937">
      <contour>
        <pt x="344" y="936" on="1"/>
        <pt x="476" y="936" on="1"/>
        <pt x="561" y="796" on="1"/>
        <pt x="462" y="796" on="1"/>
      </contour>
      <contour>
        <pt x="30" y="732" on="1"/>
        <pt x="203" y="732" on="1"/>
        <pt x="347" y="211" on="1"/>
        <pt x="461" y="732" on="1"/>
        <pt x="635" y="732" on="1"/>
        <pt x="590" y="560" on="1"/>
        <pt x="700" y="209" on="1"/>
        <pt x="815" y="732" on="1"/>
        <pt x="988" y="732" on="1"/>
        <pt x="796" y="0" on="1"/>
        <pt x="602" y="0" on="1"/>
        <pt x="518" y="273" on="1"/>
        <pt x="444" y="0" on="1"/>
        <pt x="250" y="0" on="1"/>
      </contour>
    </TTGlyph>
    <TTGlyph name="X" xMin="30" yMin="0" xMax="642" yMax="732">
      <contour>
        <pt x="30" y="732" on="1"/>
        <pt x="212" y="732" on="1"/>
        <pt x="335" y="503" on="1"/>
        <pt x="460" y="732" on="1"/>
        <pt x="642" y="732" on="1"/>
        <pt x="420" y="365" on="1"/>
        <pt x="636" y="0" on="1"/>
        <pt x="455" y="0" on="1"/>
        <pt x="335" y="224" on="1"/>
        <pt x="214" y="0" on="1"/>
        <pt x="33" y="0" on="1"/>
        <pt x="250" y="365" on="1"/>
      </contour>
    </TTGlyph>
    <TTGlyph name="X.salt" xMin="13" yMin="0" xMax="660" yMax="732">
      <contour>
        <pt x="154" y="305" on="1"/>
        <pt x="172" y="345" on="0"/>
        <pt x="172" y="373" on="0"/>
        <pt x="170" y="386" on="1"/>
        <pt x="168" y="406" on="0"/>
        <pt x="144" y="457" on="1"/>
        <pt x="13" y="732" on="1"/>
        <pt x="184" y="732" on="1"/>
        <pt x="312" y="487" on="1"/>
        <pt x="323" y="469" on="0"/>
        <pt x="323" y="277" on="0"/>
        <pt x="317" y="267" on="1"/>
        <pt x="192" y="0" on="1"/>
        <pt x="13" y="0" on="1"/>
      </contour>
      <contour>
        <pt x="355" y="267" on="1"/>
        <pt x="350" y="276" on="0"/>
        <pt x="350" y="315" on="1"/>
        <pt x="350" y="469" on="0"/>
        <pt x="360" y="487" on="1"/>
        <pt x="488" y="732" on="1"/>
        <pt x="660" y="732" on="1"/>
        <pt x="529" y="457" on="1"/>
        <pt x="501" y="397" on="0"/>
        <pt x="501" y="349" on="0"/>
        <pt x="519" y="305" on="1"/>
        <pt x="660" y="0" on="1"/>
        <pt x="481" y="0" on="1"/>
      </contour>
    </TTGlyph>
    <TTGlyph name="Y" xMin="30" yMin="0" xMax="650" yMax="732">
      <contour>
        <pt x="414" y="0" on="1"/>
        <pt x="250" y="0" on="1"/>
        <pt x="250" y="215" on="1"/>
        <pt x="30" y="732" on="1"/>
        <pt x="208" y="732" on="1"/>
        <pt x="334" y="393" on="1"/>
        <pt x="472" y="732" on="1"/>
        <pt x="650" y="732" on="1"/>
        <pt x="414" y="215" on="1"/>
      </contour>
    </TTGlyph>
    <TTGlyph name="Yacute" xMin="30" yMin="0" xMax="650" yMax="938">
      <contour>
        <pt x="290" y="797" on="1"/>
        <pt x="375" y="938" on="1"/>
        <pt x="508" y="938" on="1"/>
        <pt x="390" y="797" on="1"/>
      </contour>
      <contour>
        <pt x="414" y="0" on="1"/>
        <pt x="250" y="0" on="1"/>
        <pt x="250" y="215" on="1"/>
        <pt x="30" y="732" on="1"/>
        <pt x="208" y="732" on="1"/>
        <pt x="334" y="393" on="1"/>
        <pt x="472" y="732" on="1"/>
        <pt x="650" y="732" on="1"/>
        <pt x="414" y="215" on="1"/>
      </contour>
    </TTGlyph>
    <TTGlyph name="Ycircumflex" xMin="30" yMin="0" xMax="650" yMax="934">
      <contour>
        <pt x="180" y="796" on="1"/>
        <pt x="284" y="933" on="1"/>
        <pt x="400" y="933" on="1"/>
        <pt x="495" y="796" on="1"/>
        <pt x="394" y="796" on="1"/>
        <pt x="339" y="852" on="1"/>
        <pt x="282" y="796" on="1"/>
      </contour>
      <contour>
        <pt x="414" y="0" on="1"/>
        <pt x="250" y="0" on="1"/>
        <pt x="250" y="215" on="1"/>
        <pt x="30" y="732" on="1"/>
        <pt x="208" y="732" on="1"/>
        <pt x="334" y="393" on="1"/>
        <pt x="472" y="732" on="1"/>
        <pt x="650" y="732" on="1"/>
        <pt x="414" y="215" on="1"/>
      </contour>
    </TTGlyph>
    <TTGlyph name="Ydieresis" xMin="30" yMin="0" xMax="650" yMax="921">
      <contour>
        <pt x="188" y="797" on="0"/>
        <pt x="151" y="834" on="0"/>
        <pt x="151" y="876" on="0"/>
        <pt x="159" y="890" on="1"/>
        <pt x="177" y="920" on="0"/>
        <pt x="238" y="920" on="0"/>
        <pt x="274" y="885" on="0"/>
        <pt x="274" y="834" on="0"/>
        <pt x="238" y="797" on="0"/>
      </contour>
      <contour>
        <pt x="406" y="834" on="0"/>
        <pt x="406" y="885" on="0"/>
        <pt x="442" y="920" on="0"/>
        <pt x="494" y="920" on="0"/>
        <pt x="529" y="885" on="0"/>
        <pt x="529" y="834" on="0"/>
        <pt x="493" y="797" on="0"/>
        <pt x="442" y="797" on="0"/>
      </contour>
      <contour>
        <pt x="414" y="0" on="1"/>
        <pt x="250" y="0" on="1"/>
        <pt x="250" y="215" on="1"/>
        <pt x="30" y="732" on="1"/>
        <pt x="208" y="732" on="1"/>
        <pt x="334" y="393" on="1"/>
        <pt x="472" y="732" on="1"/>
        <pt x="650" y="732" on="1"/>
        <pt x="414" y="215" on="1"/>
      </contour>
    </TTGlyph>
    <TTGlyph name="Ygrave" xMin="30" yMin="0" xMax="650" yMax="938">
      <contour>
        <pt x="172" y="938" on="1"/>
        <pt x="305" y="938" on="1"/>
        <pt x="390" y="797" on="1"/>
        <pt x="290" y="797" on="1"/>
      </contour>
      <contour>
        <pt x="414" y="0" on="1"/>
        <pt x="250" y="0" on="1"/>
        <pt x="250" y="215" on="1"/>
        <pt x="30" y="732" on="1"/>
        <pt x="208" y="732" on="1"/>
        <pt x="334" y="393" on="1"/>
        <pt x="472" y="732" on="1"/>
        <pt x="650" y="732" on="1"/>
        <pt x="414" y="215" on="1"/>
      </contour>
    </TTGlyph>
    <TTGlyph name="Z" xMin="23" yMin="0" xMax="532" yMax="732">
      <contour>
        <pt x="24" y="0" on="1"/>
        <pt x="24" y="149" on="1"/>
        <pt x="337" y="583" on="1"/>
        <pt x="24" y="583" on="1"/>
        <pt x="24" y="732" on="1"/>
        <pt x="532" y="732" on="1"/>
        <pt x="532" y="583" on="1"/>
        <pt x="241" y="149" on="1"/>
        <pt x="532" y="149" on="1"/>
        <pt x="532" y="0" on="1"/>
      </contour>
    </TTGlyph>
    <TTGlyph name="Zacute" xMin="23" yMin="0" xMax="532" yMax="938">
      <contour>
        <pt x="228" y="797" on="1"/>
        <pt x="313" y="938" on="1"/>
        <pt x="445" y="938" on="1"/>
        <pt x="327" y="797" on="1"/>
      </contour>
      <contour>
        <pt x="24" y="0" on="1"/>
        <pt x="24" y="149" on="1"/>
        <pt x="337" y="583" on="1"/>
        <pt x="24" y="583" on="1"/>
        <pt x="24" y="732" on="1"/>
        <pt x="532" y="732" on="1"/>
        <pt x="532" y="583" on="1"/>
        <pt x="241" y="149" on="1"/>
        <pt x="532" y="149" on="1"/>
        <pt x="532" y="0" on="1"/>
      </contour>
    </TTGlyph>
    <TTGlyph name="Zcaron" xMin="23" yMin="0" xMax="532" yMax="935">
      <contour>
        <pt x="120" y="934" on="1"/>
        <pt x="222" y="934" on="1"/>
        <pt x="278" y="878" on="1"/>
        <pt x="333" y="934" on="1"/>
        <pt x="435" y="934" on="1"/>
        <pt x="334" y="797" on="1"/>
        <pt x="218" y="797" on="1"/>
      </contour>
      <contour>
        <pt x="24" y="0" on="1"/>
        <pt x="24" y="149" on="1"/>
        <pt x="337" y="583" on="1"/>
        <pt x="24" y="583" on="1"/>
        <pt x="24" y="732" on="1"/>
        <pt x="532" y="732" on="1"/>
        <pt x="532" y="583" on="1"/>
        <pt x="241" y="149" on="1"/>
        <pt x="532" y="149" on="1"/>
        <pt x="532" y="0" on="1"/>
      </contour>
    </TTGlyph>
    <TTGlyph name="Zdotaccent" xMin="23" yMin="0" xMax="532" yMax="929">
      <contour>
        <pt x="214" y="820" on="1"/>
        <pt x="214" y="904" on="1"/>
        <pt x="214" y="929" on="0"/>
        <pt x="238" y="929" on="1"/>
        <pt x="318" y="929" on="1"/>
        <pt x="329" y="929" on="0"/>
        <pt x="341" y="915" on="0"/>
        <pt x="341" y="904" on="1"/>
        <pt x="341" y="820" on="1"/>
        <pt x="341" y="797" on="0"/>
        <pt x="318" y="797" on="1"/>
        <pt x="238" y="797" on="1"/>
        <pt x="228" y="797" on="0"/>
        <pt x="214" y="810" on="0"/>
      </contour>
      <contour>
        <pt x="24" y="0" on="1"/>
        <pt x="24" y="149" on="1"/>
        <pt x="337" y="583" on="1"/>
        <pt x="24" y="583" on="1"/>
        <pt x="24" y="732" on="1"/>
        <pt x="532" y="732" on="1"/>
        <pt x="532" y="583" on="1"/>
        <pt x="241" y="149" on="1"/>
        <pt x="532" y="149" on="1"/>
        <pt x="532" y="0" on="1"/>
      </contour>
    </TTGlyph>
    <TTGlyph name="a" xMin="26" yMin="-7" xMax="487" yMax="542">
      <contour>
        <pt x="26" y="139" on="1"/>
        <pt x="26" y="185" on="1"/>
        <pt x="26" y="250" on="0"/>
        <pt x="104" y="335" on="0"/>
        <pt x="256" y="335" on="0"/>
        <pt x="322" y="335" on="0"/>
        <pt x="322" y="335" on="1"/>
        <pt x="323" y="356" on="0"/>
        <pt x="322" y="357" on="1"/>
        <pt x="322" y="395" on="0"/>
        <pt x="292" y="416" on="0"/>
        <pt x="200" y="416" on="0"/>
        <pt x="44" y="405" on="1"/>
        <pt x="44" y="504" on="1"/>
        <pt x="94" y="525" on="0"/>
        <pt x="148" y="533" on="1"/>
        <pt x="203" y="541" on="0"/>
        <pt x="382" y="541" on="0"/>
        <pt x="486" y="463" on="0"/>
        <pt x="486" y="364" on="1"/>
        <pt x="486" y="0" on="1"/>
        <pt x="356" y="0" on="1"/>
        <pt x="322" y="56" on="1"/>
        <pt x="314" y="39" on="0"/>
        <pt x="236" y="-6" on="0"/>
        <pt x="189" y="-6" on="1"/>
        <pt x="107" y="-6" on="0"/>
        <pt x="26" y="84" on="0"/>
      </contour>
      <contour>
        <pt x="237" y="120" on="1"/>
        <pt x="285" y="120" on="0"/>
        <pt x="322" y="158" on="1"/>
        <pt x="322" y="239" on="1"/>
        <pt x="228" y="231" on="1"/>
        <pt x="190" y="228" on="0"/>
        <pt x="190" y="181" on="1"/>
        <pt x="190" y="164" on="1"/>
        <pt x="190" y="133" on="0"/>
        <pt x="206" y="126" on="1"/>
        <pt x="217" y="120" on="0"/>
      </contour>
    </TTGlyph>
    <TTGlyph name="a.salt" xMin="33" yMin="0" xMax="500" yMax="538">
      <contour>
        <pt x="34" y="146" on="1"/>
        <pt x="34" y="180" on="1"/>
        <pt x="34" y="241" on="0"/>
        <pt x="51" y="269" on="1"/>
        <pt x="69" y="297" on="0"/>
        <pt x="94" y="307" on="1"/>
        <pt x="139" y="324" on="0"/>
        <pt x="200" y="324" on="1"/>
        <pt x="336" y="324" on="1"/>
        <pt x="336" y="357" on="0"/>
        <pt x="332" y="374" on="1"/>
        <pt x="325" y="408" on="0"/>
        <pt x="284" y="413" on="1"/>
        <pt x="267" y="415" on="0"/>
        <pt x="232" y="415" on="0"/>
        <pt x="155" y="415" on="0"/>
        <pt x="44" y="403" on="1"/>
        <pt x="44" y="500" on="1"/>
        <pt x="117" y="525" on="0"/>
        <pt x="212" y="537" on="0"/>
        <pt x="305" y="537" on="0"/>
        <pt x="308" y="537" on="1"/>
        <pt x="402" y="537" on="0"/>
        <pt x="447" y="490" on="1"/>
        <pt x="486" y="450" on="0"/>
        <pt x="495" y="357" on="1"/>
        <pt x="500" y="318" on="0"/>
        <pt x="500" y="262" on="1"/>
        <pt x="500" y="171" on="1"/>
        <pt x="500" y="82" on="0"/>
        <pt x="424" y="0" on="0"/>
        <pt x="344" y="0" on="1"/>
        <pt x="200" y="0" on="1"/>
        <pt x="122" y="0" on="0"/>
        <pt x="34" y="66" on="0"/>
      </contour>
      <contour>
        <pt x="198" y="161" on="1"/>
        <pt x="198" y="137" on="0"/>
        <pt x="203" y="130" on="1"/>
        <pt x="213" y="119" on="0"/>
        <pt x="239" y="119" on="1"/>
        <pt x="290" y="119" on="1"/>
        <pt x="323" y="119" on="0"/>
        <pt x="331" y="137" on="1"/>
        <pt x="336" y="147" on="0"/>
        <pt x="336" y="165" on="1"/>
        <pt x="336" y="228" on="1"/>
        <pt x="238" y="222" on="1"/>
        <pt x="207" y="219" on="0"/>
        <pt x="201" y="202" on="1"/>
        <pt x="198" y="194" on="0"/>
        <pt x="198" y="180" on="1"/>
      </contour>
    </TTGlyph>
    <TTGlyph name="a.smcp" xMin="23" yMin="0" xMax="590" yMax="570">
      <contour>
        <pt x="24" y="0" on="1"/>
        <pt x="212" y="570" on="1"/>
        <pt x="413" y="570" on="1"/>
        <pt x="590" y="0" on="1"/>
        <pt x="419" y="0" on="1"/>
        <pt x="387" y="103" on="1"/>
        <pt x="229" y="103" on="1"/>
        <pt x="195" y="0" on="1"/>
      </contour>
      <contour>
        <pt x="265" y="230" on="1"/>
        <pt x="354" y="230" on="1"/>
        <pt x="312" y="374" on="1"/>
      </contour>
    </TTGlyph>
    <TTGlyph name="a.superior" xMin="20" yMin="373" xMax="348" yMax="739">
      <contour>
        <pt x="32" y="710" on="1"/>
        <pt x="95" y="738" on="0"/>
        <pt x="270" y="738" on="0"/>
        <pt x="347" y="687" on="0"/>
        <pt x="347" y="621" on="1"/>
        <pt x="347" y="378" on="1"/>
        <pt x="250" y="378" on="1"/>
        <pt x="222" y="421" on="1"/>
        <pt x="217" y="407" on="0"/>
        <pt x="165" y="374" on="0"/>
        <pt x="134" y="374" on="1"/>
        <pt x="67" y="374" on="0"/>
        <pt x="37" y="417" on="1"/>
        <pt x="20" y="440" on="0"/>
        <pt x="20" y="468" on="1"/>
        <pt x="20" y="498" on="1"/>
        <pt x="20" y="540" on="0"/>
        <pt x="75" y="595" on="0"/>
        <pt x="173" y="595" on="0"/>
        <pt x="222" y="595" on="0"/>
        <pt x="222" y="596" on="1"/>
        <pt x="223" y="605" on="0"/>
        <pt x="222" y="606" on="1"/>
        <pt x="222" y="631" on="0"/>
        <pt x="201" y="644" on="0"/>
        <pt x="160" y="644" on="0"/>
        <pt x="32" y="635" on="1"/>
      </contour>
      <contour>
        <pt x="168" y="462" on="1"/>
        <pt x="201" y="462" on="0"/>
        <pt x="222" y="485" on="1"/>
        <pt x="222" y="534" on="1"/>
        <pt x="162" y="528" on="1"/>
        <pt x="136" y="526" on="0"/>
        <pt x="136" y="498" on="1"/>
        <pt x="136" y="488" on="1"/>
        <pt x="136" y="467" on="0"/>
        <pt x="152" y="463" on="1"/>
        <pt x="158" y="462" on="0"/>
      </contour>
    </TTGlyph>
    <TTGlyph name="aacute" xMin="26" yMin="-7" xMax="487" yMax="742">
      <contour>
        <pt x="217" y="601" on="1"/>
        <pt x="301" y="742" on="1"/>
        <pt x="434" y="742" on="1"/>
        <pt x="316" y="601" on="1"/>
      </contour>
      <contour>
        <pt x="26" y="139" on="1"/>
        <pt x="26" y="185" on="1"/>
        <pt x="26" y="250" on="0"/>
        <pt x="104" y="335" on="0"/>
        <pt x="256" y="335" on="0"/>
        <pt x="322" y="335" on="0"/>
        <pt x="322" y="335" on="1"/>
        <pt x="323" y="356" on="0"/>
        <pt x="322" y="357" on="1"/>
        <pt x="322" y="395" on="0"/>
        <pt x="292" y="416" on="0"/>
        <pt x="200" y="416" on="0"/>
        <pt x="44" y="405" on="1"/>
        <pt x="44" y="504" on="1"/>
        <pt x="94" y="525" on="0"/>
        <pt x="148" y="533" on="1"/>
        <pt x="203" y="541" on="0"/>
        <pt x="382" y="541" on="0"/>
        <pt x="486" y="463" on="0"/>
        <pt x="486" y="364" on="1"/>
        <pt x="486" y="0" on="1"/>
        <pt x="356" y="0" on="1"/>
        <pt x="322" y="56" on="1"/>
        <pt x="314" y="39" on="0"/>
        <pt x="236" y="-6" on="0"/>
        <pt x="189" y="-6" on="1"/>
        <pt x="107" y="-6" on="0"/>
        <pt x="26" y="84" on="0"/>
      </contour>
      <contour>
        <pt x="237" y="120" on="1"/>
        <pt x="285" y="120" on="0"/>
        <pt x="322" y="158" on="1"/>
        <pt x="322" y="239" on="1"/>
        <pt x="228" y="231" on="1"/>
        <pt x="190" y="228" on="0"/>
        <pt x="190" y="181" on="1"/>
        <pt x="190" y="164" on="1"/>
        <pt x="190" y="133" on="0"/>
        <pt x="206" y="126" on="1"/>
        <pt x="217" y="120" on="0"/>
      </contour>
    </TTGlyph>
    <TTGlyph name="aacute.salt" xMin="33" yMin="0" xMax="500" yMax="738">
      <contour>
        <pt x="228" y="597" on="1"/>
        <pt x="313" y="738" on="1"/>
        <pt x="445" y="738" on="1"/>
        <pt x="327" y="597" on="1"/>
      </contour>
      <contour>
        <pt x="34" y="146" on="1"/>
        <pt x="34" y="180" on="1"/>
        <pt x="34" y="241" on="0"/>
        <pt x="51" y="269" on="1"/>
        <pt x="69" y="297" on="0"/>
        <pt x="94" y="307" on="1"/>
        <pt x="139" y="324" on="0"/>
        <pt x="200" y="324" on="1"/>
        <pt x="336" y="324" on="1"/>
        <pt x="336" y="357" on="0"/>
        <pt x="332" y="374" on="1"/>
        <pt x="325" y="408" on="0"/>
        <pt x="284" y="413" on="1"/>
        <pt x="267" y="415" on="0"/>
        <pt x="232" y="415" on="0"/>
        <pt x="155" y="415" on="0"/>
        <pt x="44" y="403" on="1"/>
        <pt x="44" y="500" on="1"/>
        <pt x="117" y="525" on="0"/>
        <pt x="212" y="537" on="0"/>
        <pt x="305" y="537" on="0"/>
        <pt x="308" y="537" on="1"/>
        <pt x="402" y="537" on="0"/>
        <pt x="447" y="490" on="1"/>
        <pt x="486" y="450" on="0"/>
        <pt x="495" y="357" on="1"/>
        <pt x="500" y="318" on="0"/>
        <pt x="500" y="262" on="1"/>
        <pt x="500" y="171" on="1"/>
        <pt x="500" y="82" on="0"/>
        <pt x="424" y="0" on="0"/>
        <pt x="344" y="0" on="1"/>
        <pt x="200" y="0" on="1"/>
        <pt x="122" y="0" on="0"/>
        <pt x="34" y="66" on="0"/>
      </contour>
      <contour>
        <pt x="198" y="161" on="1"/>
        <pt x="198" y="137" on="0"/>
        <pt x="203" y="130" on="1"/>
        <pt x="213" y="119" on="0"/>
        <pt x="239" y="119" on="1"/>
        <pt x="290" y="119" on="1"/>
        <pt x="323" y="119" on="0"/>
        <pt x="331" y="137" on="1"/>
        <pt x="336" y="147" on="0"/>
        <pt x="336" y="165" on="1"/>
        <pt x="336" y="228" on="1"/>
        <pt x="238" y="222" on="1"/>
        <pt x="207" y="219" on="0"/>
        <pt x="201" y="202" on="1"/>
        <pt x="198" y="194" on="0"/>
        <pt x="198" y="180" on="1"/>
      </contour>
    </TTGlyph>
    <TTGlyph name="aacute.smcp" xMin="23" yMin="0" xMax="590" yMax="771">
      <contour>
        <pt x="263" y="630" on="1"/>
        <pt x="348" y="770" on="1"/>
        <pt x="480" y="770" on="1"/>
        <pt x="362" y="630" on="1"/>
      </contour>
      <contour>
        <pt x="24" y="0" on="1"/>
        <pt x="212" y="570" on="1"/>
        <pt x="413" y="570" on="1"/>
        <pt x="590" y="0" on="1"/>
        <pt x="419" y="0" on="1"/>
        <pt x="387" y="103" on="1"/>
        <pt x="229" y="103" on="1"/>
        <pt x="195" y="0" on="1"/>
      </contour>
      <contour>
        <pt x="265" y="230" on="1"/>
        <pt x="354" y="230" on="1"/>
        <pt x="312" y="374" on="1"/>
      </contour>
    </TTGlyph>
    <TTGlyph name="abreve" xMin="26" yMin="-7" xMax="487" yMax="715">
      <contour>
        <pt x="154" y="715" on="1"/>
        <pt x="216" y="715" on="1"/>
        <pt x="216" y="691" on="0"/>
        <pt x="244" y="663" on="0"/>
        <pt x="268" y="663" on="1"/>
        <pt x="322" y="663" on="0"/>
        <pt x="322" y="715" on="1"/>
        <pt x="384" y="715" on="1"/>
        <pt x="384" y="681" on="0"/>
        <pt x="369" y="655" on="1"/>
        <pt x="338" y="601" on="0"/>
        <pt x="268" y="601" on="1"/>
        <pt x="218" y="601" on="0"/>
        <pt x="154" y="664" on="0"/>
      </contour>
      <contour>
        <pt x="26" y="139" on="1"/>
        <pt x="26" y="185" on="1"/>
        <pt x="26" y="250" on="0"/>
        <pt x="104" y="335" on="0"/>
        <pt x="256" y="335" on="0"/>
        <pt x="322" y="335" on="0"/>
        <pt x="322" y="335" on="1"/>
        <pt x="323" y="356" on="0"/>
        <pt x="322" y="357" on="1"/>
        <pt x="322" y="395" on="0"/>
        <pt x="292" y="416" on="0"/>
        <pt x="200" y="416" on="0"/>
        <pt x="44" y="405" on="1"/>
        <pt x="44" y="504" on="1"/>
        <pt x="94" y="525" on="0"/>
        <pt x="148" y="533" on="1"/>
        <pt x="203" y="541" on="0"/>
        <pt x="382" y="541" on="0"/>
        <pt x="486" y="463" on="0"/>
        <pt x="486" y="364" on="1"/>
        <pt x="486" y="0" on="1"/>
        <pt x="356" y="0" on="1"/>
        <pt x="322" y="56" on="1"/>
        <pt x="314" y="39" on="0"/>
        <pt x="236" y="-6" on="0"/>
        <pt x="189" y="-6" on="1"/>
        <pt x="107" y="-6" on="0"/>
        <pt x="26" y="84" on="0"/>
      </contour>
      <contour>
        <pt x="237" y="120" on="1"/>
        <pt x="285" y="120" on="0"/>
        <pt x="322" y="158" on="1"/>
        <pt x="322" y="239" on="1"/>
        <pt x="228" y="231" on="1"/>
        <pt x="190" y="228" on="0"/>
        <pt x="190" y="181" on="1"/>
        <pt x="190" y="164" on="1"/>
        <pt x="190" y="133" on="0"/>
        <pt x="206" y="126" on="1"/>
        <pt x="217" y="120" on="0"/>
      </contour>
    </TTGlyph>
    <TTGlyph name="abreve.salt" xMin="33" yMin="0" xMax="500" yMax="712">
      <contour>
        <pt x="164" y="711" on="1"/>
        <pt x="226" y="711" on="1"/>
        <pt x="226" y="687" on="0"/>
        <pt x="254" y="659" on="0"/>
        <pt x="278" y="659" on="1"/>
        <pt x="332" y="659" on="0"/>
        <pt x="332" y="711" on="1"/>
        <pt x="394" y="711" on="1"/>
        <pt x="394" y="677" on="0"/>
        <pt x="379" y="651" on="1"/>
        <pt x="348" y="597" on="0"/>
        <pt x="278" y="597" on="1"/>
        <pt x="228" y="597" on="0"/>
        <pt x="164" y="660" on="0"/>
      </contour>
      <contour>
        <pt x="34" y="146" on="1"/>
        <pt x="34" y="180" on="1"/>
        <pt x="34" y="241" on="0"/>
        <pt x="51" y="269" on="1"/>
        <pt x="69" y="297" on="0"/>
        <pt x="94" y="307" on="1"/>
        <pt x="139" y="324" on="0"/>
        <pt x="200" y="324" on="1"/>
        <pt x="336" y="324" on="1"/>
        <pt x="336" y="357" on="0"/>
        <pt x="332" y="374" on="1"/>
        <pt x="325" y="408" on="0"/>
        <pt x="284" y="413" on="1"/>
        <pt x="267" y="415" on="0"/>
        <pt x="232" y="415" on="0"/>
        <pt x="155" y="415" on="0"/>
        <pt x="44" y="403" on="1"/>
        <pt x="44" y="500" on="1"/>
        <pt x="117" y="525" on="0"/>
        <pt x="212" y="537" on="0"/>
        <pt x="305" y="537" on="0"/>
        <pt x="308" y="537" on="1"/>
        <pt x="402" y="537" on="0"/>
        <pt x="447" y="490" on="1"/>
        <pt x="486" y="450" on="0"/>
        <pt x="495" y="357" on="1"/>
        <pt x="500" y="318" on="0"/>
        <pt x="500" y="262" on="1"/>
        <pt x="500" y="171" on="1"/>
        <pt x="500" y="82" on="0"/>
        <pt x="424" y="0" on="0"/>
        <pt x="344" y="0" on="1"/>
        <pt x="200" y="0" on="1"/>
        <pt x="122" y="0" on="0"/>
        <pt x="34" y="66" on="0"/>
      </contour>
      <contour>
        <pt x="198" y="161" on="1"/>
        <pt x="198" y="137" on="0"/>
        <pt x="203" y="130" on="1"/>
        <pt x="213" y="119" on="0"/>
        <pt x="239" y="119" on="1"/>
        <pt x="290" y="119" on="1"/>
        <pt x="323" y="119" on="0"/>
        <pt x="331" y="137" on="1"/>
        <pt x="336" y="147" on="0"/>
        <pt x="336" y="165" on="1"/>
        <pt x="336" y="228" on="1"/>
        <pt x="238" y="222" on="1"/>
        <pt x="207" y="219" on="0"/>
        <pt x="201" y="202" on="1"/>
        <pt x="198" y="194" on="0"/>
        <pt x="198" y="180" on="1"/>
      </contour>
    </TTGlyph>
    <TTGlyph name="abreve.smcp" xMin="23" yMin="0" xMax="590" yMax="744">
      <contour>
        <pt x="198" y="744" on="1"/>
        <pt x="260" y="744" on="1"/>
        <pt x="260" y="720" on="0"/>
        <pt x="287" y="692" on="0"/>
        <pt x="312" y="692" on="1"/>
        <pt x="366" y="692" on="0"/>
        <pt x="366" y="744" on="1"/>
        <pt x="428" y="744" on="1"/>
        <pt x="428" y="692" on="0"/>
        <pt x="363" y="630" on="0"/>
        <pt x="262" y="630" on="0"/>
        <pt x="198" y="693" on="0"/>
      </contour>
      <contour>
        <pt x="24" y="0" on="1"/>
        <pt x="212" y="570" on="1"/>
        <pt x="413" y="570" on="1"/>
        <pt x="590" y="0" on="1"/>
        <pt x="419" y="0" on="1"/>
        <pt x="387" y="103" on="1"/>
        <pt x="229" y="103" on="1"/>
        <pt x="195" y="0" on="1"/>
      </contour>
      <contour>
        <pt x="265" y="230" on="1"/>
        <pt x="354" y="230" on="1"/>
        <pt x="312" y="374" on="1"/>
      </contour>
    </TTGlyph>
    <TTGlyph name="acircumflex" xMin="26" yMin="-7" xMax="487" yMax="739">
      <contour>
        <pt x="110" y="601" on="1"/>
        <pt x="214" y="738" on="1"/>
        <pt x="330" y="738" on="1"/>
        <pt x="424" y="601" on="1"/>
        <pt x="323" y="601" on="1"/>
        <pt x="268" y="657" on="1"/>
        <pt x="212" y="601" on="1"/>
      </contour>
      <contour>
        <pt x="26" y="139" on="1"/>
        <pt x="26" y="185" on="1"/>
        <pt x="26" y="250" on="0"/>
        <pt x="104" y="335" on="0"/>
        <pt x="256" y="335" on="0"/>
        <pt x="322" y="335" on="0"/>
        <pt x="322" y="335" on="1"/>
        <pt x="323" y="356" on="0"/>
        <pt x="322" y="357" on="1"/>
        <pt x="322" y="395" on="0"/>
        <pt x="292" y="416" on="0"/>
        <pt x="200" y="416" on="0"/>
        <pt x="44" y="405" on="1"/>
        <pt x="44" y="504" on="1"/>
        <pt x="94" y="525" on="0"/>
        <pt x="148" y="533" on="1"/>
        <pt x="203" y="541" on="0"/>
        <pt x="382" y="541" on="0"/>
        <pt x="486" y="463" on="0"/>
        <pt x="486" y="364" on="1"/>
        <pt x="486" y="0" on="1"/>
        <pt x="356" y="0" on="1"/>
        <pt x="322" y="56" on="1"/>
        <pt x="314" y="39" on="0"/>
        <pt x="236" y="-6" on="0"/>
        <pt x="189" y="-6" on="1"/>
        <pt x="107" y="-6" on="0"/>
        <pt x="26" y="84" on="0"/>
      </contour>
      <contour>
        <pt x="237" y="120" on="1"/>
        <pt x="285" y="120" on="0"/>
        <pt x="322" y="158" on="1"/>
        <pt x="322" y="239" on="1"/>
        <pt x="228" y="231" on="1"/>
        <pt x="190" y="228" on="0"/>
        <pt x="190" y="181" on="1"/>
        <pt x="190" y="164" on="1"/>
        <pt x="190" y="133" on="0"/>
        <pt x="206" y="126" on="1"/>
        <pt x="217" y="120" on="0"/>
      </contour>
    </TTGlyph>
    <TTGlyph name="acircumflex.salt" xMin="33" yMin="0" xMax="500" yMax="735">
      <contour>
        <pt x="121" y="597" on="1"/>
        <pt x="225" y="735" on="1"/>
        <pt x="341" y="735" on="1"/>
        <pt x="435" y="597" on="1"/>
        <pt x="334" y="597" on="1"/>
        <pt x="280" y="653" on="1"/>
        <pt x="223" y="597" on="1"/>
      </contour>
      <contour>
        <pt x="34" y="146" on="1"/>
        <pt x="34" y="180" on="1"/>
        <pt x="34" y="241" on="0"/>
        <pt x="51" y="269" on="1"/>
        <pt x="69" y="297" on="0"/>
        <pt x="94" y="307" on="1"/>
        <pt x="139" y="324" on="0"/>
        <pt x="200" y="324" on="1"/>
        <pt x="336" y="324" on="1"/>
        <pt x="336" y="357" on="0"/>
        <pt x="332" y="374" on="1"/>
        <pt x="325" y="408" on="0"/>
        <pt x="284" y="413" on="1"/>
        <pt x="267" y="415" on="0"/>
        <pt x="232" y="415" on="0"/>
        <pt x="155" y="415" on="0"/>
        <pt x="44" y="403" on="1"/>
        <pt x="44" y="500" on="1"/>
        <pt x="117" y="525" on="0"/>
        <pt x="212" y="537" on="0"/>
        <pt x="305" y="537" on="0"/>
        <pt x="308" y="537" on="1"/>
        <pt x="402" y="537" on="0"/>
        <pt x="447" y="490" on="1"/>
        <pt x="486" y="450" on="0"/>
        <pt x="495" y="357" on="1"/>
        <pt x="500" y="318" on="0"/>
        <pt x="500" y="262" on="1"/>
        <pt x="500" y="171" on="1"/>
        <pt x="500" y="82" on="0"/>
        <pt x="424" y="0" on="0"/>
        <pt x="344" y="0" on="1"/>
        <pt x="200" y="0" on="1"/>
        <pt x="122" y="0" on="0"/>
        <pt x="34" y="66" on="0"/>
      </contour>
      <contour>
        <pt x="198" y="161" on="1"/>
        <pt x="198" y="137" on="0"/>
        <pt x="203" y="130" on="1"/>
        <pt x="213" y="119" on="0"/>
        <pt x="239" y="119" on="1"/>
        <pt x="290" y="119" on="1"/>
        <pt x="323" y="119" on="0"/>
        <pt x="331" y="137" on="1"/>
        <pt x="336" y="147" on="0"/>
        <pt x="336" y="165" on="1"/>
        <pt x="336" y="228" on="1"/>
        <pt x="238" y="222" on="1"/>
        <pt x="207" y="219" on="0"/>
        <pt x="201" y="202" on="1"/>
        <pt x="198" y="194" on="0"/>
        <pt x="198" y="180" on="1"/>
      </contour>
    </TTGlyph>
    <TTGlyph name="acircumflex.smcp" xMin="23" yMin="0" xMax="590" yMax="768">
      <contour>
        <pt x="155" y="630" on="1"/>
        <pt x="260" y="768" on="1"/>
        <pt x="376" y="768" on="1"/>
        <pt x="470" y="630" on="1"/>
        <pt x="369" y="630" on="1"/>
        <pt x="314" y="686" on="1"/>
        <pt x="257" y="630" on="1"/>
      </contour>
      <contour>
        <pt x="24" y="0" on="1"/>
        <pt x="212" y="570" on="1"/>
        <pt x="413" y="570" on="1"/>
        <pt x="590" y="0" on="1"/>
        <pt x="419" y="0" on="1"/>
        <pt x="387" y="103" on="1"/>
        <pt x="229" y="103" on="1"/>
        <pt x="195" y="0" on="1"/>
      </contour>
      <contour>
        <pt x="265" y="230" on="1"/>
        <pt x="354" y="230" on="1"/>
        <pt x="312" y="374" on="1"/>
      </contour>
    </TTGlyph>
    <TTGlyph name="acute" xMin="13" yMin="531" xMax="231" yMax="672">
      <contour>
        <pt x="13" y="531" on="1"/>
        <pt x="98" y="672" on="1"/>
        <pt x="230" y="672" on="1"/>
        <pt x="112" y="531" on="1"/>
      </contour>
    </TTGlyph>
    <TTGlyph name="acute.smcp" xMin="13" yMin="531" xMax="231" yMax="672">
      <contour>
        <pt x="13" y="531" on="1"/>
        <pt x="98" y="672" on="1"/>
        <pt x="230" y="672" on="1"/>
        <pt x="112" y="531" on="1"/>
      </contour>
    </TTGlyph>
    <TTGlyph name="adieresis" xMin="26" yMin="-7" xMax="487" yMax="725">
      <contour>
        <pt x="77" y="638" on="0"/>
        <pt x="77" y="689" on="0"/>
        <pt x="114" y="725" on="0"/>
        <pt x="165" y="725" on="0"/>
        <pt x="201" y="689" on="0"/>
        <pt x="201" y="638" on="0"/>
        <pt x="165" y="601" on="0"/>
        <pt x="114" y="601" on="0"/>
      </contour>
      <contour>
        <pt x="332" y="638" on="0"/>
        <pt x="332" y="689" on="0"/>
        <pt x="369" y="725" on="0"/>
        <pt x="420" y="725" on="0"/>
        <pt x="456" y="689" on="0"/>
        <pt x="456" y="638" on="0"/>
        <pt x="420" y="601" on="0"/>
        <pt x="369" y="601" on="0"/>
      </contour>
      <contour>
        <pt x="26" y="139" on="1"/>
        <pt x="26" y="185" on="1"/>
        <pt x="26" y="250" on="0"/>
        <pt x="104" y="335" on="0"/>
        <pt x="256" y="335" on="0"/>
        <pt x="322" y="335" on="0"/>
        <pt x="322" y="335" on="1"/>
        <pt x="323" y="356" on="0"/>
        <pt x="322" y="357" on="1"/>
        <pt x="322" y="395" on="0"/>
        <pt x="292" y="416" on="0"/>
        <pt x="200" y="416" on="0"/>
        <pt x="44" y="405" on="1"/>
        <pt x="44" y="504" on="1"/>
        <pt x="94" y="525" on="0"/>
        <pt x="148" y="533" on="1"/>
        <pt x="203" y="541" on="0"/>
        <pt x="382" y="541" on="0"/>
        <pt x="486" y="463" on="0"/>
        <pt x="486" y="364" on="1"/>
        <pt x="486" y="0" on="1"/>
        <pt x="356" y="0" on="1"/>
        <pt x="322" y="56" on="1"/>
        <pt x="314" y="39" on="0"/>
        <pt x="236" y="-6" on="0"/>
        <pt x="189" y="-6" on="1"/>
        <pt x="107" y="-6" on="0"/>
        <pt x="26" y="84" on="0"/>
      </contour>
      <contour>
        <pt x="237" y="120" on="1"/>
        <pt x="285" y="120" on="0"/>
        <pt x="322" y="158" on="1"/>
        <pt x="322" y="239" on="1"/>
        <pt x="228" y="231" on="1"/>
        <pt x="190" y="228" on="0"/>
        <pt x="190" y="181" on="1"/>
        <pt x="190" y="164" on="1"/>
        <pt x="190" y="133" on="0"/>
        <pt x="206" y="126" on="1"/>
        <pt x="217" y="120" on="0"/>
      </contour>
    </TTGlyph>
    <TTGlyph name="adieresis.salt" xMin="33" yMin="0" xMax="500" yMax="721">
      <contour>
        <pt x="91" y="634" on="0"/>
        <pt x="91" y="685" on="0"/>
        <pt x="128" y="721" on="0"/>
        <pt x="179" y="721" on="0"/>
        <pt x="215" y="685" on="0"/>
        <pt x="215" y="643" on="0"/>
        <pt x="207" y="628" on="1"/>
        <pt x="189" y="597" on="0"/>
        <pt x="128" y="597" on="0"/>
      </contour>
      <contour>
        <pt x="346" y="634" on="0"/>
        <pt x="346" y="685" on="0"/>
        <pt x="383" y="721" on="0"/>
        <pt x="434" y="721" on="0"/>
        <pt x="470" y="685" on="0"/>
        <pt x="470" y="634" on="0"/>
        <pt x="434" y="597" on="0"/>
        <pt x="383" y="597" on="0"/>
      </contour>
      <contour>
        <pt x="34" y="146" on="1"/>
        <pt x="34" y="180" on="1"/>
        <pt x="34" y="241" on="0"/>
        <pt x="51" y="269" on="1"/>
        <pt x="69" y="297" on="0"/>
        <pt x="94" y="307" on="1"/>
        <pt x="139" y="324" on="0"/>
        <pt x="200" y="324" on="1"/>
        <pt x="336" y="324" on="1"/>
        <pt x="336" y="357" on="0"/>
        <pt x="332" y="374" on="1"/>
        <pt x="325" y="408" on="0"/>
        <pt x="284" y="413" on="1"/>
        <pt x="267" y="415" on="0"/>
        <pt x="232" y="415" on="0"/>
        <pt x="155" y="415" on="0"/>
        <pt x="44" y="403" on="1"/>
        <pt x="44" y="500" on="1"/>
        <pt x="117" y="525" on="0"/>
        <pt x="212" y="537" on="0"/>
        <pt x="305" y="537" on="0"/>
        <pt x="308" y="537" on="1"/>
        <pt x="402" y="537" on="0"/>
        <pt x="447" y="490" on="1"/>
        <pt x="486" y="450" on="0"/>
        <pt x="495" y="357" on="1"/>
        <pt x="500" y="318" on="0"/>
        <pt x="500" y="262" on="1"/>
        <pt x="500" y="171" on="1"/>
        <pt x="500" y="82" on="0"/>
        <pt x="424" y="0" on="0"/>
        <pt x="344" y="0" on="1"/>
        <pt x="200" y="0" on="1"/>
        <pt x="122" y="0" on="0"/>
        <pt x="34" y="66" on="0"/>
      </contour>
      <contour>
        <pt x="198" y="161" on="1"/>
        <pt x="198" y="137" on="0"/>
        <pt x="203" y="130" on="1"/>
        <pt x="213" y="119" on="0"/>
        <pt x="239" y="119" on="1"/>
        <pt x="290" y="119" on="1"/>
        <pt x="323" y="119" on="0"/>
        <pt x="331" y="137" on="1"/>
        <pt x="336" y="147" on="0"/>
        <pt x="336" y="165" on="1"/>
        <pt x="336" y="228" on="1"/>
        <pt x="238" y="222" on="1"/>
        <pt x="207" y="219" on="0"/>
        <pt x="201" y="202" on="1"/>
        <pt x="198" y="194" on="0"/>
        <pt x="198" y="180" on="1"/>
      </contour>
    </TTGlyph>
    <TTGlyph name="adieresis.smcp" xMin="23" yMin="0" xMax="590" yMax="754">
      <contour>
        <pt x="123" y="667" on="0"/>
        <pt x="123" y="718" on="0"/>
        <pt x="160" y="754" on="0"/>
        <pt x="211" y="754" on="0"/>
        <pt x="247" y="718" on="0"/>
        <pt x="247" y="667" on="0"/>
        <pt x="211" y="630" on="0"/>
        <pt x="160" y="630" on="0"/>
      </contour>
      <contour>
        <pt x="378" y="667" on="0"/>
        <pt x="378" y="718" on="0"/>
        <pt x="415" y="754" on="0"/>
        <pt x="466" y="754" on="0"/>
        <pt x="502" y="718" on="0"/>
        <pt x="502" y="667" on="0"/>
        <pt x="466" y="630" on="0"/>
        <pt x="415" y="630" on="0"/>
      </contour>
      <contour>
        <pt x="24" y="0" on="1"/>
        <pt x="212" y="570" on="1"/>
        <pt x="413" y="570" on="1"/>
        <pt x="590" y="0" on="1"/>
        <pt x="419" y="0" on="1"/>
        <pt x="387" y="103" on="1"/>
        <pt x="229" y="103" on="1"/>
        <pt x="195" y="0" on="1"/>
      </contour>
      <contour>
        <pt x="265" y="230" on="1"/>
        <pt x="354" y="230" on="1"/>
        <pt x="312" y="374" on="1"/>
      </contour>
    </TTGlyph>
</ttFont>
